<svg id="Ebene_1" data-name="Ebene 1" xmlns="http://www.w3.org/2000/svg" viewBox="0 0 306.01 61.66"><title>chancen-eg_logo_hgw_l_rgb_cropped</title><path d="M54.93,19.15a40.92,40.92,0,0,1,8.73-1.64M42.33,54.91l-0.15-.55M47.4,23a16.89,16.89,0,0,0-2.65,2.58,18.08,18.08,0,0,0-3.11,5.76m0.78,24,0.07,0.23S62.73,58,71.31,47.53s2.26-29.94,2.26-29.94a53.25,53.25,0,0,0-9.9-.08M47.4,23a23.62,23.62,0,0,1,7.53-3.8M42.33,54.91l0.1,0.33m-0.59-2.18c0.13,0.51.24,0.95,0.34,1.3M41.64,31.29c-2.65,7.86-.89,17.4.19,21.77M28.15,19.39a40.91,40.91,0,0,0-8.76-1.49m16.35,5.15a23.61,23.61,0,0,0-7.59-3.67m7.59,3.67a16.76,16.76,0,0,1,2.69,2.53,18.09,18.09,0,0,1,3.21,5.7M19.39,17.9a53.09,53.09,0,0,0-9.9.25S3.51,37.74,12.27,48s28.95,7.43,28.95,7.43L42.42,55m6.75-42.67a41.34,41.34,0,0,1,5.76,6.8M47.4,23a23.73,23.73,0,0,0-5.89-6.06m-22.13,1a53.72,53.72,0,0,1,5-8.58,53.17,53.17,0,0,1,9.39,3.17m0,0a41,41,0,0,1,7.73,4.41m-7.73-4.41a53.42,53.42,0,0,1,7.63-6.34,53.37,53.37,0,0,1,7.74,6.2m14.5,5.16A53.79,53.79,0,0,0,58.5,9a53.17,53.17,0,0,0-9.33,3.33" style="fill:none;stroke:#a0dc50;stroke-width:2.700000047683716px"/><path d="M106.36,43.36a0.37,0.37,0,0,1,.19.09l0.36,0.37a12.91,12.91,0,0,1-1.61,1.37,9.94,9.94,0,0,1-1.9,1.06,11.5,11.5,0,0,1-2.27.69,13.88,13.88,0,0,1-2.71.25,11.47,11.47,0,0,1-4.48-.86,10.07,10.07,0,0,1-3.53-2.45A11.32,11.32,0,0,1,88.08,40,14.58,14.58,0,0,1,87.25,35a14.3,14.3,0,0,1,.83-5,11.17,11.17,0,0,1,2.35-3.86,10.55,10.55,0,0,1,3.64-2.49,12,12,0,0,1,4.67-.88,11.52,11.52,0,0,1,4.25.73,12,12,0,0,1,3.45,2.11l-0.26.37a0.28,0.28,0,0,1-.27.12,0.76,0.76,0,0,1-.35-0.19l-0.65-.47c-0.27-.19-0.59-0.39-1-0.61a8.43,8.43,0,0,0-1.33-.61,11.23,11.23,0,0,0-3.88-.65,11.05,11.05,0,0,0-4.25.8,9.49,9.49,0,0,0-3.33,2.28A10.34,10.34,0,0,0,89,30.21,13.76,13.76,0,0,0,88.22,35a14,14,0,0,0,.77,4.8,10.38,10.38,0,0,0,2.15,3.59,9.31,9.31,0,0,0,3.25,2.25,10.43,10.43,0,0,0,4.06.78,14.61,14.61,0,0,0,2.46-.19,9.42,9.42,0,0,0,2-.56,8.58,8.58,0,0,0,1.68-.92,15.53,15.53,0,0,0,1.54-1.24A0.33,0.33,0,0,1,106.36,43.36Z" style="fill:#fff"/><path d="M129.93,23v23.9h-1V35.17H112.92V46.91H112V23h0.93V34.42H129V23h1Z" style="fill:#fff"/><path d="M155,46.91H154.3a0.4,0.4,0,0,1-.37-0.29l-3.11-7.57H138.54l-3.11,7.57a0.37,0.37,0,0,1-.39.29h-0.7L144.23,23h0.9Zm-4.52-8.57L145,25q-0.19-.46-0.36-1a7.39,7.39,0,0,1-.36,1l-5.47,13.31h11.66Z" style="fill:#fff"/><path d="M177.38,23v23.9H177a0.46,0.46,0,0,1-.37-0.2l-16.4-22.17c0,0.1,0,.21,0,0.31s0,0.21,0,.3V46.91h-0.82V23h0.42a0.5,0.5,0,0,1,.22,0,0.6,0.6,0,0,1,.19.18L176.6,45.32c0-.1,0-0.2,0-0.31s0-.2,0-0.29V23h0.82Z" style="fill:#fff"/><path d="M201.78,43.36a0.37,0.37,0,0,1,.19.09l0.36,0.37a12.91,12.91,0,0,1-1.61,1.37,9.94,9.94,0,0,1-1.9,1.06,11.55,11.55,0,0,1-2.27.69,13.87,13.87,0,0,1-2.71.25,11.47,11.47,0,0,1-4.48-.86,10.05,10.05,0,0,1-3.53-2.45A11.32,11.32,0,0,1,183.5,40a14.56,14.56,0,0,1-.83-5.07,14.28,14.28,0,0,1,.83-5,11.19,11.19,0,0,1,2.35-3.86,10.56,10.56,0,0,1,3.64-2.49,12,12,0,0,1,4.67-.88,11.52,11.52,0,0,1,4.25.73,12,12,0,0,1,3.45,2.11l-0.26.37a0.29,0.29,0,0,1-.27.12,0.76,0.76,0,0,1-.35-0.19l-0.65-.47q-0.4-.28-1-0.61a8.44,8.44,0,0,0-1.34-.61,11.23,11.23,0,0,0-3.88-.65,11.06,11.06,0,0,0-4.25.8,9.5,9.5,0,0,0-3.33,2.28,10.33,10.33,0,0,0-2.17,3.6,13.74,13.74,0,0,0-.77,4.75,13.92,13.92,0,0,0,.77,4.8,10.38,10.38,0,0,0,2.15,3.59,9.31,9.31,0,0,0,3.25,2.25,10.43,10.43,0,0,0,4.06.78,14.62,14.62,0,0,0,2.47-.19,9.42,9.42,0,0,0,2-.56,8.61,8.61,0,0,0,1.68-.92,15.64,15.64,0,0,0,1.54-1.24A0.34,0.34,0,0,1,201.78,43.36Z" style="fill:#fff"/><path d="M221.55,46.11l0,0.8H207.4V23h14.11v0.8H208.34V34.4h11.1v0.78h-11.1V46.12h13.21Z" style="fill:#fff"/><path d="M245.13,23v23.9h-0.39a0.46,0.46,0,0,1-.37-0.2L228,24.54c0,0.1,0,.21,0,0.31s0,0.21,0,.3V46.91h-0.82V23h0.42a0.5,0.5,0,0,1,.22,0,0.6,0.6,0,0,1,.19.18l16.34,22.08c0-.1,0-0.2,0-0.31s0-.2,0-0.29V23h0.82Z" style="fill:#fff"/><path d="M273.84,44.86a4.14,4.14,0,0,1-1,.83,7.51,7.51,0,0,1-1.4.72,10.46,10.46,0,0,1-1.72.51,9.12,9.12,0,0,1-1.9.2,7.7,7.7,0,0,1-3.1-.6,6.47,6.47,0,0,1-2.36-1.74,7.92,7.92,0,0,1-1.5-2.8,12.46,12.46,0,0,1-.53-3.78,10.68,10.68,0,0,1,.5-3.36,7.63,7.63,0,0,1,1.45-2.63,6.54,6.54,0,0,1,2.33-1.72,7.62,7.62,0,0,1,3.13-.61,6.74,6.74,0,0,1,2.54.48,5.82,5.82,0,0,1,2.07,1.4A6.52,6.52,0,0,1,273.78,34a9,9,0,0,1,.5,3.11,0.3,0.3,0,0,1-.31.36h-12.7a3.14,3.14,0,0,0,0,.33v0.35a11.89,11.89,0,0,0,.48,3.54,7.32,7.32,0,0,0,1.34,2.57,5.6,5.6,0,0,0,2.1,1.57,6.81,6.81,0,0,0,2.74.54,8.11,8.11,0,0,0,2.33-.3,9,9,0,0,0,1.65-.65,6.71,6.71,0,0,0,1-.65,1.26,1.26,0,0,1,.47-0.3,0.28,0.28,0,0,1,.22.1Zm-0.37-7.94a7.78,7.78,0,0,0-.43-2.69,5.89,5.89,0,0,0-1.19-2A5,5,0,0,0,270,31a5.86,5.86,0,0,0-2.24-.42,6.85,6.85,0,0,0-2.56.45,5.59,5.59,0,0,0-1.95,1.28,6.46,6.46,0,0,0-1.32,2,9,9,0,0,0-.65,2.62h12.14Z" style="fill:#fff"/><path d="M298.51,36.41v8.16a16,16,0,0,1-3.81,1.91,15.34,15.34,0,0,1-9.66-.15,10.35,10.35,0,0,1-6.22-6.3A14.56,14.56,0,0,1,278,35a14.62,14.62,0,0,1,.82-5.06,10.8,10.8,0,0,1,2.37-3.85,10.41,10.41,0,0,1,3.74-2.46,13.42,13.42,0,0,1,4.93-.86,16.73,16.73,0,0,1,2.47.17,11,11,0,0,1,2.1.52,9.88,9.88,0,0,1,1.83.88,12.4,12.4,0,0,1,1.66,1.22l-0.24.36a0.33,0.33,0,0,1-.39.14,2.37,2.37,0,0,1-.62-0.44,6.89,6.89,0,0,0-1.32-.84,11.63,11.63,0,0,0-2.22-.83,13.91,13.91,0,0,0-7.8.41,9.41,9.41,0,0,0-3.43,2.26,10,10,0,0,0-2.18,3.6,14,14,0,0,0-.77,4.79,14,14,0,0,0,.77,4.78,10,10,0,0,0,2.2,3.61,9.52,9.52,0,0,0,3.5,2.28,13,13,0,0,0,4.67.79,14.65,14.65,0,0,0,2.18-.15,12.31,12.31,0,0,0,1.91-.44,12.94,12.94,0,0,0,1.75-.71q0.85-.42,1.72-0.94v-7h-5a0.28,0.28,0,0,1-.2-0.08,0.26,0.26,0,0,1-.09-0.19V36.41h6.21Z" style="fill:#fff"/></svg>