<svg xmlns="http://www.w3.org/2000/svg" viewBox="0 0 400 300"><g id="_394_credit_card_flatline" data-name="#394_credit_card_flatline"><path d="M206.09,65a54.07,54.07,0,0,0-22.42,16.06c-5.11,6.38-22.19,35.51-22.19,35.51l22.31,6.12,28-36.78Z" fill="#3f60ff"/><rect x="118.66" y="83.49" width="120.89" height="76.21" rx="4.07" transform="matrix(1, -0.07, 0.07, 1, -7.78, 12.33)" fill="#fff"/><path d="M125.13,163.83a4.48,4.48,0,0,1-4.46-4.18l-4.59-67.92A4.5,4.5,0,0,1,120.26,87l112.5-7.58A4.39,4.39,0,0,1,236,80.46a4.46,4.46,0,0,1,1.52,3.08l4.58,67.92a4.48,4.48,0,0,1-4.17,4.77h0l-112.5,7.59ZM233.06,80.19h-.25l-112.5,7.59a3.64,3.64,0,0,0-3.39,3.88l4.58,67.92a3.66,3.66,0,0,0,3.88,3.4l112.5-7.59a3.66,3.66,0,0,0,3.4-3.89L236.7,83.59a3.65,3.65,0,0,0-3.64-3.4Zm4.85,75.63h0Z" fill="#231f20"/><path d="M136.8,129a3.51,3.51,0,0,1-2.33-.87,3.59,3.59,0,0,1-1.21-2.44l-.51-7.65a3.55,3.55,0,0,1,3.3-3.78l10-.68a3.57,3.57,0,0,1,3.79,3.31l.51,7.64a3.56,3.56,0,0,1-3.3,3.79l-10,.68Zm9.54-14.76h-.2l-10,.68a2.9,2.9,0,0,0-2.69,3.08l.51,7.64a2.84,2.84,0,0,0,1,2,2.87,2.87,0,0,0,2.09.71l10-.68h0a2.87,2.87,0,0,0,2.69-3.08l-.51-7.65a2.9,2.9,0,0,0-2.88-2.69Z" fill="#d1d3d4"/><rect x="138.54" y="114.38" width="0.66" height="14.11" transform="translate(-7.85 9.62) rotate(-3.86)" fill="#d1d3d4"/><rect x="143.94" y="114.01" width="0.66" height="14.11" transform="translate(-7.82 9.98) rotate(-3.86)" fill="#d1d3d4"/><rect x="133.06" y="117.1" width="16.51" height="0.66" transform="translate(-7.65 9.86) rotate(-3.89)" fill="#d1d3d4"/><rect x="133.58" y="124.76" width="16.51" height="0.66" transform="translate(-8.17 9.92) rotate(-3.89)" fill="#d1d3d4"/><rect x="133.23" y="119.89" width="5.23" height="0.66" transform="translate(-7.85 9.5) rotate(-3.89)" fill="#d1d3d4"/><rect x="133.42" y="122.7" width="5.23" height="0.66" transform="translate(-8.04 9.52) rotate(-3.89)" fill="#d1d3d4"/><polygon points="144.19 120 144.15 119.32 149.69 118.95 149.73 119.63 144.19 120" fill="#d1d3d4"/><polygon points="144.38 122.81 144.34 122.13 149.88 121.76 149.92 122.44 144.38 122.81" fill="#d1d3d4"/><rect x="134.34" y="133.86" width="15.99" height="5.21" rx="2.29" transform="translate(-8.86 9.89) rotate(-3.86)" fill="#d1d3d4"/><rect x="155.81" y="132.41" width="15.99" height="5.21" rx="2.29" transform="translate(-8.71 11.33) rotate(-3.86)" fill="#d1d3d4"/><rect x="177.28" y="130.97" width="15.99" height="5.21" rx="2.29" transform="matrix(1, -0.07, 0.07, 1, -8.57, 12.77)" fill="#d1d3d4"/><rect x="198.76" y="129.52" width="15.99" height="5.21" rx="2.29" transform="translate(-8.42 14.21) rotate(-3.86)" fill="#d1d3d4"/><rect x="135.15" y="147.9" width="32.15" height="0.66" transform="translate(-9.71 10.61) rotate(-3.89)" fill="#d1d3d4"/><rect x="175.8" y="146.07" width="4.96" height="0.66" transform="translate(-9.53 12.44) rotate(-3.89)" fill="#d1d3d4"/><rect x="186.1" y="145.38" width="4.96" height="0.66" transform="translate(-9.46 13.14) rotate(-3.89)" fill="#d1d3d4"/><rect x="180.26" y="145.95" width="6.64" height="0.66" transform="translate(-30.64 242.24) rotate(-62.68)" fill="#d1d3d4"/><rect x="117.24" y="95.7" width="120.89" height="9.68" transform="translate(-6.36 12.18) rotate(-3.86)" fill="#231f20"/><path d="M117.7,109.91a.47.47,0,0,1-.31-.11.44.44,0,0,1-.16-.33l-.66-9.66a.47.47,0,0,1,.44-.5l120.62-8.14a.45.45,0,0,1,.5.44l.65,9.66a.49.49,0,0,1-.11.35.52.52,0,0,1-.33.16l-120.61,8.13Zm-.15-9.69.59,8.71,119.67-8.07-.59-8.71Z" fill="#231f20"/><path d="M227.8,198.93s9.74,29.56,4.48,29.6-18.38-16-18.38-16L224.45,199" fill="#fff"/><path d="M232.26,229.08c-5.48,0-18.25-15.55-18.79-16.22a.56.56,0,0,1,0-.68L224,198.62a.55.55,0,0,1,.87.68l-10.29,13.21c3.82,4.62,13.65,15.47,17.66,15.47h0a.6.6,0,0,0,.53-.29c2-2.73-2.23-18.59-5.52-28.59a.55.55,0,0,1,.35-.69.56.56,0,0,1,.69.35c.85,2.6,8.28,25.51,5.37,29.57a1.74,1.74,0,0,1-1.41.75Z" fill="#231f20"/><path d="M193.28,130.19s-40.41,51.18-42.95,69.39,58.36,15.65,58.36,15.65l7.21-26.64s-32,2.29-28.31-3.47,26.09-27.49,26.09-27.49l3.4-30.43Z" fill="#231f20"/><path d="M201.27,215.88c-4.49,0-10.56-.12-16.91-.59-17.12-1.27-28-4.37-32.43-9.22a7.79,7.79,0,0,1-2.12-6.57c2.53-18.14,41.4-67.55,43.05-69.64a.55.55,0,0,1,.35-.2l23.8-3a.56.56,0,0,1,.44.15.52.52,0,0,1,.15.43l-3.4,30.44a.52.52,0,0,1-.16.32c-.22.22-22.42,21.76-26,27.4-.29.46-.22.72-.11.89,1.57,2.63,18,2.48,27.94,1.77a.47.47,0,0,1,.44.19.53.53,0,0,1,.11.47l-7.21,26.64a.53.53,0,0,1-.49.39C208.65,215.76,205.74,215.88,201.27,215.88Zm-7.71-85.2c-2.56,3.26-40.29,51.63-42.71,69a6.7,6.7,0,0,0,1.86,5.71c9.6,10.58,51.11,9.51,55.57,9.36l6.91-25.55c-4.84.32-25.91,1.47-28.18-2.33a1.81,1.81,0,0,1,.13-2c3.54-5.57,24-25.46,26-27.46l3.31-29.58Z" fill="#231f20"/><path d="M208,127.27c0,2.12-13.15,78.83-22,118.64l6.29,36.17s20.56-25.78,33.62-70,16.16-76.45,16.16-76.45Z" fill="#231f20"/><path d="M192.29,282.6h-.13a.51.51,0,0,1-.39-.42L185.48,246a.46.46,0,0,1,0-.2c8.57-38.76,22-116.22,21.94-118.52a.53.53,0,0,1,.65-.52l34.11,8.36a.51.51,0,0,1,.4.56c0,.32-3.25,32.79-16.17,76.55a250.63,250.63,0,0,1-21.76,51.69,155.85,155.85,0,0,1-12,18.48A.53.53,0,0,1,192.29,282.6Zm-5.75-36.67,6.06,34.87c3.76-5.06,21.3-29.92,32.8-68.87,12.07-40.86,15.66-71.83,16.1-75.9l-33.08-8.1C207.42,135.9,194.82,208.44,186.54,245.93Z" fill="#231f20"/><path d="M231.41,60.6c-13.68.74-29.1-.82-32,15.85-.83,4.75-10,59.94-10.8,59.81l54.89,8.55S258.44,79,256.94,74.32C255.11,70.19,243.62,59.94,231.41,60.6Z" fill="#3f60ff"/><path d="M218.43,54.59c-.72.15-4.48-5.24-5.08-6.21-2.12-3.45-3.13-8.17-3.77-12.12-.53-3.3-.14-7.56,3-8.71-.77-4.65,2.64-9.19,6.89-11.25s9.13-2.19,13.84-2.22l-3.81,5A53.15,53.15,0,0,1,245.75,21a3.44,3.44,0,0,1,2.15,1.26,2.41,2.41,0,0,1-.79,3A6.94,6.94,0,0,1,244,26.34a21.07,21.07,0,0,1,6.46,4.9,8.18,8.18,0,0,0-4.1,2.15c-1.51,1.8-1.17,4.43-1.36,6.77-.29,3.54-1.7,8.42-4.82,10-2.31,1.14-5.93,1.21-8.44,1.73Z" fill="#fff"/><path d="M218.46,55.13c-1.45,0-5.53-6.4-5.57-6.46-2.27-3.69-3.28-8.8-3.85-12.32S209,28.64,212,27.21c-.56-4.91,3.16-9.42,7.25-11.4s8.87-2.24,14.08-2.28h0a.54.54,0,0,1,.49.31.52.52,0,0,1,0,.57l-3.11,4.05a53.74,53.74,0,0,1,15.27,2A3.88,3.88,0,0,1,248.37,22a3,3,0,0,1-.92,3.67,5.51,5.51,0,0,1-1.9.93,22,22,0,0,1,5.32,4.33.56.56,0,0,1,.12.51.58.58,0,0,1-.37.38,7.66,7.66,0,0,0-3.84,2c-1.05,1.25-1.1,3-1.16,4.84,0,.55,0,1.09-.07,1.63-.31,3.78-1.84,8.78-5.13,10.41A19.7,19.7,0,0,1,234.49,52c-1,.13-1.85.24-2.64.41l-13.31,2.72h-.08Zm0-.54h0Zm.07-.53Zm13.69-39.42c-4.63.06-8.78.35-12.49,2.15s-7.34,6.13-6.59,10.67a.54.54,0,0,1-.35.6c-2.74,1-3.16,4.85-2.64,8.11.55,3.43,1.53,8.4,3.7,11.93.77,1.25,3.79,5.44,4.62,5.93l13.19-2.71c.83-.16,1.75-.28,2.72-.41a18.93,18.93,0,0,0,5.58-1.27c2.88-1.43,4.24-6,4.53-9.52,0-.52,0-1,.07-1.57.06-1.95.12-4,1.41-5.51A7.26,7.26,0,0,1,249.47,31a20.65,20.65,0,0,0-5.71-4.15.54.54,0,0,1-.3-.56.53.53,0,0,1,.43-.46,6.75,6.75,0,0,0,2.88-1,1.9,1.9,0,0,0,.66-2.26,3,3,0,0,0-1.83-1,52.35,52.35,0,0,0-16.09-1.91.57.57,0,0,1-.5-.3.53.53,0,0,1,.05-.58Z" fill="#231f20"/><path d="M222.69,59.45l-.61,10s.7,5.62,6.86,4.26a12.55,12.55,0,0,0,8.44-6.7s1.34-23.88,1.81-30.2c-3.84-.27-7.46.77-11.4,0a63.54,63.54,0,0,1-9.89-3C217.19,40.75,215,47,216,53.91,216.74,58.66,222.69,59.45,222.69,59.45Z" fill="#fff"/><path d="M227.12,74.43a5.49,5.49,0,0,1-3.22-1,6.21,6.21,0,0,1-2.36-4,.33.33,0,0,1,0-.1l.57-9.48c-1.52-.32-6-1.6-6.63-5.91-.72-4.77.06-9.11.88-13.7.38-2.11.77-4.3,1-6.52a.56.56,0,0,1,.25-.41.62.62,0,0,1,.48,0,63.64,63.64,0,0,0,9.8,3,24.5,24.5,0,0,0,6.45.08,33,33,0,0,1,4.89-.13.54.54,0,0,1,.37.19.53.53,0,0,1,.13.4c-.46,6.24-1.79,30-1.8,30.19a.61.61,0,0,1-.05.18,12.94,12.94,0,0,1-8.82,7A8.53,8.53,0,0,1,227.12,74.43Zm-4.49-5a5.15,5.15,0,0,0,1.91,3.2,5.24,5.24,0,0,0,4.28.55,12.1,12.1,0,0,0,8-6.31c.1-1.67,1.29-22.8,1.76-29.55a38.64,38.64,0,0,0-4.18.16,25.38,25.38,0,0,1-6.73-.1,61,61,0,0,1-9.32-2.76c-.24,2-.59,4-.93,5.9-.81,4.5-1.57,8.76-.88,13.35.65,4.28,6.15,5.07,6.2,5.08a.53.53,0,0,1,.47.57Z" fill="#231f20"/><path d="M222.48,64.35a9.61,9.61,0,0,0,6.78-2.16,7,7,0,0,0,2.51-5.29s-4.53,2.7-9.08,2.55Z" fill="#231f20"/><path d="M223.12,64.9c-.4,0-.65,0-.69,0a.54.54,0,0,1-.48-.55l.21-4.89a.53.53,0,0,1,.55-.51c4.35.14,8.75-2.44,8.79-2.47a.54.54,0,0,1,.51,0,.57.57,0,0,1,.29.43,7.49,7.49,0,0,1-2.68,5.72A9.75,9.75,0,0,1,223.12,64.9ZM223,63.84a8.79,8.79,0,0,0,5.87-2,7.06,7.06,0,0,0,2.29-4,19.58,19.58,0,0,1-8,2.16Z" fill="#231f20"/><path d="M227.48,45.74s-3.46,4.61-2.75,5.49,2.88.44,2.88.44" fill="#fff"/><path d="M226.47,52.3a2.75,2.75,0,0,1-2.15-.74c-.81-1,1.05-3.88,2.74-6.14a.53.53,0,0,1,.85.64c-1.59,2.11-2.87,4.39-2.74,4.88.33.38,1.57.36,2.34.21a.52.52,0,0,1,.62.41.54.54,0,0,1-.41.63A7.66,7.66,0,0,1,226.47,52.3Z" fill="#231f20"/><path d="M226.2,56a6,6,0,0,1-4.36-2.11.53.53,0,0,1,.77-.73,4.93,4.93,0,0,0,3.83,1.77c2.78-.16,5-3.08,5-3.11a.53.53,0,1,1,.85.63c-.1.14-2.54,3.35-5.81,3.54Z" fill="#231f20"/><path d="M218.19,45.53a2.27,2.27,0,0,1-2.26-2.24v-2A2.26,2.26,0,0,1,218.16,39l5.63,0h0a2.22,2.22,0,0,1,1.58.65,2.25,2.25,0,0,1,.68,1.59v2a2.23,2.23,0,0,1-.64,1.6,2.29,2.29,0,0,1-1.6.68l-5.63,0ZM223.81,40h0l-5.64,0A1.21,1.21,0,0,0,217,41.24l0,2a1.18,1.18,0,0,0,1.21,1.19l5.63,0h0a1.16,1.16,0,0,0,.84-.36,1.14,1.14,0,0,0,.34-.85v-2a1.24,1.24,0,0,0-.36-.85A1.2,1.2,0,0,0,223.81,40Z" fill="#231f20"/><path d="M229.46,45.44a2.26,2.26,0,0,1-2.26-2.24l0-2a2.26,2.26,0,0,1,2.24-2.28l5.64,0a2.21,2.21,0,0,1,2.27,2.23l0,2a2.25,2.25,0,0,1-2.24,2.27l-5.63,0Zm5.62-5.55h0l-5.64,0a1.21,1.21,0,0,0-1.19,1.21l0,2a1.2,1.2,0,0,0,.36.85,1.23,1.23,0,0,0,.85.34l5.63,0h0A1.24,1.24,0,0,0,236,44a1.18,1.18,0,0,0,.34-.85V41.08A1.21,1.21,0,0,0,235.08,39.89Z" fill="#231f20"/><path d="M225.54,41.7a.53.53,0,0,1,0-1.06h2.18a.52.52,0,0,1,.53.52.52.52,0,0,1-.52.53l-2.18,0Z" fill="#231f20"/><path d="M242.44,45.33a.6.6,0,0,1-.29-.08l-5.64-3.73a.53.53,0,1,1,.59-.88l5.63,3.72a.54.54,0,0,1,.15.74A.53.53,0,0,1,242.44,45.33Z" fill="#231f20"/><path d="M237.11,46.05c1.14-1.44,2.94-4,5.1-3.11a3.78,3.78,0,0,1,1.43,1.2c1.66,2.19,1.23,5-.06,7.2-1.12,1.93-4.45,4.77-6.48,2.15" fill="#fff"/><path d="M239.1,55.1a3,3,0,0,1-2.43-1.27.54.54,0,0,1,.09-.77.55.55,0,0,1,.77.1,1.91,1.91,0,0,0,1.71.84c1.39-.1,3.09-1.6,3.87-2.93,1.38-2.39,1.42-4.86.1-6.6a3,3,0,0,0-1.22-1c-1.47-.65-2.81.85-4.17,2.58l-.28.36a.55.55,0,0,1-.86-.68l.28-.36c1.16-1.47,3.09-3.94,5.47-2.91a4.3,4.3,0,0,1,1.65,1.37c1.59,2.11,1.58,5,0,7.81-.73,1.27-2.67,3.33-4.74,3.47Z" fill="#231f20"/><ellipse cx="222.23" cy="42.94" rx="0.62" ry="1.3" transform="translate(-0.35 1.85) rotate(-0.48)" fill="#231f20"/><ellipse cx="233.14" cy="42.74" rx="0.62" ry="1.3" transform="translate(-0.35 1.94) rotate(-0.48)" fill="#231f20"/><path d="M256.94,74.32s26.48,53.48,16.42,58.59-33.45-8.83-33.45-8.83L239.82,113l17.84,1.76-13.2-12.08Z" fill="#3f60ff"/><path d="M236,113.75l7.85,1.26a7.43,7.43,0,0,1,1.67,4.34,6.55,6.55,0,0,1-2.38,4.92l-6.19-2.08S238.14,116.28,236,113.75Z" fill="#fff"/><path d="M243.1,124.82a.57.57,0,0,1-.18,0l-6.19-2.08a.56.56,0,0,1-.36-.63c0-.06,1.15-5.68-.82-8a.54.54,0,0,1-.07-.62.57.57,0,0,1,.57-.27l7.84,1.26a.53.53,0,0,1,.32.17,7.85,7.85,0,0,1,1.81,4.7,7,7,0,0,1-2.55,5.33A.53.53,0,0,1,243.1,124.82Zm-5.57-3,5.43,1.83a5.86,5.86,0,0,0,2-4.29,6.75,6.75,0,0,0-1.42-3.85l-6.45-1C238.19,116.92,237.74,120.53,237.53,121.82Z" fill="#231f20"/><polygon points="211.76 98.11 213.22 97.46 229.32 97.13 235.58 127.2 234.49 127.93 211.76 98.11" fill="#231f20"/><path d="M234.49,128.46a.51.51,0,0,1-.42-.21L211.35,98.43a.51.51,0,0,1-.1-.45.55.55,0,0,1,.3-.35L213,97a.52.52,0,0,1,.21,0l16.1-.34a.5.5,0,0,1,.53.42l6.26,30.07a.54.54,0,0,1-.22.54l-1.1.74A.52.52,0,0,1,234.49,128.46Zm-21.9-30.14,22,28.9L235,127l-6.09-29.3L213.34,98Z" fill="#231f20"/><path d="M234.49,127.93c0-.05-5.68-30.13-5.68-30.13l-17.05.31,5.32,29.09Z" fill="#fff"/><path d="M234.49,128.48h0l-17.4-.74a.54.54,0,0,1-.52-.45l-5.31-29.08a.53.53,0,0,1,.11-.44.51.51,0,0,1,.41-.2l17.05-.32a.56.56,0,0,1,.55.45C235,127.83,235,127.86,235,127.93a.59.59,0,0,1-.16.4A.61.61,0,0,1,234.49,128.48Zm-17-1.81,16.29.69c-.77-4.08-4.83-25.6-5.47-29l-15.94.3Z" fill="#231f20"/><path d="M236,113.75a5.05,5.05,0,0,0-2-.61c-1.31-.13-8.17-1.19-8.89.28-.55,1.13,0,1.35,0,1.35s-2,0-1.5,1.81c0,0-.88,2,.75,2.57,0,0-1.06.57.18,1.52,2.28,1.73,10.31,5.8,12.71,3.8a5.24,5.24,0,0,0,1.56-2.75C239.58,118.73,238.55,115.17,236,113.75Z" fill="#fff"/><path d="M235.36,125.53c-3.64,0-9.4-3.1-11.16-4.43a1.64,1.64,0,0,1-.81-1.4,1.17,1.17,0,0,1,.1-.4,1.78,1.78,0,0,1-.49-.66,3,3,0,0,1,0-2.1,1.76,1.76,0,0,1,.26-1.51,1.94,1.94,0,0,1,1-.68,2.38,2.38,0,0,1,.3-1.17c.67-1.36,4-1.25,8.74-.66l.69.08a5.6,5.6,0,0,1,2.19.67h0c2.67,1.46,4,5.16,3.11,8.59a5.74,5.74,0,0,1-1.74,3A3.46,3.46,0,0,1,235.36,125.53Zm-10-11.22a.56.56,0,0,1,.24.56.55.55,0,0,1-.53.44,1.44,1.44,0,0,0-1,.37.83.83,0,0,0,0,.74.58.58,0,0,1,0,.37,2.09,2.09,0,0,0-.1,1.41.79.79,0,0,0,.53.43.57.57,0,0,1,.37.48.54.54,0,0,1-.29.52c-.06,0-.13.12-.13.15s.06.2.38.45c2.6,2,10.11,5.43,12,3.82a4.68,4.68,0,0,0,1.38-2.47c.77-3-.34-6.12-2.57-7.35h0a4.69,4.69,0,0,0-1.78-.55l-.71-.08c-6.47-.79-7.49-.22-7.63.06A1.25,1.25,0,0,0,225.4,114.31Zm-.1,0Zm0,0Z" fill="#231f20"/><line x1="225.1" y1="114.77" x2="232.52" y2="115.49" fill="#fff"/><path d="M232.52,116h-.06l-7.41-.73a.54.54,0,0,1-.49-.6.57.57,0,0,1,.59-.49l7.42.73a.55.55,0,0,1,0,1.09Z" fill="#231f20"/><path d="M223.6,116.58s5.68,1.58,7.76,1.34" fill="#fff"/><path d="M230.88,118.49a39,39,0,0,1-7.42-1.39.53.53,0,0,1-.38-.67.54.54,0,0,1,.67-.38c1.55.43,5.94,1.51,7.54,1.32a.54.54,0,0,1,.61.48.56.56,0,0,1-.48.61A4.39,4.39,0,0,1,230.88,118.49Z" fill="#231f20"/><path d="M223.78,118.84s3.87,2,6.72,2.06" fill="#fff"/><path d="M230.5,121.44h0c-2.94,0-6.8-2-7-2.12a.54.54,0,0,1-.23-.73.53.53,0,0,1,.73-.23s3.8,2,6.48,2a.55.55,0,0,1,.54.55A.55.55,0,0,1,230.5,121.44Z" fill="#231f20"/><path d="M250.57,111.86h-.1a.54.54,0,0,1-.44-.64L255.52,81a.55.55,0,0,1,.64-.44.53.53,0,0,1,.43.63l-5.49,30.24A.54.54,0,0,1,250.57,111.86Z" fill="#231f20"/><path d="M268,119a.57.57,0,0,1-.46-.24c-1.49-2.23-7.69-3.29-10-3.51l-13.83-1.37a.55.55,0,0,1-.49-.6.56.56,0,0,1,.6-.49l13.83,1.37c.35,0,8.68.88,10.76,4a.54.54,0,0,1-.45.85Z" fill="#231f20"/><path d="M177.94,237.87c.4,0,3.66-.59,7.2,3.07s10,26.14,10.55,31.76a12.23,12.23,0,0,1-3.4,9.38Z" fill="#fff"/><path d="M192.29,282.62h-.14a.54.54,0,0,1-.38-.37L177.42,238a.53.53,0,0,1,.09-.5.52.52,0,0,1,.46-.22.61.61,0,0,0,.14,0,9.36,9.36,0,0,1,7.42,3.24c3.74,3.86,10.18,26.68,10.71,32.08a12.67,12.67,0,0,1-3.58,9.83A.53.53,0,0,1,192.29,282.62ZM178.68,238.4,192.51,281a11.58,11.58,0,0,0,2.64-8.25c-.58-5.85-7.07-28-10.41-31.43A8.47,8.47,0,0,0,178.68,238.4Z" fill="#231f20"/><path d="M194,277.31s-5.38-26.9-10.11-34.45-9.09-6.11-9.45,1.64,6.53,35.61,11.17,38.73S195.05,282.05,194,277.31Z" fill="#fff"/><path d="M188.9,284.83a6.34,6.34,0,0,1-3.55-1.15c-5-3.39-11.75-32.07-11.42-39.21.19-3.95,1.43-6.52,3.41-7s4.63,1.27,7.06,5.14c4.72,7.54,9.95,33.48,10.18,34.63a6.48,6.48,0,0,1-2.6,6.68A5.4,5.4,0,0,1,188.9,284.83Zm-10.8-46.4a1.86,1.86,0,0,0-.48.06c-1.47.38-2.44,2.64-2.6,6-.35,7.66,6.53,35.29,10.94,38.26a4.67,4.67,0,0,0,5.41.2,5.37,5.37,0,0,0,2.14-5.55h0c-.06-.27-5.42-26.89-10-34.27C181.59,240.14,179.62,238.43,178.1,238.43Z" fill="#231f20"/><path d="M193.9,205.63h-.1a.54.54,0,0,1-.44-.63l10-54a.53.53,0,0,1,.63-.44.55.55,0,0,1,.44.64l-10,54A.55.55,0,0,1,193.9,205.63Z" fill="#fff"/><path d="M147.38,153.3a1.72,1.72,0,0,1,.78.93,13.13,13.13,0,0,1,1,2.85,10.94,10.94,0,0,1,.1-3.91,1.57,1.57,0,0,1,2.25.14,4.46,4.46,0,0,1,.94,2.34c-.37-1.07-.64-2.48.27-3.15a1.86,1.86,0,0,1,2.33.4,5.41,5.41,0,0,1,1.08,2.31c-.27-.84-.46-1.93.25-2.45a1.43,1.43,0,0,1,1.56,0A3.76,3.76,0,0,1,159,154a33.24,33.24,0,0,1,2.42,4.27c.85,1.83,1.5,4.14.27,5.75-2.22,2.9-8.14,2.66-11.12,1.59s-4.31-3.51-4.71-6.55C145.74,158.11,144.94,152.25,147.38,153.3Z" fill="#fff"/><path d="M155.34,166.91a15.56,15.56,0,0,1-4.94-.77c-2.93-1-4.59-3.34-5.07-7-.69-5.2.35-6,.69-6.25a1.47,1.47,0,0,1,1.57-.1,2,2,0,0,1,1,1c0-.25.08-.5.13-.75a.66.66,0,0,1,.11-.24,1.75,1.75,0,0,1,1.3-.61,2.36,2.36,0,0,1,1.65.6,1.87,1.87,0,0,1,.62-.75,2.38,2.38,0,0,1,3,.46l.2.24a1.6,1.6,0,0,1,.42-.44,2,2,0,0,1,2.17,0,4.39,4.39,0,0,1,1.27,1.38,34.28,34.28,0,0,1,2.45,4.34c1.27,2.71,1.34,4.83.21,6.31C160.67,166.27,157.94,166.91,155.34,166.91Zm-8.5-13.19a.23.23,0,0,0-.16.05c-.09.07-.86.79-.27,5.2.43,3.29,1.82,5.23,4.36,6.14s8.43,1.29,10.5-1.41c.86-1.13.75-2.88-.34-5.19a32.76,32.76,0,0,0-2.37-4.2,3.43,3.43,0,0,0-.94-1.05.93.93,0,0,0-1-.06c-.36.26-.3.91-.15,1.51,0,.12.07.24.11.35a.55.55,0,0,1-1,.32c0-.13-.08-.25-.11-.37a4.19,4.19,0,0,0-.85-1.73,1.31,1.31,0,0,0-1.61-.34,1.38,1.38,0,0,0-.37,1.32,10,10,0,0,1,.32,1.28.56.56,0,0,1-.4.64.54.54,0,0,1-.65-.35,6.28,6.28,0,0,1-.33-1.31,2.48,2.48,0,0,0-.49-.84,1.27,1.27,0,0,0-1-.38.68.68,0,0,0-.41.13,10.7,10.7,0,0,0-.06,3.57.54.54,0,0,1-.44.62.55.55,0,0,1-.63-.42,12.87,12.87,0,0,0-.94-2.74,1.35,1.35,0,0,0-.5-.66h0A.82.82,0,0,0,146.84,153.72Z" fill="#231f20"/><path d="M190.21,129.81h-.09a.55.55,0,0,1-.45-.63l9.67-54.95a.54.54,0,1,1,1.07.19l-9.66,55A.56.56,0,0,1,190.21,129.81Z" fill="#231f20"/><path d="M227.14,74.32l-3.62,2.08,1.58,3.9a25,25,0,0,0,19.62,18.17c16.52,3.37,28.16-12,28.16-12l.89-10-9.87-.11s-10.7,16.45-19.18,15.77-17.25-12-17.25-12l2.45-2.32Z" fill="#231f20"/><path d="M249.41,99.48a24.27,24.27,0,0,1-4.79-.49,25.74,25.74,0,0,1-20-18.58L223,76.6a.53.53,0,0,1,.22-.66l3.62-2.08a.53.53,0,0,1,.67.13l2.79,3.5a.54.54,0,0,1-.05.71l-2.11,2c1.6,1.94,9.29,10.84,16.59,11.42,8.07.65,18.58-15.38,18.69-15.54a.49.49,0,0,1,.44-.24l9.88.11a.53.53,0,0,1,.52.58l-.9,10a.52.52,0,0,1-.1.27C273.19,86.9,263.51,99.48,249.41,99.48ZM224.19,76.63l1.4,3.47A24.74,24.74,0,0,0,244.83,98c15.24,3.1,26.42-10.32,27.54-11.72L273.2,77l-9-.1c-1.39,2.09-10.85,15.79-19,15.79l-.55,0c-8.61-.69-17.27-11.73-17.63-12.19a.54.54,0,0,1,0-.71l2.11-2L227,75Z" fill="#231f20"/><circle cx="221.36" cy="103.25" r="1.46" fill="#d1d3d4"/></g></svg>