<svg xmlns="http://www.w3.org/2000/svg" viewBox="0 0 400 300"><g id="_166_career_flatline" data-name="#166_career_flatline"><polygon points="264.69 191.84 265.56 77.44 215.15 77.44 148.91 132.55 125.49 132.55 125.49 258.52 298.63 258.52 298.63 195.53 264.69 191.84" fill="#231f20"/><path d="M298.63,259H125.49a.5.5,0,0,1-.5-.5v-126a.5.5,0,0,1,.5-.5h23.24l66.1-55a.47.47,0,0,1,.32-.12h50.41a.51.51,0,0,1,.35.15.48.48,0,0,1,.15.36l-.87,114L298.68,195a.5.5,0,0,1,.45.49v63A.51.51,0,0,1,298.63,259ZM126,258H298.13V196l-33.5-3.64a.49.49,0,0,1-.44-.5l.87-113.9H215.33l-66.1,55a.54.54,0,0,1-.32.11H126Z" fill="#231f20"/><rect x="202.19" y="77.44" width="20.88" height="7.87" fill="#fff"/><path d="M223.07,85.81H202.19a.5.5,0,0,1-.5-.5V77.44a.5.5,0,0,1,.5-.5h20.88a.51.51,0,0,1,.5.5v7.87A.5.5,0,0,1,223.07,85.81Zm-20.38-1h19.88V77.94H202.69Z" fill="#d1d3d4"/><rect x="188.36" y="85.31" width="23.85" height="7.87" fill="#fff"/><path d="M212.21,93.69H188.36a.5.5,0,0,1-.5-.5V85.31a.5.5,0,0,1,.5-.5h23.85a.5.5,0,0,1,.5.5v7.88A.5.5,0,0,1,212.21,93.69Zm-23.35-1h22.85V85.81H188.86Z" fill="#d1d3d4"/><rect x="177.93" y="93.19" width="28.71" height="7.87" fill="#fff"/><path d="M206.64,101.56H177.93a.5.5,0,0,1-.5-.5V93.19a.5.5,0,0,1,.5-.5h28.71a.5.5,0,0,1,.5.5v7.87A.5.5,0,0,1,206.64,101.56Zm-28.21-1h27.71V93.69H178.43Z" fill="#d1d3d4"/><rect x="167.98" y="101.06" width="31.52" height="7.87" fill="#fff"/><path d="M199.5,109.43H168a.5.5,0,0,1-.5-.5v-7.87a.5.5,0,0,1,.5-.5H199.5a.5.5,0,0,1,.5.5v7.87A.5.5,0,0,1,199.5,109.43Zm-31-1H199v-6.87H168.48Z" fill="#d1d3d4"/><rect x="157.71" y="108.93" width="34.32" height="7.87" fill="#fff"/><path d="M192,117.31H157.71a.51.51,0,0,1-.5-.5v-7.88a.51.51,0,0,1,.5-.5H192a.51.51,0,0,1,.5.5v7.88A.51.51,0,0,1,192,117.31Zm-33.83-1h33.33v-6.88H158.21Z" fill="#d1d3d4"/><rect x="140.38" y="116.81" width="41.72" height="7.87" fill="#fff"/><path d="M182.09,125.18H140.38a.5.5,0,0,1-.5-.5v-7.87a.5.5,0,0,1,.5-.5h41.71a.5.5,0,0,1,.5.5v7.87A.5.5,0,0,1,182.09,125.18Zm-41.21-1h40.71v-6.87H140.88Z" fill="#d1d3d4"/><rect x="125.49" y="124.68" width="45.46" height="7.87" fill="#fff"/><path d="M171,133.05H125.49a.5.5,0,0,1-.5-.5v-7.87a.5.5,0,0,1,.5-.5H171a.5.5,0,0,1,.5.5v7.87A.5.5,0,0,1,171,133.05Zm-45-1h44.47v-6.87H126Z" fill="#d1d3d4"/><rect x="141.17" y="132.55" width="45.46" height="7.87" transform="translate(327.8 272.98) rotate(-180)" fill="#fff"/><path d="M186.63,140.92H141.17a.5.5,0,0,1-.5-.5v-7.87a.5.5,0,0,1,.5-.5h45.46a.5.5,0,0,1,.5.5v7.87A.5.5,0,0,1,186.63,140.92Zm-45-1h44.46v-6.87H141.67Z" fill="#d1d3d4"/><rect x="148.85" y="140.42" width="52.05" height="7.87" transform="translate(349.75 288.72) rotate(-180)" fill="#fff"/><path d="M200.9,148.8H148.85a.5.5,0,0,1-.5-.5v-7.88a.5.5,0,0,1,.5-.5H200.9a.5.5,0,0,1,.5.5v7.88A.5.5,0,0,1,200.9,148.8Zm-51.55-1H200.4v-6.88H149.35Z" fill="#d1d3d4"/><rect x="156.85" y="148.3" width="58.01" height="7.87" transform="translate(371.7 304.47) rotate(-180)" fill="#fff"/><path d="M214.85,156.67h-58a.5.5,0,0,1-.5-.5V148.3a.5.5,0,0,1,.5-.5h58a.5.5,0,0,1,.5.5v7.87A.5.5,0,0,1,214.85,156.67Zm-57.5-1h57V148.8h-57Z" fill="#d1d3d4"/><rect x="163.9" y="156.17" width="65.84" height="7.87" transform="translate(393.65 320.21) rotate(-180)" fill="#fff"/><path d="M229.75,164.54H163.9a.5.5,0,0,1-.5-.5v-7.87a.5.5,0,0,1,.5-.5h65.85a.5.5,0,0,1,.5.5V164A.5.5,0,0,1,229.75,164.54Zm-65.35-1h64.85v-6.87H164.4Z" fill="#d1d3d4"/><rect x="172.54" y="164.04" width="70.51" height="7.87" transform="translate(415.59 335.96) rotate(-180)" fill="#fff"/><path d="M243.05,172.42H172.54a.51.51,0,0,1-.5-.5V164a.51.51,0,0,1,.5-.5h70.51a.5.5,0,0,1,.5.5v7.88A.5.5,0,0,1,243.05,172.42Zm-70-1h69.51v-6.88H173Z" fill="#d1d3d4"/><rect x="182.2" y="171.92" width="79.93" height="7.87" transform="translate(444.32 351.7) rotate(-180)" fill="#fff"/><path d="M262.12,180.29H182.2a.5.5,0,0,1-.5-.5v-7.87a.5.5,0,0,1,.5-.5h79.92a.5.5,0,0,1,.5.5v7.87A.5.5,0,0,1,262.12,180.29Zm-79.42-1h78.92v-6.87H182.7Z" fill="#d1d3d4"/><rect x="198.17" y="179.79" width="84.67" height="7.87" transform="translate(481.01 367.45) rotate(-180)" fill="#fff"/><path d="M282.84,188.16H198.17a.5.5,0,0,1-.5-.5v-7.87a.5.5,0,0,1,.5-.5h84.67a.5.5,0,0,1,.5.5v7.87A.5.5,0,0,1,282.84,188.16Zm-84.17-1h83.67v-6.87H198.67Z" fill="#d1d3d4"/><rect x="217.99" y="187.66" width="80.64" height="7.87" transform="translate(516.61 383.19) rotate(-180)" fill="#fff"/><path d="M298.63,196H218a.5.5,0,0,1-.5-.5v-7.87a.5.5,0,0,1,.5-.5h80.64a.5.5,0,0,1,.5.5v7.87A.5.5,0,0,1,298.63,196Zm-80.14-1h79.64v-6.87H218.49Z" fill="#d1d3d4"/><rect x="207.45" y="195.53" width="80.64" height="7.87" transform="translate(495.55 398.94) rotate(-180)" fill="#fff"/><path d="M288.09,203.91H207.46a.5.5,0,0,1-.5-.5v-7.88a.5.5,0,0,1,.5-.5h80.63a.5.5,0,0,1,.5.5v7.88A.5.5,0,0,1,288.09,203.91Zm-80.13-1h79.63V196H208Z" fill="#d1d3d4"/><rect x="193.91" y="203.41" width="82.45" height="7.87" transform="translate(470.27 414.69) rotate(-180)" fill="#fff"/><path d="M276.36,211.78H193.91a.5.5,0,0,1-.5-.5v-7.87a.5.5,0,0,1,.5-.5h82.45a.5.5,0,0,1,.5.5v7.87A.5.5,0,0,1,276.36,211.78Zm-82-1h81.45v-6.87H194.41Z" fill="#d1d3d4"/><rect x="178.18" y="211.22" width="91.84" height="7.87" transform="translate(448.2 430.31) rotate(-180)" fill="#fff"/><path d="M270,219.59H178.18a.5.5,0,0,1-.5-.5v-7.87a.5.5,0,0,1,.5-.5H270a.5.5,0,0,1,.5.5v7.87A.5.5,0,0,1,270,219.59Zm-91.34-1h90.84v-6.87H178.68Z" fill="#d1d3d4"/><rect x="158.88" y="219.03" width="103.4" height="7.87" transform="translate(421.16 445.93) rotate(-180)" fill="#fff"/><path d="M262.28,227.4H158.88a.5.5,0,0,1-.5-.5V219a.5.5,0,0,1,.5-.5h103.4a.5.5,0,0,1,.5.5v7.87A.5.5,0,0,1,262.28,227.4Zm-102.9-1h102.4v-6.87H159.38Z" fill="#d1d3d4"/><rect x="140.07" y="227.07" width="99.73" height="7.87" transform="translate(379.87 462.01) rotate(-180)" fill="#fff"/><path d="M239.8,235.44H140.07a.5.5,0,0,1-.5-.5v-7.87a.5.5,0,0,1,.5-.5H239.8a.5.5,0,0,1,.5.5v7.87A.5.5,0,0,1,239.8,235.44Zm-99.23-1H239.3v-6.87H140.57Z" fill="#d1d3d4"/><rect x="121.24" y="235.02" width="110.98" height="7.87" transform="translate(353.46 477.91) rotate(-180)" fill="#fff"/><path d="M232.22,243.39h-111a.5.5,0,0,1-.5-.5V235a.5.5,0,0,1,.5-.5h111a.5.5,0,0,1,.5.5v7.87A.5.5,0,0,1,232.22,243.39Zm-110.48-1h110v-6.87h-110Z" fill="#d1d3d4"/><rect x="111.18" y="242.77" width="110.98" height="7.87" transform="translate(333.34 493.41) rotate(-180)" fill="#fff"/><path d="M222.16,251.14h-111a.5.5,0,0,1-.5-.5v-7.87a.5.5,0,0,1,.5-.5h111a.5.5,0,0,1,.5.5v7.87A.5.5,0,0,1,222.16,251.14Zm-110.48-1h110v-6.87h-110Z" fill="#d1d3d4"/><rect x="94.31" y="250.64" width="110.98" height="7.87" transform="translate(299.6 509.16) rotate(-180)" fill="#fff"/><path d="M205.29,259h-111a.5.5,0,0,1-.5-.5v-7.88a.5.5,0,0,1,.5-.5h111a.5.5,0,0,1,.5.5v7.88A.5.5,0,0,1,205.29,259ZM94.81,258h110v-6.88h-110Z" fill="#d1d3d4"/><path d="M226.62,62.63a.46.46,0,0,1-.44-.34c-.2-.79-1.85-7.71,1.14-8.8,1-.38,6.75,0,7.89,0a.44.44,0,0,1,.42.48.46.46,0,0,1-.48.43c-2.55-.16-6.85-.33-7.51-.09-1.88.69-1,5.93-.57,7.71a.47.47,0,0,1-.33.56Z" fill="#231f20"/><path d="M244.17,74.41a.51.51,0,0,1-.5-.5V65.57a.5.5,0,0,1,.5-.5.5.5,0,0,1,.5.5v8.34A.5.5,0,0,1,244.17,74.41Z" fill="#231f20"/><path d="M237,78.26a.5.5,0,0,1-.37-.17.48.48,0,0,1,0-.7c.16-.14,3.83-3.39,7.4-3.39h.09c2.68,0,6.65,3.23,6.82,3.37a.5.5,0,0,1,.07.7.5.5,0,0,1-.7.08S246.5,75,244.16,75c-3.24,0-6.77,3.1-6.81,3.13A.46.46,0,0,1,237,78.26Z" fill="#231f20"/><path d="M257.87,35.11c-.06.25-18-1.74-19.92,1.12-5.22,7.67-2.17,26.31-2.17,26.31h16.55s2.81-21.45,4.25-23.28A6.72,6.72,0,0,0,257.87,35.11Z" fill="#fff"/><path d="M252.33,63H235.78a.46.46,0,0,1-.45-.38c-.13-.77-3-18.91,2.24-26.65,1.46-2.14,9.49-1.94,18-1.41,1,.07,2,.13,2.2.12a.37.37,0,0,1,.18,0,.44.44,0,0,1,.41.42,7.15,7.15,0,0,1-1.38,4.46c-1,1.27-3,14.49-4.16,23.06A.45.45,0,0,1,252.33,63Zm-16.16-.92h15.76c.47-3.51,2.88-21.31,4.29-23.11a6.16,6.16,0,0,0,1.19-3.39c-.41,0-1,0-1.94-.1-3.9-.25-15.78-1-17.14,1C233.67,43.32,235.78,59.4,236.17,62.08Z" fill="#231f20"/><path d="M253.71,40.08c-1.9,8.35-1.38,22.46-1.38,22.46h4l4.48-24.11C261.33,35.83,255.6,31.73,253.71,40.08Z" fill="#fff"/><path d="M256.37,63h-4a.45.45,0,0,1-.45-.44c0-.14-.5-14.27,1.38-22.58,1.23-5.44,3.94-5.5,5-5.27,1.8.37,3.28,2.25,3,3.8-1,5.23-4.49,24.11-4.49,24.11A.45.45,0,0,1,256.37,63Zm-3.6-.92H256c.49-2.67,3.52-18.94,4.41-23.73.2-1.07-1-2.47-2.28-2.74-1.78-.37-3.22,1.3-4,4.57C252.48,47.55,252.71,59.64,252.77,62.08Z" fill="#231f20"/><path d="M231.06,62.54h25.31s-.46,4.4-1.56,4.58-19.81,0-21.36,0S231.06,62.54,231.06,62.54Z" fill="#fff"/><path d="M249.17,67.66c-3.5,0-8.22,0-13.09-.06l-2.63,0c-1.85,0-2.69-4.13-2.84-5a.47.47,0,0,1,.45-.54h25.31a.44.44,0,0,1,.33.16.44.44,0,0,1,.12.35c-.15,1.43-.64,4.77-1.94,5C254.5,67.64,252.33,67.66,249.17,67.66ZM231.62,63c.38,1.68,1.14,3.67,1.83,3.67l2.63,0c4.87,0,17.81.12,18.65,0,.36-.09.87-1.81,1.12-3.67Z" fill="#231f20"/><path d="M226,62.54h20.82s-.38,4.4-1.28,4.58-16.29,0-17.58,0S226,62.54,226,62.54Z" fill="#fff"/><path d="M240.86,67.66c-2.88,0-6.74,0-10.72-.06l-2.17,0c-1.51,0-2.19-3.48-2.41-5a.46.46,0,0,1,.11-.37.44.44,0,0,1,.34-.16h20.82a.49.49,0,0,1,.34.15.5.5,0,0,1,.12.35c-.19,2.16-.63,4.79-1.65,5C245.31,67.64,243.5,67.66,240.86,67.66ZM226.55,63c.35,2,1,3.67,1.42,3.67l2.17,0c4,0,14.6.12,15.32,0a9.88,9.88,0,0,0,.87-3.68Z" fill="#231f20"/><path d="M243.71,62.63a.46.46,0,0,1-.44-.34c-.2-.79-1.85-7.71,1.14-8.8,1-.38,6.75,0,7.89,0a.44.44,0,0,1,.42.48.46.46,0,0,1-.48.43c-2.55-.16-6.85-.33-7.51-.09-1.88.69-1,5.93-.57,7.71a.47.47,0,0,1-.33.56Z" fill="#231f20"/><path d="M212.11,175.32c-.24-.82-13.81-22.73-13.81-22.73l18-10.6,12.94,22.06Z" fill="#fff"/><path d="M212.11,175.83a.38.38,0,0,1-.17,0,.49.49,0,0,1-.3-.31c-.35-.85-8.42-14-13.77-22.63a.5.5,0,0,1-.06-.38.52.52,0,0,1,.23-.31l18-10.6a.5.5,0,0,1,.38-.06.57.57,0,0,1,.3.23L229.7,163.8a.51.51,0,0,1-.16.67l-17.15,11.27A.49.49,0,0,1,212.11,175.83ZM199,152.76c2.53,4.09,11.55,18.68,13.31,21.84l16.29-10.71-12.44-21.22Z" fill="#231f20"/><path d="M205.19,169.83a2.33,2.33,0,0,1-2-1.18L200.51,164a2.36,2.36,0,0,1,.77-3.15l1.52-1a.5.5,0,0,1,.54.84l-1.52,1a1.37,1.37,0,0,0-.44,1.82l2.64,4.61a1.34,1.34,0,0,0,1.81.52l1.8-1a.5.5,0,0,1,.47.89l-1.79,1A2.27,2.27,0,0,1,205.19,169.83Z" fill="#231f20"/><path d="M170.83,149.33c-1.05,0-2-1.22-2.31-3a4.9,4.9,0,0,1,.13-2.28,1.59,1.59,0,0,1,3-.5,4.89,4.89,0,0,1,.86,2.12h0c.31,1.86-.31,3.41-1.44,3.6Zm-.65-5.58h-.05c-.21,0-.4.27-.53.65a3.8,3.8,0,0,0-.09,1.8c.23,1.39,1,2.19,1.38,2.11s.84-1,.61-2.45a3.86,3.86,0,0,0-.66-1.66A1,1,0,0,0,170.18,143.75Z" fill="#231f20"/><path d="M169.24,146s3.28,2.64,3,3.48-1.91.87-1.91.87" fill="#fff"/><path d="M170.38,150.89a.5.5,0,0,1,0-1c.53,0,1.35-.2,1.43-.51a11.56,11.56,0,0,0-2.88-2.95.5.5,0,0,1,.63-.78c1.62,1.3,3.49,3,3.22,4-.33,1.17-2.17,1.23-2.38,1.24Z" fill="#231f20"/><path d="M167.35,141.77c1.77.7,2.14,3.26,2.64,4.84.69,2.23,1.34,4.48,1.93,6.73.37,1.44-3.27,2.63-4,2.42l2.35,5.38-8.61-.48-1.16-4.7s-2-4.62-1.45-8a11.55,11.55,0,0,1,2.75-5.66S165.61,141.09,167.35,141.77Z" fill="#fff"/><path d="M170.23,161.64h0l-8.61-.48a.49.49,0,0,1-.45-.38l-1.16-4.7c-.06-.12-2-4.72-1.46-8.15A11.9,11.9,0,0,1,161.4,142a.57.57,0,0,1,.21-.13c.41-.13,4.07-1.29,5.92-.57h0c1.71.67,2.26,2.69,2.69,4.31.09.3.16.59.25.85.69,2.24,1.34,4.51,1.93,6.76a1.53,1.53,0,0,1-.53,1.53,6.85,6.85,0,0,1-3.24,1.49l2.06,4.7a.5.5,0,0,1-.46.7ZM162,160.18l7.43.42-2-4.64a.49.49,0,0,1,.08-.53.5.5,0,0,1,.51-.15,5.56,5.56,0,0,0,3.17-1.26c.21-.21.3-.39.26-.55-.59-2.23-1.24-4.49-1.93-6.71-.08-.27-.17-.58-.25-.89-.38-1.4-.85-3.15-2.1-3.64h0c-1.24-.48-4,.2-5.13.55a11.18,11.18,0,0,0-2.53,5.3c-.48,3.15,1.39,7.64,1.41,7.68Z" fill="#231f20"/><path d="M171.33,151.7a1.9,1.9,0,0,1-2.87.13" fill="#fff"/><path d="M169.8,153a2.34,2.34,0,0,1-1.69-.78.5.5,0,0,1,0-.71.5.5,0,0,1,.7,0,1.42,1.42,0,0,0,1,.49,1.86,1.86,0,0,0,1.12-.58.5.5,0,0,1,.75.65,2.83,2.83,0,0,1-1.83.93Z" fill="#231f20"/><ellipse cx="167.64" cy="145.55" rx="0.33" ry="0.83" transform="translate(-40.85 69.27) rotate(-20.87)" fill="#231f20"/><path d="M160.51,162.53l-.13-2.67,10.2-1.51,2.52,4.14A43.29,43.29,0,0,1,160.51,162.53Z" fill="#fff"/><path d="M166.79,163.46a45.52,45.52,0,0,1-6.35-.44.51.51,0,0,1-.43-.47l-.13-2.66a.5.5,0,0,1,.43-.52l10.2-1.52a.5.5,0,0,1,.5.24l2.52,4.14a.53.53,0,0,1,0,.46.52.52,0,0,1-.37.29A37.91,37.91,0,0,1,166.79,163.46Zm-5.8-1.37a45.05,45.05,0,0,0,11.29,0l-1.95-3.22-9.43,1.4Z" fill="#231f20"/><path d="M196.9,172.33a31.83,31.83,0,0,0,2.19-3.69,11.72,11.72,0,0,1,.48-2.74c.41-.89,1.58-1.72,2.19-.55,0,0,.21-2,1.58-1a3.58,3.58,0,0,1,1.44,3.82c-.28,1.52-5.42,9.4-5.42,9.4" fill="#fff"/><path d="M199.36,178.11a.56.56,0,0,1-.27-.08.5.5,0,0,1-.14-.7c2-3,5.15-8.17,5.33-9.2a3.06,3.06,0,0,0-1.24-3.34c-.22-.17-.39-.21-.45-.19a1.27,1.27,0,0,0-.33.8.51.51,0,0,1-.4.44.5.5,0,0,1-.54-.26c-.17-.31-.32-.31-.37-.31-.3,0-.72.39-.93.84a5.85,5.85,0,0,0-.34,1.77,5.67,5.67,0,0,1-.1.86,26.44,26.44,0,0,1-2.26,3.87.51.51,0,0,1-.7.14.5.5,0,0,1-.14-.69,28.91,28.91,0,0,0,2.12-3.53,5.8,5.8,0,0,0,.09-.73,6.25,6.25,0,0,1,.43-2.11,2.31,2.31,0,0,1,1.8-1.42,1.47,1.47,0,0,1,.59.13,1.38,1.38,0,0,1,.68-.71,1.4,1.4,0,0,1,1.45.3,4.07,4.07,0,0,1,1.63,4.31c-.29,1.57-5,8.77-5.49,9.58A.48.48,0,0,1,199.36,178.11Z" fill="#231f20"/><path d="M122.24,194.27s-1,2-1.49,3.47a20.52,20.52,0,0,0-.67,4.29c-.38-.44-1-.55-1.37-.94a5.34,5.34,0,0,1-.44,1.81,1.88,1.88,0,0,1-1.41,1.1,2.55,2.55,0,0,1-1-.16c-1.14-.37-3-1.05-3.27-2.43a2.75,2.75,0,0,1,.3-1.55c.87-2,4.75-7.3,5.39-8.15" fill="#fff"/><path d="M116.72,204.5a3.22,3.22,0,0,1-1-.19c-1-.32-3.3-1.06-3.61-2.81a3.2,3.2,0,0,1,.33-1.83c1-2.25,5.4-8.2,5.45-8.26a.5.5,0,0,1,.7-.1.51.51,0,0,1,.1.7c-1.14,1.52-4.56,6.25-5.33,8.05a2.4,2.4,0,0,0-.27,1.27c.21,1.15,2.19,1.79,2.93,2a2.26,2.26,0,0,0,.78.14,1.41,1.41,0,0,0,1-.82,5.25,5.25,0,0,0,.39-1.65.49.49,0,0,1,.33-.41.5.5,0,0,1,.52.12,2,2,0,0,0,.51.33l.07,0a17.23,17.23,0,0,1,.63-3.54c.53-1.49,1.47-3.44,1.51-3.52a.49.49,0,0,1,.66-.23.5.5,0,0,1,.24.66s-1,2-1.47,3.42a21.09,21.09,0,0,0-.65,4.16.48.48,0,0,1-.34.44.49.49,0,0,1-.54-.15,1.73,1.73,0,0,0-.58-.39l0,0a4.15,4.15,0,0,1-.37,1.18,2.34,2.34,0,0,1-1.82,1.37Z" fill="#231f20"/><path d="M183.38,235s-.84,5.86,1.58,6.72,14.88-9,14-11.25-5.11-2.95-8.92,0A58.44,58.44,0,0,1,183.38,235Z" fill="#231f20"/><path d="M185.27,242.25a1.46,1.46,0,0,1-.48-.08c-2.73-1-2-6.62-1.9-7.26a.47.47,0,0,1,.25-.37,56.72,56.72,0,0,0,6.61-4.49,8.42,8.42,0,0,1,7.16-1.83,3.63,3.63,0,0,1,2.53,2.05c.21.52.2,1.52-2.25,4C194.35,237.24,187.88,242.25,185.27,242.25Zm-1.43-7c-.18,1.6-.29,5.38,1.29,5.94,1.3.46,7.66-3.81,11.34-7.61,2.26-2.33,2-3,2-3a2.65,2.65,0,0,0-1.87-1.44,7.39,7.39,0,0,0-6.28,1.66A59.21,59.21,0,0,1,183.84,235.29Z" fill="#231f20"/><path d="M158.3,208.44s14.85,4,25.94,1.95l-1,24.56s4.2,1.53,8.77-4.38c0,0,4.43-30.18,1.57-31.63s-29.1.26-29.1.26Z" fill="#fff"/><path d="M184.57,235.65a4.94,4.94,0,0,1-1.51-.21.52.52,0,0,1-.34-.51l1-23.92c-11,1.77-25.38-2-25.53-2.07a.56.56,0,0,1-.35-.32.49.49,0,0,1,.06-.47l6.17-9.23a.51.51,0,0,1,.4-.23c2.7-.18,26.46-1.68,29.36-.21s-.23,25-1.29,32.16a.43.43,0,0,1-.1.24C189.28,234.94,186.29,235.65,184.57,235.65Zm-.8-1.09c1,.19,4.22.29,7.75-4.2,2.09-14.3,3.38-30.17,1.82-31-2-1-18.07-.38-28.57.3l-5.63,8.42c3.06.74,15.52,3.5,25,1.77a.52.52,0,0,1,.43.11.56.56,0,0,1,.18.42Z" fill="#231f20"/><path d="M150.1,204.15s-3.91,24-4.68,24.42-22.07,18.88-22.07,18.88l6.29,5.53s23.8-14.39,25.13-18.64,11.95-30.19,11.95-30.19Z" fill="#fff"/><path d="M129.64,253.5a.5.5,0,0,1-.34-.13L123,247.84a.5.5,0,0,1-.18-.39.53.53,0,0,1,.18-.39c3.45-3,20.27-17.58,22.06-18.87.64-1.31,3.1-15.42,4.52-24.12a.51.51,0,0,1,.51-.43h16.62a.51.51,0,0,1,.43.23.54.54,0,0,1,0,.48c-.11.26-10.62,26-11.94,30.15s-22.9,17.44-25.35,18.92A.53.53,0,0,1,129.64,253.5Zm-5.51-6.05,5.57,4.89c6.8-4.12,23.55-14.87,24.58-18.15,1.22-3.88,9.92-25.24,11.67-29.52H150.54c-3.9,23.86-4.59,24.21-4.89,24.36C144.93,229.48,132.55,240.15,124.13,247.45Zm21.29-18.88h0Z" fill="#231f20"/><path d="M137.76,227.29s17.08,8.74,25,7.13c22.75-4.62,34.37-36.06,34.37-36.06s-15.29-2-23.41-4.07H147.49Z" fill="#fff"/><path d="M160.57,235.14c-8.5,0-22.4-7.06-23-7.39a.51.51,0,0,1-.26-.61l9.72-33a.53.53,0,0,1,.5-.37H173.7l.13,0c8,2,23.2,4,23.35,4.06a.5.5,0,0,1,.37.24.51.51,0,0,1,0,.45c-.12.31-12,31.76-34.76,36.39A11.53,11.53,0,0,1,160.57,235.14ZM138.38,227c2.56,1.26,17.26,8.31,24.26,6.9,20.48-4.16,32-30.78,33.75-35.14-3-.41-15.64-2.2-22.75-4H147.87Z" fill="#231f20"/><path d="M177.47,164.09c1.26-4-2.26-7.78-18.54-4.65-3.94.76-6.8,4.26-9.47,5.42-.38,2.3-8.06,29.95-9.58,37.77,0,0,27.91,3.56,36-7.78C175.83,194.85,176.33,166.57,177.47,164.09Z" fill="#ffd31d"/><path d="M155,159s-15.61,9-19.26,11.15-20.14,23.13-20.14,23.13l6.33,5.07s14-16.11,16.66-17.59S155,173.09,155,173.09Z" fill="#ffd31d"/><path d="M177.41,161.29l10.71,20.89,9-11.45,4.71,5.2s-7.92,15.56-11.74,15.49c-8.31-.17-19.31-17.21-19.31-17.21Z" fill="#ffd31d"/><path d="M129.64,253c-.45-5.67-3-7.35-4.91-6.73s-3.13.8-2.6,6.31,3.51,13.44,6.51,12.73S130.09,258.65,129.64,253Z" fill="#231f20"/><path d="M128.25,265.83a2.62,2.62,0,0,1-1.54-.55c-2.48-1.77-4.63-8-5.08-12.67-.51-5.42.7-6.1,2.73-6.77l.22-.07a3.07,3.07,0,0,1,2.67.41c1.6,1.07,2.63,3.47,2.89,6.76h0c.1,1.2.24,2.42.38,3.6.56,4.6,1,8.57-1.76,9.23A2.22,2.22,0,0,1,128.25,265.83Zm-2.77-19.2a2,2,0,0,0-.59.09l-.22.08c-1.62.53-2.51.82-2,5.72.42,4.37,2.43,10.36,4.66,12a1.48,1.48,0,0,0,1.23.33c1.93-.46,1.51-4,1-8.14-.14-1.19-.29-2.42-.39-3.64h0c-.32-4-1.67-5.49-2.45-6A2.17,2.17,0,0,0,125.48,246.63Z" fill="#231f20"/><path d="M164.71,136.25c-5.78-2.39-10.51,1.37-12.48,4.65-3,5-2.4,11.8-3.34,13.28-4.78,7.51-9,9.91-9,9.91s18.12,6.76,25.18,1.08a36.33,36.33,0,0,1-1.42-11.45c.06-1.66.56-3.13.73-4.7.06-.51-.8-6.24-1.21-6.39,1.2.43,2.67,0,3.85-.28a5.82,5.82,0,0,0,2.49-1.23S170.49,138.64,164.71,136.25Z" fill="#fff"/><path d="M156.6,168c-7.68,0-16.38-3.19-16.9-3.39a.47.47,0,0,1-.32-.42.49.49,0,0,1,.25-.48s4.19-2.46,8.84-9.75a10.74,10.74,0,0,0,.58-3.13c.32-2.9.77-6.87,2.75-10.14,2.39-4,7.51-7.17,13.1-4.85h0c6.17,2.55,5.11,5.4,5.06,5.52a.38.38,0,0,1-.13.18,6.17,6.17,0,0,1-2.72,1.35l-.59.13a9.27,9.27,0,0,1-2.58.32,39.83,39.83,0,0,1,.93,5.79c-.08.68-.21,1.34-.34,2a15.48,15.48,0,0,0-.39,2.67,35.57,35.57,0,0,0,1.4,11.3.51.51,0,0,1-.17.53C163.17,167.33,160,168,156.6,168ZM141,164c3.72,1.25,17.5,5.42,23.5,1a37,37,0,0,1-1.34-11.28,18,18,0,0,1,.41-2.84c.13-.65.25-1.26.32-1.9a35,35,0,0,0-1-6,.49.49,0,0,1-.14-.54.5.5,0,0,1,.64-.3h0a5.63,5.63,0,0,0,3-.17l.61-.13a5.25,5.25,0,0,0,2.14-1c.06-.43,0-2.25-4.53-4.13-5.8-2.4-10.19,1.67-11.86,4.45-1.87,3.08-2.3,6.92-2.62,9.73a10.1,10.1,0,0,1-.73,3.56A34.87,34.87,0,0,1,141,164Zm22-20.85Zm0,0Z" fill="#231f20"/><path d="M188.4,191.92h-.09c-8.5-1.58-17.59-16.79-18-17.44a.51.51,0,0,1,.17-.69.51.51,0,0,1,.69.18c.09.15,9.24,15.47,17.29,17a.5.5,0,0,1-.09,1Z" fill="#231f20"/><path d="M167.88,155.76l-4.1-.64a4.43,4.43,0,0,0,2.5,2c1.64.64,2.34.31,2.34.31Z" fill="#231f20"/><path d="M168.06,158.05a5.68,5.68,0,0,1-2-.43,5,5,0,0,1-2.78-2.29.52.52,0,0,1,.06-.51.53.53,0,0,1,.48-.19l4.09.64a.46.46,0,0,1,.38.29l.75,1.7a.5.5,0,0,1-.25.66A2,2,0,0,1,168.06,158.05ZM165,155.82a5.25,5.25,0,0,0,1.48.86,4.86,4.86,0,0,0,1.43.36l-.36-.83Z" fill="#231f20"/><path d="M160.16,150.6l-.14,0a.51.51,0,0,1-.35-.62,10.42,10.42,0,0,1,.75-2.06c.12-.15.29-.36,11.19-3.52a.5.5,0,0,1,.62.34.51.51,0,0,1-.35.62c-3.75,1.09-9.78,2.88-10.71,3.25-.11.26-.35,1-.53,1.64A.52.52,0,0,1,160.16,150.6Z" fill="#231f20"/><path d="M166.09,149a3.2,3.2,0,0,0-.84-1.51,4.64,4.64,0,0,0-1-1,1.53,1.53,0,0,0-1.29-.23,1.43,1.43,0,0,0-.82.83,2.63,2.63,0,0,0-.16,1.18,5,5,0,0,0,2.82,4.14l-.14-.12" fill="#fff"/><path d="M164.77,152.9a.28.28,0,0,1-.15,0,5.45,5.45,0,0,1-3.11-4.56,3.2,3.2,0,0,1,.19-1.4,1.88,1.88,0,0,1,1.13-1.11,2,2,0,0,1,1.73.28,4.89,4.89,0,0,1,1.07,1.06,3.61,3.61,0,0,1,1,1.76.5.5,0,0,1-1,.14,2.75,2.75,0,0,0-.73-1.27,4.28,4.28,0,0,0-.85-.85,1.1,1.1,0,0,0-.86-.18.94.94,0,0,0-.52.55,2.12,2.12,0,0,0-.12,1,4.54,4.54,0,0,0,2.25,3.57.33.33,0,0,1,.25.1.61.61,0,0,1,.17.71A.51.51,0,0,1,164.77,152.9Z" fill="#231f20"/><path d="M141.15,197.55H141a.5.5,0,0,1-.37-.6c1-4.09,6.26-27.16,6.33-28.2a.5.5,0,0,1,1,0c0,1-6,26.78-6.36,28.41A.49.49,0,0,1,141.15,197.55Z" fill="#231f20"/><polyline points="214.9 171.74 213.23 158.3 201.82 152.23" fill="#fff"/><path d="M214.9,172.24a.5.5,0,0,1-.49-.44l-1.64-13.18-11.18-6a.49.49,0,0,1-.21-.67.51.51,0,0,1,.68-.21l11.41,6.07a.5.5,0,0,1,.26.38l1.67,13.43a.5.5,0,0,1-.44.56Z" fill="#d1d3d4"/><path d="M107.26,155.12s-11.87,5.19-16.09,13.64l-11-11.64A26.38,26.38,0,0,1,96,144.88Z" fill="#fff"/><path d="M91.17,169.26a.48.48,0,0,1-.36-.16l-11-11.63a.52.52,0,0,1-.08-.57,27.15,27.15,0,0,1,16.09-12.5.48.48,0,0,1,.46.11l11.31,10.24a.56.56,0,0,1,.16.46.49.49,0,0,1-.3.37c-.11,0-11.75,5.22-15.84,13.4a.5.5,0,0,1-.38.27ZM80.8,157.05l10.25,10.86C95,160.84,103.8,156.22,106.37,155l-10.55-9.56A26.25,26.25,0,0,0,80.8,157.05Z" fill="#d1d3d4"/><path d="M98.77,156a.54.54,0,0,1-.35-.14L92,149.62a.5.5,0,0,1,.69-.72l6.48,6.26a.49.49,0,0,1,0,.7A.52.52,0,0,1,98.77,156Z" fill="#d1d3d4"/><path d="M93.28,157.62a.52.52,0,0,1-.38-.17l-4.23-5a.5.5,0,0,1,.77-.65l4.22,5a.51.51,0,0,1-.06.71A.48.48,0,0,1,93.28,157.62Z" fill="#d1d3d4"/><path d="M88.49,158.25a.5.5,0,0,1-.41-.22L86,154.89a.49.49,0,0,1,.13-.69.5.5,0,0,1,.7.13l2.11,3.14a.5.5,0,0,1-.14.69A.47.47,0,0,1,88.49,158.25Z" fill="#d1d3d4"/><path d="M313.64,129.73s-7.87,11.35-22.47,12.36L295,156.83s16.61,5,24.85-8Z" fill="#fff"/><path d="M302.25,158.24a29.13,29.13,0,0,1-7.43-.93.48.48,0,0,1-.34-.35l-3.79-14.75a.47.47,0,0,1,.08-.41.49.49,0,0,1,.37-.21c14.17-1,22-12,22.09-12.15a.5.5,0,0,1,.89.13l6.17,19.12a.52.52,0,0,1-.06.42C315.46,156.62,307.89,158.24,302.25,158.24Zm-6.88-1.82c2.14.55,16.48,3.71,23.89-7.65l-5.8-18c-2.09,2.57-9.58,10.68-21.66,11.76Z" fill="#d1d3d4"/><path d="M299.42,155.54a.51.51,0,0,1-.48-.36l-2.87-9.87a.5.5,0,0,1,.34-.62.51.51,0,0,1,.62.34l2.87,9.87a.49.49,0,0,1-.34.62A.32.32,0,0,1,299.42,155.54Z" fill="#d1d3d4"/><path d="M304.93,154.29a.51.51,0,0,1-.47-.31c-4.31-10.55-4.28-10.57-3.91-10.89a.51.51,0,0,1,.71.06.56.56,0,0,1,.12.3c.18.7,2.54,6.55,4,10.15a.5.5,0,0,1-.27.65A.65.65,0,0,1,304.93,154.29Z" fill="#d1d3d4"/><path d="M311.39,152.93a.48.48,0,0,1-.46-.32l-5-12.75a.5.5,0,0,1,.28-.65.51.51,0,0,1,.65.28l5,12.76a.51.51,0,0,1-.28.65A.63.63,0,0,1,311.39,152.93Z" fill="#d1d3d4"/><path d="M315.16,149.37a.51.51,0,0,1-.47-.32l-4.53-11.54a.5.5,0,0,1,.29-.64.49.49,0,0,1,.64.28l4.53,11.53a.5.5,0,0,1-.28.65A.39.39,0,0,1,315.16,149.37Z" fill="#d1d3d4"/><path d="M184.21,53.13s-14.15,1.29-18.74,15.22L146.66,57.8a28.48,28.48,0,0,1,20.88-18.6Z" fill="#fff"/><path d="M165.47,68.85a.54.54,0,0,1-.25-.06l-18.8-10.55a.51.51,0,0,1-.24-.58c0-.15,4.54-15.25,21.25-18.95a.51.51,0,0,1,.43.1l16.67,13.94a.5.5,0,0,1-.27.88c-.14,0-13.88,1.43-18.32,14.88a.52.52,0,0,1-.29.31A.57.57,0,0,1,165.47,68.85ZM147.26,57.56l17.93,10.06c4-11.29,14.42-14.16,17.86-14.81L167.4,39.74A28.24,28.24,0,0,0,147.26,57.56Z" fill="#d1d3d4"/><path d="M174.86,50.83a.52.52,0,0,1-.33-.12l-9.42-8a.51.51,0,0,1-.05-.71.49.49,0,0,1,.7,0l9.42,8a.51.51,0,0,1,.06.71A.52.52,0,0,1,174.86,50.83Z" fill="#d1d3d4"/><path d="M170.77,54.28a.51.51,0,0,1-.33-.13l-9.29-8.37a.5.5,0,1,1,.67-.74l9.29,8.36a.5.5,0,0,1-.34.88Z" fill="#d1d3d4"/><path d="M166.13,57.17a.52.52,0,0,1-.33-.12L157.5,50a.49.49,0,0,1-.06-.7.51.51,0,0,1,.71-.06l8.3,7.08a.5.5,0,0,1-.32.88Z" fill="#d1d3d4"/><path d="M163,61.67a.45.45,0,0,1-.27-.08l-9.85-6.33a.5.5,0,0,1,.54-.84l9.85,6.33a.5.5,0,0,1,.15.69A.49.49,0,0,1,163,61.67Z" fill="#d1d3d4"/><path d="M295.78,91.17c-8.26,0-9.38-3.87-9.43-4a.53.53,0,0,1,0-.35l3.46-7a.49.49,0,0,1,.4-.28.53.53,0,0,1,.45.21c2.87,4,9.65,1.61,9.72,1.59a.5.5,0,0,1,.5.1.48.48,0,0,1,.15.49l-2.21,8.81a.51.51,0,0,1-.45.38C297.46,91.14,296.58,91.17,295.78,91.17ZM287.38,87c.34.72,2.28,3.69,10.58,3.07l1.92-7.61c-1.95.52-6.7,1.37-9.49-1.58Zm-.55,0h0Z" fill="#d1d3d4"/><path d="M115.88,101.08a.52.52,0,0,1-.21,0l-11.89-5.21a.51.51,0,0,1-.29-.59L106,85.58a.49.49,0,0,1,.36-.35.48.48,0,0,1,.48.13c1.19,1.22,8.84,4.15,11.69,5.17a.51.51,0,0,1,.32.6l-2.51,9.58a.48.48,0,0,1-.27.32A.41.41,0,0,1,115.88,101.08Zm-11.31-6,11,4.81,2.24-8.57c-1.92-.71-8.58-3.19-11-4.76Z" fill="#d1d3d4"/></g></svg>