<svg xmlns="http://www.w3.org/2000/svg" viewBox="0 0 400 300"><g id="_187_marketing_flatline" data-name="#187_marketing_flatline"><path d="M156.37,206.92l-12.48,20,28.21,19.47,29.48-27.63s-15.58-40.55-20-43.47S156.37,206.92,156.37,206.92Z" fill="#fff"/><path d="M172.1,246.93a.47.47,0,0,1-.28-.09l-28.21-19.47a.5.5,0,0,1-.14-.68l12.47-20c.78-1.28,18.56-30.6,24.58-31.94a1.72,1.72,0,0,1,1.37.2c4.47,3,19.52,42.05,20.16,43.71a.5.5,0,0,1-.13.54L172.44,246.8A.47.47,0,0,1,172.1,246.93Zm-27.53-20.11,27.48,19L201,218.66c-4.41-11.46-16.19-40.61-19.65-42.92a.74.74,0,0,0-.6-.06c-4.66,1-18.86,23.09-24,31.49h0Zm11.8-19.9h0Z" fill="#231f20"/><path d="M141.46,151.09s-1.69,13.24,3.94,19.15,24.78,7.6,25.91,9.57,22,54.62,25.05,57.72,15.77-1.69,25.34-10.7c0,0-21.82-48.71-22.59-52.93s6.26-22.24,6.26-30.41Z" fill="#fff"/><path d="M199.41,239a4.67,4.67,0,0,1-3.4-1.1c-2.08-2.08-11-23.63-20-45.52-2.69-6.57-4.81-11.75-5.13-12.3s-3.87-1.39-7-2.13c-6.43-1.5-15.23-3.57-18.83-7.35-5.73-6-4.15-19-4.08-19.55a.49.49,0,0,1,.44-.43L205.31,143a.49.49,0,0,1,.4.13.51.51,0,0,1,.16.37c0,4.3-1.92,11.3-3.62,17.48-1.54,5.62-3,10.92-2.65,12.84.76,4.11,22.34,52.33,22.56,52.82a.51.51,0,0,1-.11.57C214.66,234.15,204.92,239,199.41,239Zm-57.5-87.44c-.21,2.2-1,13.24,3.85,18.35,3.4,3.57,12,5.59,18.34,7.07,4.8,1.13,7.13,1.71,7.64,2.6.33.58,2,4.66,5.19,12.42,6.18,15.05,17.67,43.08,19.79,45.2,2.78,2.78,15-1.8,24.38-10.47-2.06-4.62-21.73-48.62-22.48-52.72-.4-2.15,1-7.31,2.67-13.28s3.42-12.45,3.57-16.66Z" fill="#231f20"/><path d="M214.15,230.71a.51.51,0,0,1-.47-.32l-23-58.18a.5.5,0,0,1,.28-.65.49.49,0,0,1,.65.28l23,58.19a.48.48,0,0,1-.28.64A.39.39,0,0,1,214.15,230.71Z" fill="#d1d3d4"/><path d="M197.46,152A16.51,16.51,0,0,0,194,161c-.21,5.06,6.05,15.88,6.05,15.88l14.58-9.13-7.1-17.08Z" fill="#231f20"/><path d="M200.09,177.33H200a.53.53,0,0,1-.31-.24c-.26-.44-6.33-11-6.12-16.15a16.81,16.81,0,0,1,3.54-9.22.53.53,0,0,1,.31-.17l10.11-1.41a.5.5,0,0,1,.53.3l7.1,17.08a.51.51,0,0,1-.2.62l-14.57,9.13A.52.52,0,0,1,200.09,177.33Zm-2.36-24.83a16.07,16.07,0,0,0-3.19,8.47c-.18,4.29,4.56,13.07,5.73,15.16L214,167.5l-6.78-16.33Z" fill="#231f20"/><path d="M215.88,213.74s10.05-8.68,4.42-13.19c0,0,3.62-8.33-5.63-9.57,0,0,3-9.2-4.32-11.45s-21.59,9.76-23.09,14.08,4.87,5,9.54,3c0,0-6.86,4-5.68,6.86,1.72,4.23,7.5,2.16,12,.85,0,0-8.22,4.52-2.81,8.73,4.15,3.23,13.84-3.23,13.84-3.23Z" fill="#fff"/><path d="M203.35,214.44a5.35,5.35,0,0,1-3.35-1,4.37,4.37,0,0,1-2-3.79,6.55,6.55,0,0,1,2.46-4c-4,1.1-8.25,1.79-9.79-2-.79-1.93,1.29-4.12,3.2-5.64-2.62.46-5.12.1-6.38-1.07a3,3,0,0,1-.68-3.5c1.57-4.52,16.19-16.7,23.71-14.39a7,7,0,0,1,4.33,3.47c1.54,3,.83,6.66.47,8,2.63.46,4.45,1.56,5.42,3.28,1.41,2.51.54,5.53.17,6.55a4.68,4.68,0,0,1,1.62,3.48c.09,4.66-6,10-6.3,10.23a.5.5,0,0,1-.44.11.52.52,0,0,1-.35-.28l-1.49-3.39C212.34,211.54,207.35,214.44,203.35,214.44Zm-.23-10.63a.48.48,0,0,1,.46.31.5.5,0,0,1-.22.63s-4.18,2.33-4.39,5a3.43,3.43,0,0,0,1.64,2.92c3.83,3,13.17-3.18,13.26-3.24a.48.48,0,0,1,.42-.07.52.52,0,0,1,.32.28l1.45,3.29c1.45-1.37,5.52-5.54,5.45-9a3.7,3.7,0,0,0-1.53-2.95.51.51,0,0,1-.14-.59s1.46-3.45,0-6c-.87-1.54-2.64-2.5-5.24-2.85a.52.52,0,0,1-.36-.23.48.48,0,0,1-.05-.42c0-.05,1.45-4.58-.25-7.85a5.94,5.94,0,0,0-3.74-3c-6.91-2.12-21,9.56-22.47,13.76a2.13,2.13,0,0,0,.41,2.44c1.46,1.34,5.33,1.31,8.46-.07a.5.5,0,0,1,.45.89c-1.68,1-6.3,4.23-5.47,6.24,1.44,3.52,6.23,2.09,10.46.84l.94-.28A.36.36,0,0,1,203.12,203.81Z" fill="#231f20"/><path d="M207.86,164.27s.25-8.39-6.86-5.26-17.91,10.6-12.3,15.52S206.17,170.67,207.86,164.27Z" fill="#fff"/><path d="M192.77,176.47a6.45,6.45,0,0,1-4.4-1.56,4.43,4.43,0,0,1-1.67-4.17c.78-5.07,9.56-10.19,14.1-12.18,2.17-1,3.94-1,5.26-.1,2.4,1.61,2.3,5.66,2.3,5.83a.43.43,0,0,1,0,.11c-1.18,4.5-7,9.9-12.4,11.56A11.05,11.05,0,0,1,192.77,176.47Zm11.07-17.65a6.67,6.67,0,0,0-2.64.65c-5.07,2.23-12.85,7.12-13.52,11.42a3.45,3.45,0,0,0,1.35,3.27c2,1.75,4.7,1.42,6.61.84,5-1.54,10.59-6.67,11.72-10.8,0-.46-.05-3.7-1.86-4.91A2.86,2.86,0,0,0,203.84,158.82Zm4,5.45h0Z" fill="#231f20"/><path d="M154.25,210.32s8-22.24,9.77-26c3-6.36,10.15-14.84,16.28-13.07s19,7.74,13.79,11.79c-4.75,3.71-15.82-1.85-15.82-1.85s2.76,11.76-2.82,18.35" fill="#fff"/><path d="M154.25,210.82a.47.47,0,0,1-.17,0,.49.49,0,0,1-.3-.64c.32-.91,8-22.3,9.79-26.05,3.15-6.65,10.46-15.2,16.87-13.35,4.46,1.29,14.51,5.51,15.31,9.65a3,3,0,0,1-1.35,3c-4.18,3.25-12.64-.11-15.45-1.38.54,3,1.67,12.15-3.12,17.8a.5.5,0,1,1-.76-.64c5.35-6.33,2.74-17.8,2.71-17.92a.52.52,0,0,1,.18-.51.49.49,0,0,1,.53-.05c.11.05,10.84,5.38,15.29,1.91a2,2,0,0,0,1-2c-.61-3.18-9-7.26-14.6-8.87-5.78-1.68-12.78,6.65-15.69,12.81-1.75,3.7-9.67,25.74-9.75,26A.51.51,0,0,1,154.25,210.82Z" fill="#231f20"/><path d="M277.17,183s-40.82-31-64.9-31.58a133,133,0,0,0-18.23,1c-14.25,1.62-28.57,4.6-38.5,5-19.71.75-34.46-5.57-34.49-26.14,0-17.6,8.3-20.83,25.85-25.67,8.68-2.39,25.41-4.85,41.25-9.25,9.66-2.69,19-6.09,25.95-10.64,18.4-12,32.13-39.4,32.13-39.4Z" fill="#fff"/><path d="M277.17,183.45a.47.47,0,0,1-.3-.1c-.41-.31-41-30.92-64.61-31.48a131.54,131.54,0,0,0-18.16,1c-5.86.66-11.68,1.55-17.31,2.41-7.9,1.21-15.36,2.35-21.23,2.57-12.82.48-22.26-2.08-28-7.64-4.61-4.44-7-10.83-7-19,0-18.07,9-21.39,26.22-26.15,3.67-1,8.75-2,14.63-3.21,8.19-1.64,17.47-3.5,26.62-6,11.29-3.15,19.73-6.61,25.81-10.58,18.07-11.8,31.82-38.93,31.95-39.2a.5.5,0,0,1,.51-.27.49.49,0,0,1,.43.38l30.94,136.67a.5.5,0,0,1-.22.53A.53.53,0,0,1,277.17,183.45Zm-67.06-32.6c.74,0,1.46,0,2.17,0,10.07.24,24.11,5.65,41.72,16.07,10.63,6.3,19.4,12.61,22.38,14.8L246,47.72c-2.92,5.45-15.58,27.87-31.67,38.38-6.16,4-14.69,7.53-26.09,10.7-9.18,2.55-18.47,4.42-26.68,6.06-5.86,1.18-10.92,2.19-14.57,3.19-17.23,4.76-25.51,7.81-25.48,25.19,0,7.89,2.25,14,6.66,18.28,5.58,5.36,14.77,7.84,27.31,7.36,5.81-.22,13.25-1.36,21.12-2.56,5.64-.86,11.47-1.75,17.34-2.42A140.79,140.79,0,0,1,210.11,150.85Z" fill="#231f20"/><path d="M197.46,152c-14.25,1.62-32,4.45-41.92,5.35-22.62,2.06-33.16-2.75-34.49-23.28-1.36-21.11,8.3-23.69,25.85-28.53,8.68-2.39,25.41-4.85,41.25-9.25,0,0-6,11.05-3.33,30.56A43.37,43.37,0,0,0,197.46,152Z" fill="#231f20"/><path d="M147,158.31c-8.88,0-14.9-1.67-19-5.19-4.48-3.83-6.84-9.86-7.43-19-1.38-21.44,8.35-24.12,26-29l.2,0c3.67-1,8.75-2,14.63-3.21,8.19-1.64,17.47-3.5,26.62-6a.49.49,0,0,1,.52.17.48.48,0,0,1,.05.55c-.06.11-5.85,11.15-3.27,30.25a43.32,43.32,0,0,0,12.47,24.85.49.49,0,0,1,.15.52.51.51,0,0,1-.42.35c-6.57.75-13.83,1.74-20.85,2.7-8.09,1.11-15.74,2.16-21.08,2.65C152.45,158.17,149.59,158.31,147,158.31Zm40.26-61.22c-8.84,2.4-17.74,4.19-25.64,5.77-5.86,1.18-10.92,2.19-14.57,3.19l-.2.06c-17.16,4.73-26.61,7.34-25.28,28,.57,8.84,2.82,14.65,7.07,18.29,5.1,4.36,13.38,5.75,26.87,4.52,5.32-.48,13-1.53,21-2.64,6.65-.91,13.52-1.85,19.81-2.58a44.86,44.86,0,0,1-12-24.71C182.15,110.79,185.88,100.26,187.24,97.09Z" fill="#231f20"/><path d="M291.5,186.68c-15.13,2.76-32.11-17.7-42.3-48.42A181.71,181.71,0,0,1,240.35,90c-1.4-32.55,7.28-57.89,22.49-60.66,18.81-3.43,40.48,29,48.4,72.45S310.32,183.25,291.5,186.68Z" fill="#ffd31d"/><path d="M265.6,29.1c18.13,0,38.1,31.37,45.64,72.7,7.92,43.45-.92,81.45-19.74,84.88a15.07,15.07,0,0,1-2.76.25c-14.4,0-30-19.81-39.54-48.67A181.71,181.71,0,0,1,240.35,90c-1.4-32.55,7.28-57.89,22.49-60.66a15.07,15.07,0,0,1,2.76-.25m0-1v0h0a16,16,0,0,0-2.94.27c-15.41,2.8-24.78,27.59-23.31,61.68a183.28,183.28,0,0,0,8.9,48.53c9.95,30,25.84,49.35,40.49,49.35a16,16,0,0,0,2.94-.27c9.52-1.73,16.87-11.74,20.69-28.19,3.76-16.16,3.71-36.7-.15-57.85-3.65-20-10.39-38.58-19-52.2S274.76,28.1,265.61,28.1Z" fill="#231f20"/><path d="M279.88,127.2,249.2,138.26A181.71,181.71,0,0,1,240.35,90h34.57Z" fill="#fff"/><ellipse cx="277.33" cy="108.62" rx="8.73" ry="18.75" transform="translate(-12.22 38.82) rotate(-7.83)" fill="#d1d3d4"/><path d="M203.12,204.81a.5.5,0,0,1-.23-.95,36.55,36.55,0,0,1,9.87-3.43.51.51,0,0,1,.57.42.5.5,0,0,1-.42.57,36.32,36.32,0,0,0-9.56,3.33A.46.46,0,0,1,203.12,204.81Z" fill="#231f20"/><path d="M196.8,197.1a.51.51,0,0,1-.34-.14.49.49,0,0,1,0-.7,18.41,18.41,0,0,1,11.25-5.12.5.5,0,0,1,.54.45.49.49,0,0,1-.45.54,17.89,17.89,0,0,0-10.61,4.81A.52.52,0,0,1,196.8,197.1Z" fill="#231f20"/><path d="M214.15,210.31a.5.5,0,0,1-.2-1l3.33-1.42a.5.5,0,0,1,.4.92l-3.33,1.42A.48.48,0,0,1,214.15,210.31Z" fill="#231f20"/><path d="M173.88,248.37s6.55-5.14,6.71-5.68-31-30-31-30L132,223.76Z" fill="#231f20"/><path d="M173.88,248.87a.47.47,0,0,1-.25-.07L131.7,224.19a.5.5,0,0,1-.25-.42.5.5,0,0,1,.24-.43l17.66-11.12a.51.51,0,0,1,.61.06c31.37,29.72,31.23,30.17,31.11,30.56,0,.17-.21.68-6.88,5.93A.5.5,0,0,1,173.88,248.87Zm-41-25.12,40.93,24c2.63-2.07,5.39-4.34,6.13-5.1-2-2.3-18.89-18.47-30.41-29.39Z" fill="#231f20"/><polygon points="175.76 248.91 136.69 216.14 61.9 263.49 151.72 275.96 175.76 248.91" fill="#ffd31d"/><path d="M135.27,154.13a.52.52,0,0,1-.47-.32c-6.07-15.61-6.67-30.35-1.71-41.51.1-.22.16-.37.19-.44a.45.45,0,0,1,.49-.45.53.53,0,0,1,.49.55,1.94,1.94,0,0,1-.26.75c-4.85,10.91-4.24,25.38,1.73,40.73a.51.51,0,0,1-.28.65A.39.39,0,0,1,135.27,154.13Z" fill="#fff"/><path d="M154.41,108.52a.51.51,0,0,1-.49-.41.49.49,0,0,1,.39-.58l22-4.32a.48.48,0,0,1,.58.39.5.5,0,0,1-.39.59l-22,4.32Z" fill="#fff"/><path d="M154.41,112.84a.51.51,0,0,1-.49-.41.49.49,0,0,1,.39-.58l22-4.32a.48.48,0,0,1,.58.39.5.5,0,0,1-.39.59l-22,4.32Z" fill="#fff"/><path d="M154.41,117.81a.5.5,0,0,1-.49-.4.51.51,0,0,1,.39-.59l22-4.32a.5.5,0,0,1,.58.4.48.48,0,0,1-.39.58l-22,4.32Z" fill="#fff"/><path d="M111.53,207.88a.51.51,0,0,1-.5-.46c-1-11-10-19-18.13-22.87-10.42-4.91-30.46-10.81-42.41-8.56a.48.48,0,0,1-.55-.29.5.5,0,0,1,.17-.6c1-.7,1.92-1.39,2.91-2.1,12.1-8.68,25.81-18.53,27.61-34.33,2.86-25.2-17.86-48.09-18.07-48.32a.51.51,0,0,1,0-.63.5.5,0,0,1,.6-.17c.26.11,26.54,11.08,52.74-3.43,25.81-14.29,24.92-42.56,24.91-42.84a.51.51,0,0,1,.28-.48.53.53,0,0,1,.55.08c.26.23,26.43,23,45.49,21.52A42.74,42.74,0,0,0,221.26,43a.5.5,0,0,1,.66-.24.5.5,0,0,1,.23.67,43.67,43.67,0,0,1-35,21.93c-17.78,1.41-40.7-17.09-45.4-21.06-.12,5.46-2,29.69-25.43,42.65C93.71,99.53,71,93.35,64.56,91.14c4.52,5.51,19.56,25.68,17.06,47.64-1.85,16.25-15.75,26.23-28,35l-1.25.9c12.3-1.35,31,4.23,41,8.93,8.36,3.94,17.66,12.24,18.7,23.69a.5.5,0,0,1-.45.54Z" fill="#d1d3d4"/><path d="M262.34,268.85a.51.51,0,0,1-.36-.15c-.19-.2-19.28-19.75-47.25-16a.49.49,0,0,1-.56-.43.5.5,0,0,1,.43-.56c24.57-3.32,42.42,11.06,47,15.2-1-6.43-2.37-31.55,29-53.4,17.85-12.42,46.64-8.14,59.6-2.8-12-14.15-23-30.68-17.34-47.38,5.14-15.19,28.28-32,33.11-35.41-33.9-10.73-48.13-29.37-44.77-58.59a.5.5,0,0,1,1,.11c-3.32,29,11,47.32,45.05,57.83a.5.5,0,0,1,.13.9c-.28.19-28.05,19.18-33.56,35.48-5.72,16.9,6.2,33.8,18.61,48.1a.5.5,0,0,1-.6.78c-11.52-5.63-42.12-11.09-60.65,1.8-35.54,24.75-28.41,53.59-28.33,53.88a.5.5,0,0,1-.24.56A.54.54,0,0,1,262.34,268.85Z" fill="#d1d3d4"/></g></svg>