<svg xmlns="http://www.w3.org/2000/svg" viewBox="0 0 400 300"><g id="_189_facebook_ad_flatline" data-name="#189_facebook_ad_flatline"><rect x="57.45" y="44.16" width="285.09" height="34.92" fill="#ff4d42"/><path d="M342.55,79.57H57.45a.5.5,0,0,1-.5-.5V44.16a.5.5,0,0,1,.5-.5h285.1a.5.5,0,0,1,.5.5V79.07A.5.5,0,0,1,342.55,79.57ZM58,78.57h284.1V44.66H58Z" fill="#231f20"/><rect x="57.45" y="79.07" width="285.09" height="176.77" fill="#fff"/><path d="M342.55,256.34H57.45a.5.5,0,0,1-.5-.5V79.07a.51.51,0,0,1,.5-.5h285.1a.51.51,0,0,1,.5.5V255.84A.5.5,0,0,1,342.55,256.34Zm-284.6-1h284.1V79.57H58Z" fill="#231f20"/><path d="M81.4,64.16h2.85c.12,0,.16,0,.16.16v8.91h3.8V64.31c0-.12,0-.15.15-.15h2.83c.13,0,.17,0,.18-.15l.18-1.45c.07-.49.13-1,.19-1.46,0-.2.05-.4.08-.62H88.38c-.17,0-.17,0-.17-.17,0-.82,0-1.65,0-2.48a1.8,1.8,0,0,1,.14-.65,1.17,1.17,0,0,1,1-.71,3.55,3.55,0,0,1,.56-.06h1.89c.13,0,.17,0,.17-.16q0-1.5,0-3c0-.11,0-.17-.16-.17-.5,0-1-.08-1.49-.1s-1,0-1.48,0a4.72,4.72,0,0,0-2.73.9,4.18,4.18,0,0,0-1.49,2.27,5.81,5.81,0,0,0-.2,1.49v2.7c0,.13,0,.16-.16.16H81.42c-.17,0-.17,0-.17.16V64C81.25,64.13,81.28,64.16,81.4,64.16Z" fill="#fff"/><rect x="108.81" y="56" width="150.33" height="10.8" rx="5.4" fill="#fff"/><circle cx="280.07" cy="61.12" r="6.6" fill="#fff"/><circle cx="299.69" cy="61.12" r="6.6" fill="#fff"/><circle cx="319.32" cy="61.12" r="6.6" fill="#fff"/><path d="M253.47,138.28H144.11a6.17,6.17,0,0,1-6.17-6.16V99.5a6.18,6.18,0,0,1,6.17-6.17H253.47a6.18,6.18,0,0,1,6.17,6.17v32.62A6.17,6.17,0,0,1,253.47,138.28ZM144.11,94.33a5.18,5.18,0,0,0-5.17,5.17v32.62a5.17,5.17,0,0,0,5.17,5.16H253.47a5.17,5.17,0,0,0,5.17-5.16V99.5a5.18,5.18,0,0,0-5.17-5.17Z" fill="#d1d3d4"/><path d="M249.56,117.81H149a2,2,0,1,1,0-4H249.56a2,2,0,0,1,0,4Z" fill="#d1d3d4"/><path d="M242.14,128.73H149a2,2,0,0,1,0-4h93.17a2,2,0,1,1,0,4Z" fill="#d1d3d4"/><path d="M253.47,191.49H144.11a6.18,6.18,0,0,1-6.17-6.17V152.7a6.17,6.17,0,0,1,6.17-6.16H253.47a6.17,6.17,0,0,1,6.17,6.16v32.62A6.18,6.18,0,0,1,253.47,191.49Zm-109.36-44a5.17,5.17,0,0,0-5.17,5.16v32.62a5.18,5.18,0,0,0,5.17,5.17H253.47a5.18,5.18,0,0,0,5.17-5.17V152.7a5.17,5.17,0,0,0-5.17-5.16Z" fill="#d1d3d4"/><path d="M249.56,171H149a2,2,0,0,1,0-4H249.56a2,2,0,0,1,0,4Z" fill="#d1d3d4"/><path d="M242.14,181.93H149a2,2,0,1,1,0-4h93.17a2,2,0,0,1,0,4Z" fill="#d1d3d4"/><path d="M253.47,244.69H144.11a6.17,6.17,0,0,1-6.17-6.16V205.91a6.18,6.18,0,0,1,6.17-6.17H253.47a6.18,6.18,0,0,1,6.17,6.17v32.62A6.17,6.17,0,0,1,253.47,244.69ZM144.11,200.74a5.18,5.18,0,0,0-5.17,5.17v32.62a5.17,5.17,0,0,0,5.17,5.16H253.47a5.17,5.17,0,0,0,5.17-5.16V205.91a5.18,5.18,0,0,0-5.17-5.17Z" fill="#d1d3d4"/><path d="M249.56,224.22H149a2,2,0,0,1,0-4H249.56a2,2,0,0,1,0,4Z" fill="#d1d3d4"/><path d="M242.14,235.14H149a2,2,0,0,1,0-4h93.17a2,2,0,0,1,0,4Z" fill="#d1d3d4"/><path d="M77.07,177.34a4.87,4.87,0,1,1,4.87-4.87A4.87,4.87,0,0,1,77.07,177.34Zm0-8.74a3.87,3.87,0,1,0,3.87,3.87A3.87,3.87,0,0,0,77.07,168.6Z" fill="#d1d3d4"/><path d="M122.77,174.47H87.59a2,2,0,0,1,0-4h35.18a2,2,0,1,1,0,4Z" fill="#d1d3d4"/><path d="M77.07,194.27a4.88,4.88,0,1,1,4.87-4.88A4.88,4.88,0,0,1,77.07,194.27Zm0-8.75a3.88,3.88,0,1,0,3.87,3.87A3.87,3.87,0,0,0,77.07,185.52Z" fill="#d1d3d4"/><path d="M122.77,191.39H87.59a2,2,0,0,1,0-4h35.18a2,2,0,0,1,0,4Z" fill="#d1d3d4"/><path d="M77.07,211.19a4.87,4.87,0,1,1,4.87-4.87A4.88,4.88,0,0,1,77.07,211.19Zm0-8.74a3.87,3.87,0,1,0,3.87,3.87A3.87,3.87,0,0,0,77.07,202.45Z" fill="#d1d3d4"/><path d="M122.77,208.32H87.59a2,2,0,1,1,0-4h35.18a2,2,0,0,1,0,4Z" fill="#d1d3d4"/><rect x="268.03" y="93.83" width="61.67" height="58.67" rx="8.69" fill="#ff4d42"/><rect x="268.03" y="163.79" width="61.67" height="58.67" rx="8.69" fill="#fff"/><path d="M321,223h-44.3a9.2,9.2,0,0,1-9.19-9.18v-41.3a9.2,9.2,0,0,1,9.19-9.19H321a9.19,9.19,0,0,1,9.18,9.19v41.3A9.19,9.19,0,0,1,321,223Zm-44.3-58.67a8.2,8.2,0,0,0-8.19,8.19v41.3a8.2,8.2,0,0,0,8.19,8.18H321a8.19,8.19,0,0,0,8.18-8.18v-41.3a8.19,8.19,0,0,0-8.18-8.19Z" fill="#231f20"/><path d="M279.44,114.14h6L292,132.2h-6.17l-.88-2.65h-5.36l-.84,2.65h-6Zm2.93,6.3L281,124.9h2.74Z" fill="#fff"/><path d="M293.23,132.2V114.14h6.29a17,17,0,0,1,3.83.42,8.56,8.56,0,0,1,3.21,1.46,7.39,7.39,0,0,1,2.23,2.74,11.32,11.32,0,0,1,0,8.41,8.05,8.05,0,0,1-2.14,2.85,8.82,8.82,0,0,1-3.07,1.64,12.16,12.16,0,0,1-3.62.54Zm5.46-12.91V127h1.05a4.54,4.54,0,0,0,3.07-.93,3.81,3.81,0,0,0,1.07-3,3.51,3.51,0,0,0-1.07-2.73,4.09,4.09,0,0,0-2.86-1Z" fill="#fff"/><path d="M317.54,132.71a11.24,11.24,0,0,1-2-.19,11,11,0,0,1-1.9-.56,11.62,11.62,0,0,1-1.73-.86,8.63,8.63,0,0,1-1.46-1.11l3.46-4a5.63,5.63,0,0,0,1.58,1.23,4.2,4.2,0,0,0,2,.53,2.21,2.21,0,0,0,.87-.17.68.68,0,0,0,.39-.67.69.69,0,0,0-.13-.43,1.32,1.32,0,0,0-.46-.37,6.42,6.42,0,0,0-.92-.42c-.39-.16-.88-.34-1.46-.54a12.9,12.9,0,0,1-1.65-.73,5.7,5.7,0,0,1-1.39-1,4.54,4.54,0,0,1-1-1.47,5.32,5.32,0,0,1-.35-2.06,5.87,5.87,0,0,1,.64-2.86,6,6,0,0,1,1.65-1.93A6.66,6.66,0,0,1,316,114a9.46,9.46,0,0,1,2.5-.34,9.14,9.14,0,0,1,3.4.69,8.92,8.92,0,0,1,3,2l-3.52,3.85A3.67,3.67,0,0,0,320,119a3.56,3.56,0,0,0-1.5-.39,2.23,2.23,0,0,0-1,.19.64.64,0,0,0-.38.62.65.65,0,0,0,.39.61,9.8,9.8,0,0,0,1.28.51c.6.21,1.24.45,1.9.72a7.53,7.53,0,0,1,1.85,1.06,5.32,5.32,0,0,1,1.39,1.59,4.57,4.57,0,0,1,.55,2.35,6.22,6.22,0,0,1-.61,2.84,5.87,5.87,0,0,1-1.59,2,6.6,6.6,0,0,1-2.23,1.2A8.09,8.09,0,0,1,317.54,132.71Z" fill="#fff"/><path d="M279.44,184.1h6L292,202.15h-6.17L285,199.5h-5.36l-.84,2.65h-6Zm2.93,6.3L281,194.86h2.74Z" fill="#231f20"/><path d="M293.23,202.15V184.1h6.29a17,17,0,0,1,3.83.42,8.71,8.71,0,0,1,3.21,1.45,7.42,7.42,0,0,1,2.23,2.75,11.32,11.32,0,0,1,0,8.41,8,8,0,0,1-2.14,2.84,8.84,8.84,0,0,1-3.07,1.65,12.48,12.48,0,0,1-3.62.53Zm5.46-12.9v7.68h1.05a4.54,4.54,0,0,0,3.07-.93,3.81,3.81,0,0,0,1.07-3,3.48,3.48,0,0,0-1.07-2.73,4.09,4.09,0,0,0-2.86-1Z" fill="#231f20"/><path d="M317.54,202.66a10.4,10.4,0,0,1-2-.19,9.45,9.45,0,0,1-1.9-.56,10.73,10.73,0,0,1-1.73-.86,9.14,9.14,0,0,1-1.46-1.1l3.46-4a5.63,5.63,0,0,0,1.58,1.23,4.31,4.31,0,0,0,2,.53,2.05,2.05,0,0,0,.87-.18.66.66,0,0,0,.39-.66.72.72,0,0,0-.13-.44,1.44,1.44,0,0,0-.46-.37,9.81,9.81,0,0,0-.92-.42c-.39-.15-.88-.33-1.46-.53a12.9,12.9,0,0,1-1.65-.73,5.74,5.74,0,0,1-1.39-1,4.54,4.54,0,0,1-1-1.47,5.27,5.27,0,0,1-.35-2,5.67,5.67,0,0,1,2.29-4.79,6.68,6.68,0,0,1,2.28-1.09,9.87,9.87,0,0,1,2.5-.33,9.14,9.14,0,0,1,3.4.69,8.92,8.92,0,0,1,3,2l-3.52,3.85A3.67,3.67,0,0,0,320,189a3.44,3.44,0,0,0-1.5-.4,2.38,2.38,0,0,0-1,.19.69.69,0,0,0,0,1.24,9.8,9.8,0,0,0,1.28.51c.6.2,1.24.44,1.9.71a8.23,8.23,0,0,1,1.85,1.06,5.48,5.48,0,0,1,1.39,1.6,4.55,4.55,0,0,1,.55,2.34,6.23,6.23,0,0,1-.61,2.85,6.06,6.06,0,0,1-1.59,2,6.77,6.77,0,0,1-2.23,1.2A8.39,8.39,0,0,1,317.54,202.66Z" fill="#231f20"/><path d="M118.67,156.73H78.5a6.9,6.9,0,0,1-6.58-4.79,6.64,6.64,0,0,1-.34-2.13V100.25a6.92,6.92,0,0,1,6.92-6.92h40.17a6.92,6.92,0,0,1,6.92,6.92v49.56A6.93,6.93,0,0,1,118.67,156.73ZM78.5,94.33a5.93,5.93,0,0,0-5.92,5.92v49.56a5.83,5.83,0,0,0,.29,1.82,5.9,5.9,0,0,0,5.63,4.1h40.17a5.93,5.93,0,0,0,5.92-5.92V100.25a5.93,5.93,0,0,0-5.92-5.92Z" fill="#d1d3d4"/><path d="M125.09,148.1v1.71a6.42,6.42,0,0,1-6.42,6.42H78.5a6.42,6.42,0,0,1-6.11-4.45C74.3,146.39,79.28,139,92.27,137a46.69,46.69,0,0,1,7.23-.53,50.17,50.17,0,0,1,6.12.36C116.81,138.17,122.35,143.33,125.09,148.1Z" fill="#ff4d42"/><path d="M110.63,119.47s.5-13.8,0-14.8-25-5.83-24.74-5.2S87,102,87,102l-3.25.88L87,104.54,83.76,106l4.33,2.07.31,11.77Z" fill="#fff"/><path d="M88.4,120.4a.52.52,0,0,1-.52-.5l-.3-11.46-4-1.93a.52.52,0,0,1-.29-.47.51.51,0,0,1,.3-.46l2.32-1.07-2.36-1.22a.54.54,0,0,1-.27-.52.51.51,0,0,1,.38-.44l2.66-.72c-.28-.6-.7-1.53-.86-2a.56.56,0,0,1,.28-.7c.78-.35,10,1.5,12.8,2.08,12.14,2.48,12.44,3.1,12.59,3.4.52,1,.17,11.78.06,15a.53.53,0,0,1-.51.5l-22.23.41Zm22.23-.93h0ZM85,106.05l3.33,1.59a.52.52,0,0,1,.29.46l.3,11.26,21.23-.4c.22-6.18.31-12.94.06-14-1.58-.87-19.63-4.68-23.53-5,.34.77.8,1.78.81,1.8a.54.54,0,0,1,0,.43.53.53,0,0,1-.34.28l-2,.53,2.12,1.1a.52.52,0,0,1,0,.93Zm25.27-1Z" fill="#231f20"/><path d="M106.89,120c.6-3.76,6.83-4.68,6.52-.26a6.51,6.51,0,0,1-1.66,4.16,3.87,3.87,0,0,1-4.18,1" fill="#fff"/><path d="M108.87,125.66a3.71,3.71,0,0,1-1.51-.31.52.52,0,0,1-.26-.68.52.52,0,0,1,.68-.26,3.36,3.36,0,0,0,3.6-.87,6,6,0,0,0,1.52-3.83,2,2,0,0,0-1.74-2.39,3.5,3.5,0,0,0-3.76,2.76.53.53,0,0,1-.59.43.51.51,0,0,1-.43-.6,4.5,4.5,0,0,1,4.89-3.62,3,3,0,0,1,2.66,3.49,7.09,7.09,0,0,1-1.81,4.48A4.6,4.6,0,0,1,108.87,125.66Z" fill="#231f20"/><path d="M91.35,120c-.6-3.76-6.83-4.68-6.52-.26a6.51,6.51,0,0,0,1.66,4.16,3.88,3.88,0,0,0,4.18,1" fill="#fff"/><path d="M89.37,125.66a4.62,4.62,0,0,1-3.25-1.4,7.05,7.05,0,0,1-1.81-4.48A3,3,0,0,1,87,116.29a4.5,4.5,0,0,1,4.89,3.62.51.51,0,0,1-.42.6.53.53,0,0,1-.6-.43,3.49,3.49,0,0,0-3.75-2.76,2,2,0,0,0-1.75,2.39,6.09,6.09,0,0,0,1.52,3.83,3.36,3.36,0,0,0,3.6.87.51.51,0,1,1,.42.94A3.68,3.68,0,0,1,89.37,125.66Z" fill="#231f20"/><path d="M92.18,138.76a7.16,7.16,0,0,0,6.61,3.68,7.93,7.93,0,0,0,6.92-3.68l-.66-14.43H92.84Z" fill="#fff"/><path d="M98.79,143a7.59,7.59,0,0,1-7.07-4,.52.52,0,0,1,0-.24l.66-14.43a.52.52,0,0,1,.51-.5h12.21a.53.53,0,0,1,.52.5l.65,14.43a.45.45,0,0,1-.06.27A8.4,8.4,0,0,1,98.79,143Zm-6.08-4.3a6.64,6.64,0,0,0,6.08,3.27,7.42,7.42,0,0,0,6.4-3.29l-.63-13.78H93.34Z" fill="#231f20"/><path d="M92.84,130.51a10,10,0,0,0,3.69,3.23c2.42,1.34,6,2.84,9,2.39L105,130a27.48,27.48,0,0,1-6.48,0A18.12,18.12,0,0,1,93,129C92.66,128.86,92.47,129.92,92.84,130.51Z" fill="#231f20"/><path d="M104.39,136.71c-3,0-6.29-1.54-8.1-2.53a10.35,10.35,0,0,1-3.87-3.41,2,2,0,0,1,0-2.05.61.61,0,0,1,.74-.18,18.58,18.58,0,0,0,5.43,1,27.17,27.17,0,0,0,6.36,0,.52.52,0,0,1,.38.1.56.56,0,0,1,.19.35l.48,6.11a.5.5,0,0,1-.42.53A7.84,7.84,0,0,1,104.39,136.71ZM93.13,129.6a1.19,1.19,0,0,0,.13.64h0a9.45,9.45,0,0,0,3.51,3.06c1.49.83,5.15,2.64,8.2,2.4l-.41-5.11a28.51,28.51,0,0,1-6.06,0A20.63,20.63,0,0,1,93.13,129.6Zm-.37-.15h0Z" fill="#231f20"/><path d="M98.62,131.47h1a8.6,8.6,0,0,0,8.61-8.61V109.24H90v13.62A8.61,8.61,0,0,0,98.62,131.47Z" fill="#fff"/><path d="M108.23,109.24v13.62a8.6,8.6,0,0,1-8.61,8.61h-1A8.61,8.61,0,0,1,90,122.86V109.24h18.22m0-1H90a1,1,0,0,0-1,1v13.62a9.65,9.65,0,0,0,9.64,9.64h1a9.65,9.65,0,0,0,9.64-9.64V109.24a1,1,0,0,0-1-1Z" fill="#231f20"/><path d="M99.26,123.24a9.51,9.51,0,0,1-1.27-.08.81.81,0,0,1-.62-.41c-.67-1.11.73-5.06,1.36-6.71a.51.51,0,1,1,1,.37c-1,2.58-1.63,5.13-1.47,5.74a10.87,10.87,0,0,0,2.26,0,.51.51,0,1,1,.13,1A9.77,9.77,0,0,1,99.26,123.24Zm-1-1h0Z" fill="#231f20"/><path d="M87,156.74a.52.52,0,0,1-.51-.47l-.84-9.15a.51.51,0,0,1,.46-.56.53.53,0,0,1,.57.47l.84,9.15a.52.52,0,0,1-.47.56Z" fill="#231f20"/><path d="M113.08,156.74h0a.52.52,0,0,1-.47-.56l.84-9.15a.52.52,0,0,1,.56-.47.51.51,0,0,1,.47.56l-.84,9.15A.52.52,0,0,1,113.08,156.74Z" fill="#231f20"/></g></svg>