<?xml version="1.0" encoding="UTF-8" standalone="no"?>
<!DOCTYPE svg PUBLIC "-//W3C//DTD SVG 1.1//EN" "http://www.w3.org/Graphics/SVG/1.1/DTD/svg11.dtd">
<svg width="100%" height="100%" viewBox="0 0 400 300" version="1.1" xmlns="http://www.w3.org/2000/svg" xmlns:xlink="http://www.w3.org/1999/xlink" xml:space="preserve" xmlns:serif="http://www.serif.com/" style="fill-rule:evenodd;clip-rule:evenodd;stroke-linejoin:round;stroke-miterlimit:2;">
    <g id="_188_google_ad_flatline">
        <path d="M342.28,242.39L57.72,242.39L85.58,207.49L314.42,207.49L342.28,242.39Z" style="fill:white;fill-rule:nonzero;"/>
        <path d="M342.28,242.89L57.72,242.89C57.529,242.89 57.354,242.781 57.27,242.61C57.184,242.437 57.207,242.229 57.33,242.08L85.19,207.18C85.285,207.062 85.428,206.992 85.58,206.99L314.42,206.99C314.572,206.992 314.715,207.062 314.81,207.18L342.67,242.08C342.793,242.229 342.816,242.437 342.73,242.61C342.646,242.781 342.471,242.89 342.28,242.89ZM58.76,241.89L341.24,241.89L314.17,208L85.83,208L58.76,241.89Z" style="fill:rgb(35,31,32);fill-rule:nonzero;"/>
        <path d="M226.54,215L173.46,215L179.7,186.22L220.3,186.22L226.54,215Z" style="fill:white;fill-rule:nonzero;"/>
        <path d="M226.54,215.5L173.45,215.5C173.3,215.501 173.159,215.43 173.07,215.31C172.967,215.196 172.93,215.038 172.97,214.89L179.22,186.11C179.267,185.884 179.469,185.72 179.7,185.72L220.3,185.72C220.531,185.72 220.733,185.884 220.78,186.11L227,214.89C227.04,215.038 227.003,215.196 226.9,215.31C226.814,215.424 226.682,215.493 226.54,215.5ZM174.07,214.5L225.92,214.5L219.92,186.72L180.11,186.72L174.07,214.5Z" style="fill:rgb(35,31,32);fill-rule:nonzero;"/>
        <path d="M237.34,215.85C237.34,214.487 236.233,213.38 234.87,213.38L165.12,213.38C163.757,213.38 162.65,214.487 162.65,215.85L162.65,217.5C162.65,218.863 163.757,219.97 165.12,219.97L234.87,219.97C236.233,219.97 237.34,218.863 237.34,217.5L237.34,215.85Z" style="fill:white;"/>
        <path d="M234.88,220.46L165.12,220.46C163.474,220.46 162.12,219.106 162.12,217.46L162.12,215.81C162.12,214.164 163.474,212.81 165.12,212.81L234.88,212.81C236.526,212.81 237.88,214.164 237.88,215.81L237.88,217.46C237.88,219.106 236.526,220.46 234.88,220.46ZM165.12,213.88C164.023,213.88 163.12,214.783 163.12,215.88L163.12,217.53C163.12,218.627 164.023,219.53 165.12,219.53L234.88,219.53C235.977,219.53 236.88,218.627 236.88,217.53L236.88,215.88C236.88,214.783 235.977,213.88 234.88,213.88L165.12,213.88Z" style="fill:rgb(35,31,32);fill-rule:nonzero;"/>
        <path d="M175.86,203.92L221.96,193.87L220.3,187.81L179.7,187.81L175.86,203.92Z" style="fill:rgb(35,31,32);fill-rule:nonzero;"/>
        <path d="M175.86,204.42C175.726,204.416 175.598,204.362 175.5,204.27C175.38,204.146 175.331,203.968 175.37,203.8L179.21,187.7C179.265,187.476 179.469,187.318 179.7,187.32L220.3,187.32C220.522,187.32 220.718,187.467 220.78,187.68L222.44,193.74C222.481,193.872 222.459,194.016 222.38,194.13C222.308,194.246 222.193,194.329 222.06,194.36L175.97,204.36L175.86,204.42ZM180.1,188.32L176.53,203.26L221.34,193.49L219.92,188.32L180.1,188.32Z" style="fill:rgb(35,31,32);fill-rule:nonzero;"/>
        <path d="M307.21,57.22C307.21,53.517 304.203,50.51 300.5,50.51L99.49,50.51C95.787,50.51 92.78,53.517 92.78,57.22L92.78,181.11C92.78,184.813 95.787,187.82 99.49,187.82L300.5,187.82C304.203,187.82 307.21,184.813 307.21,181.11L307.21,57.22Z" style="fill:white;"/>
        <path d="M300.5,188.32L99.5,188.32C95.541,188.315 92.285,185.059 92.28,181.1L92.28,57.22C92.28,53.259 95.539,50 99.5,50L300.5,50C304.457,50 307.715,53.253 307.72,57.21L307.72,181.1C307.715,185.059 304.459,188.315 300.5,188.32ZM99.5,51C96.092,51 93.285,53.802 93.28,57.21L93.28,181.1C93.285,184.51 96.09,187.315 99.5,187.32L300.5,187.32C303.91,187.315 306.715,184.51 306.72,181.1L306.72,57.22C306.72,53.808 303.912,51 300.5,51L99.5,51Z" style="fill:rgb(35,31,32);fill-rule:nonzero;"/>
        <path d="M307.22,166.6L92.78,166.6C92.506,166.6 92.28,166.374 92.28,166.1C92.28,165.826 92.506,165.6 92.78,165.6L307.22,165.6C307.494,165.6 307.72,165.826 307.72,166.1C307.72,166.374 307.494,166.6 307.22,166.6Z" style="fill:rgb(35,31,32);fill-rule:nonzero;"/>
        <path d="M299.56,158.19L100.44,158.19C100.166,158.19 99.94,157.964 99.94,157.69L99.94,57C99.94,56.726 100.166,56.5 100.44,56.5L299.56,56.5C299.834,56.5 300.06,56.726 300.06,57L300.06,157.69C300.06,157.964 299.834,158.19 299.56,158.19ZM100.94,157.19L299.06,157.19L299.06,57.48L100.94,57.48L100.94,157.19Z" style="fill:rgb(209,211,212);fill-rule:nonzero;"/>
        <path d="M191.4,114.42L109.31,114.42C109.036,114.42 108.81,114.194 108.81,113.92C108.81,113.646 109.036,113.42 109.31,113.42L191.4,113.42C191.674,113.42 191.9,113.646 191.9,113.92C191.9,114.194 191.674,114.42 191.4,114.42Z" style="fill:white;fill-rule:nonzero;"/>
        <path d="M191.4,121.12L109.31,121.12C109.036,121.12 108.81,120.894 108.81,120.62C108.81,120.346 109.036,120.12 109.31,120.12L191.4,120.12C191.674,120.12 191.9,120.346 191.9,120.62C191.9,120.894 191.674,121.12 191.4,121.12Z" style="fill:white;fill-rule:nonzero;"/>
        <path d="M180,127.83L109.31,127.83C109.036,127.83 108.81,127.604 108.81,127.33C108.81,127.056 109.036,126.83 109.31,126.83L180,126.83C180.274,126.83 180.5,127.056 180.5,127.33C180.5,127.604 180.274,127.83 180,127.83Z" style="fill:white;fill-rule:nonzero;"/>
        <path d="M132.71,149.54L109.31,149.54C109.036,149.54 108.81,149.314 108.81,149.04L108.81,132.72C108.81,132.446 109.036,132.22 109.31,132.22L132.71,132.22C132.984,132.22 133.21,132.446 133.21,132.72L133.21,149C133.211,149.013 133.212,149.027 133.212,149.04C133.212,149.314 132.986,149.54 132.712,149.54C132.711,149.54 132.711,149.54 132.71,149.54ZM109.81,148.54L132.21,148.54L132.21,133.22L109.81,133.22L109.81,148.54Z" style="fill:white;fill-rule:nonzero;"/>
        <path d="M162.06,149.54L138.65,149.54C138.376,149.54 138.15,149.314 138.15,149.04L138.15,132.72C138.15,132.446 138.376,132.22 138.65,132.22L162.06,132.22C162.334,132.22 162.56,132.446 162.56,132.72L162.56,149C162.561,149.013 162.562,149.027 162.562,149.04C162.562,149.314 162.336,149.54 162.062,149.54C162.061,149.54 162.061,149.54 162.06,149.54ZM139.15,148.54L161.56,148.54L161.56,133.22L139.15,133.22L139.15,148.54Z" style="fill:white;fill-rule:nonzero;"/>
        <path d="M191.4,149.54L168,149.54C167.726,149.54 167.5,149.314 167.5,149.04L167.5,132.72C167.5,132.446 167.726,132.22 168,132.22L191.4,132.22C191.674,132.22 191.9,132.446 191.9,132.72L191.9,149C191.901,149.013 191.902,149.027 191.902,149.04C191.902,149.314 191.676,149.54 191.402,149.54C191.401,149.54 191.401,149.54 191.4,149.54ZM168.5,148.54L190.9,148.54L190.9,133.22L168.5,133.22L168.5,148.54Z" style="fill:white;fill-rule:nonzero;"/>
        <path d="M279.71,76.88L152.33,76.88C152.252,76.883 152.173,76.885 152.095,76.885C149.056,76.885 146.555,74.384 146.555,71.345C146.555,68.306 149.056,65.805 152.095,65.805C152.173,65.805 152.252,65.807 152.33,65.81L279.71,65.81C279.788,65.807 279.867,65.805 279.945,65.805C282.984,65.805 285.485,68.306 285.485,71.345C285.485,74.384 282.984,76.885 279.945,76.885C279.867,76.885 279.788,76.883 279.71,76.88ZM152.33,66.81C152.259,66.807 152.188,66.805 152.117,66.805C149.626,66.805 147.577,68.854 147.577,71.345C147.577,73.836 149.626,75.885 152.117,75.885C152.188,75.885 152.259,75.883 152.33,75.88L279.71,75.88C279.781,75.883 279.852,75.885 279.923,75.885C282.414,75.885 284.463,73.836 284.463,71.345C284.463,68.854 282.414,66.805 279.923,66.805C279.852,66.805 279.781,66.807 279.71,66.81L152.33,66.81Z" style="fill:rgb(209,211,212);fill-rule:nonzero;"/>
        <path d="M140.01,70.25C140.01,68.075 138.245,66.31 136.07,66.31L113.25,66.31C111.075,66.31 109.31,68.075 109.31,70.25L109.31,72.45C109.31,74.625 111.075,76.39 113.25,76.39L136.07,76.39C138.245,76.39 140.01,74.625 140.01,72.45L140.01,70.25Z" style="fill:rgb(255,77,66);"/>
        <path d="M270,76.88C269.726,76.88 269.5,76.654 269.5,76.38L269.5,66.31C269.5,66.036 269.726,65.81 270,65.81C270.274,65.81 270.5,66.036 270.5,66.31L270.5,76.38C270.5,76.654 270.274,76.88 270,76.88Z" style="fill:rgb(209,211,212);fill-rule:nonzero;"/>
        <path d="M278.12,73.82C276.513,73.82 275.19,72.497 275.19,70.89C275.19,69.283 276.513,67.96 278.12,67.96C279.727,67.96 281.05,69.283 281.05,70.89C281.05,72.497 279.727,73.82 278.12,73.82ZM278.12,68.97C277.061,68.97 276.19,69.841 276.19,70.9C276.19,71.959 277.061,72.83 278.12,72.83C279.179,72.83 280.05,71.959 280.05,70.9C280.05,70.897 280.05,70.893 280.05,70.89C280.028,69.846 279.164,69 278.12,69L278.12,68.97Z" style="fill:rgb(209,211,212);fill-rule:nonzero;"/>
        <path d="M272.86,75.17C272.71,75.172 272.566,75.106 272.47,74.99C272.297,74.775 272.329,74.457 272.54,74.28L275.38,72C275.473,71.912 275.596,71.864 275.723,71.864C275.998,71.864 276.223,72.089 276.223,72.364C276.223,72.531 276.139,72.687 276,72.78L273.17,75.07C273.083,75.141 272.972,75.177 272.86,75.17Z" style="fill:rgb(209,211,212);fill-rule:nonzero;"/>
        <path d="M227.41,93.14L111.25,93.14C110.153,93.14 109.25,92.237 109.25,91.14C109.25,90.043 110.153,89.14 111.25,89.14L227.41,89.14C228.507,89.14 229.41,90.043 229.41,91.14C229.41,92.237 228.507,93.14 227.41,93.14Z" style="fill:rgb(255,77,66);fill-rule:nonzero;"/>
        <path d="M237.1,102.36L111.25,102.36C110.978,102.355 110.755,102.132 110.75,101.86C110.75,101.586 110.976,101.36 111.25,101.36L237.1,101.36C237.374,101.36 237.6,101.586 237.6,101.86C237.6,102.134 237.374,102.36 237.1,102.36Z" style="fill:rgb(209,211,212);fill-rule:nonzero;"/>
        <path d="M209.28,113.07L111.28,113.07C111.006,113.07 110.78,112.844 110.78,112.57C110.78,112.296 111.006,112.07 111.28,112.07L209.28,112.07C209.554,112.07 209.78,112.296 209.78,112.57C209.78,112.844 209.554,113.07 209.28,113.07Z" style="fill:rgb(209,211,212);fill-rule:nonzero;"/>
        <path d="M200.87,130.62L111.25,130.62C110.153,130.62 109.25,129.717 109.25,128.62C109.25,127.523 110.153,126.62 111.25,126.62L200.87,126.62C201.967,126.62 202.87,127.523 202.87,128.62C202.87,129.717 201.967,130.62 200.87,130.62Z" style="fill:rgb(255,77,66);fill-rule:nonzero;"/>
        <path d="M237.1,139.83L111.25,139.83C110.976,139.83 110.75,139.604 110.75,139.33C110.755,139.058 110.978,138.835 111.25,138.83L237.1,138.83C237.374,138.83 237.6,139.056 237.6,139.33C237.6,139.604 237.374,139.83 237.1,139.83Z" style="fill:rgb(209,211,212);fill-rule:nonzero;"/>
        <path d="M173.06,150.55L111.25,150.55C110.978,150.545 110.755,150.322 110.75,150.05C110.75,149.776 110.976,149.55 111.25,149.55L173.06,149.55C173.334,149.55 173.56,149.776 173.56,150.05C173.555,150.322 173.332,150.545 173.06,150.55Z" style="fill:rgb(209,211,212);fill-rule:nonzero;"/>
        <path d="M293.23,124.83L247.35,124.83C247.078,124.825 246.855,124.602 246.85,124.33L246.85,89.25C246.85,88.976 247.076,88.75 247.35,88.75L293.23,88.75C293.504,88.75 293.73,88.976 293.73,89.25L293.73,124.33C293.73,124.604 293.504,124.83 293.23,124.83ZM247.85,123.83L292.73,123.83L292.73,89.75L247.85,89.75L247.85,123.83Z" style="fill:rgb(209,211,212);fill-rule:nonzero;"/>
        <path d="M293.23,133.22L247.35,133.22C247.078,133.215 246.855,132.992 246.85,132.72C246.85,132.446 247.076,132.22 247.35,132.22L293.23,132.22C293.504,132.22 293.73,132.446 293.73,132.72C293.73,132.994 293.504,133.22 293.23,133.22Z" style="fill:rgb(209,211,212);fill-rule:nonzero;"/>
        <path d="M293.23,141.89L247.35,141.89C247.078,141.885 246.855,141.662 246.85,141.39C246.85,141.116 247.076,140.89 247.35,140.89L293.23,140.89C293.504,140.89 293.73,141.116 293.73,141.39C293.73,141.664 293.504,141.89 293.23,141.89Z" style="fill:rgb(209,211,212);fill-rule:nonzero;"/>
        <path d="M285.23,150.55L247.35,150.55C247.076,150.55 246.85,150.324 246.85,150.05C246.855,149.778 247.078,149.555 247.35,149.55L285.23,149.55C285.502,149.555 285.725,149.778 285.73,150.05C285.73,150.324 285.504,150.55 285.23,150.55Z" style="fill:rgb(209,211,212);fill-rule:nonzero;"/>
        <path d="M280.21,116.93C280.084,116.931 279.963,116.884 279.87,116.8L264.27,102.36C263.579,101.704 262.481,101.704 261.79,102.36L247.7,116.05C247.61,116.124 247.498,116.164 247.382,116.164C247.107,116.164 246.882,115.939 246.882,115.664C246.882,115.541 246.927,115.422 247.01,115.33L261.09,101.67C262.169,100.657 263.871,100.657 264.95,101.67L280.55,116.11C280.648,116.204 280.703,116.334 280.703,116.47C280.703,116.742 280.482,116.966 280.21,116.97L280.21,116.93Z" style="fill:rgb(209,211,212);fill-rule:nonzero;"/>
        <path d="M293.23,112.87C293.094,112.866 292.964,112.808 292.87,112.71L286.63,106.12C286.292,105.739 285.798,105.533 285.29,105.56C284.784,105.561 284.303,105.78 283.97,106.16L278.49,112.31C278.397,112.446 278.242,112.528 278.077,112.528C277.803,112.528 277.577,112.303 277.577,112.028C277.577,111.883 277.64,111.745 277.75,111.65L283.23,105.49C283.742,104.921 284.465,104.584 285.23,104.56C286.017,104.53 286.779,104.849 287.31,105.43L293.54,112.02C293.635,112.114 293.688,112.242 293.688,112.375C293.688,112.508 293.635,112.636 293.54,112.73C293.454,112.809 293.346,112.858 293.23,112.87Z" style="fill:rgb(209,211,212);fill-rule:nonzero;"/>
        <path d="M276.08,104.12C274.034,104.12 272.35,102.436 272.35,100.39C272.35,98.344 274.034,96.66 276.08,96.66C278.126,96.66 279.81,98.344 279.81,100.39C279.81,102.436 278.126,104.12 276.08,104.12ZM276.08,97.66C274.582,97.66 273.35,98.892 273.35,100.39C273.35,101.888 274.582,103.12 276.08,103.12C277.578,103.12 278.81,101.888 278.81,100.39C278.81,100.387 278.81,100.383 278.81,100.38C278.81,98.888 277.582,97.66 276.09,97.66C276.087,97.66 276.083,97.66 276.08,97.66Z" style="fill:rgb(209,211,212);fill-rule:nonzero;"/>
        <path d="M200,180.71C199.997,180.71 199.993,180.71 199.99,180.71C197.472,180.71 195.4,178.638 195.4,176.12C195.4,173.602 197.472,171.53 199.99,171.53C202.508,171.53 204.58,173.602 204.58,176.12C204.58,178.634 202.514,180.705 200,180.71ZM200,172.54C199.997,172.54 199.993,172.54 199.99,172.54C198.021,172.54 196.4,174.161 196.4,176.13C196.4,178.099 198.021,179.72 199.99,179.72C201.959,179.72 203.58,178.099 203.58,176.13C203.58,176.127 203.58,176.123 203.58,176.12C203.58,174.156 201.964,172.54 200,172.54Z" style="fill:rgb(209,211,212);fill-rule:nonzero;"/>
        <rect x="244.02" y="143.45" width="79.54" height="49.16" style="fill:rgb(255,77,66);"/>
        <path d="M323.56,193.11L244,193.11C243.728,193.105 243.505,192.882 243.5,192.61L243.5,143.45C243.5,143.176 243.726,142.95 244,142.95L323.55,142.95C323.824,142.95 324.05,143.176 324.05,143.45L324.05,192.61C324.045,192.879 323.828,193.1 323.56,193.11ZM244.51,192.11L323.06,192.11L323.06,144L244.51,144L244.51,192.11Z" style="fill:rgb(35,31,32);fill-rule:nonzero;"/>
        <rect x="244.02" y="136.41" width="79.54" height="7.04" style="fill:white;"/>
        <path d="M323.56,144L244,144C243.728,143.995 243.505,143.772 243.5,143.5L243.5,136.5C243.5,136.226 243.726,136 244,136L323.55,136C323.824,136 324.05,136.226 324.05,136.5L324.05,143.5C324.045,143.769 323.828,143.99 323.56,144ZM244.51,143L323.06,143L323.06,137L244.51,137L244.51,143Z" style="fill:rgb(35,31,32);fill-rule:nonzero;"/>
        <g transform="matrix(-0.866025,-0.5,0.5,-0.866025,433.77,449.3)">
            <path d="M283.31,153.25C283.31,149.817 280.523,147.03 277.09,147.03L277.08,147.03C273.647,147.03 270.86,149.817 270.86,153.25L270.86,179.83C270.86,183.263 273.647,186.05 277.08,186.05L277.09,186.05C280.523,186.05 283.31,183.263 283.31,179.83L283.31,153.25Z" style="fill:white;"/>
        </g>
        <path d="M270.42,184.77C269.247,184.77 268.094,184.459 267.08,183.87C263.887,182.023 262.773,177.879 264.61,174.68L277.9,151.68C279.099,149.603 281.322,148.32 283.72,148.32C287.407,148.32 290.44,151.353 290.44,155.04C290.44,156.22 290.13,157.378 289.54,158.4L276.26,181.4C275.057,183.484 272.826,184.771 270.42,184.77ZM267.58,183C270.296,184.567 273.82,183.624 275.39,180.91L288.68,157.91C289.182,157.04 289.446,156.054 289.446,155.05C289.446,151.911 286.864,149.329 283.725,149.329C281.683,149.329 279.791,150.422 278.77,152.19L265.48,175.19C264.718,176.505 264.512,178.073 264.91,179.54C265.297,181.008 266.26,182.26 267.58,183.01L267.58,183Z" style="fill:rgb(35,31,32);fill-rule:nonzero;"/>
        <circle cx="270.55" cy="177.71" r="6.34" style="fill:white;"/>
        <path d="M270.55,184.55C270.547,184.55 270.543,184.55 270.54,184.55C266.782,184.55 263.69,181.458 263.69,177.7C263.69,173.942 266.782,170.85 270.54,170.85C274.298,170.85 277.39,173.942 277.39,177.7C277.39,177.703 277.39,177.707 277.39,177.71C277.385,181.46 274.3,184.545 270.55,184.55ZM270.55,171.86C270.547,171.86 270.543,171.86 270.54,171.86C267.331,171.86 264.69,174.501 264.69,177.71C264.69,180.919 267.331,183.56 270.54,183.56C273.749,183.56 276.39,180.919 276.39,177.71C276.385,174.507 273.753,171.871 270.55,171.86Z" style="fill:rgb(35,31,32);fill-rule:nonzero;"/>
        <g transform="matrix(0.866025,-0.5,0.5,0.866025,-44.35,167.56)">
            <path d="M296.73,153.25C296.73,149.817 293.943,147.03 290.51,147.03L290.5,147.03C287.067,147.03 284.28,149.817 284.28,153.25L284.28,179.83C284.28,183.263 287.067,186.05 290.5,186.05L290.51,186.05C293.943,186.05 296.73,183.263 296.73,179.83L296.73,153.25Z" style="fill:white;"/>
        </g>
        <path d="M297.16,184.77C296.569,184.769 295.981,184.691 295.41,184.54C293.686,184.081 292.213,182.954 291.32,181.41L278.04,158.41C277.45,157.388 277.14,156.23 277.14,155.05C277.14,151.363 280.173,148.33 283.86,148.33C286.258,148.33 288.481,149.613 289.68,151.69L302.97,174.69C304.809,177.887 303.7,182.029 300.51,183.88C299.491,184.466 298.335,184.773 297.16,184.77ZM283.85,149.31C283.835,149.31 283.819,149.31 283.804,149.31C280.666,149.31 278.084,151.892 278.084,155.03C278.084,156.034 278.348,157.02 278.85,157.89L292.14,180.89C293.159,182.674 295.062,183.779 297.116,183.779C298.129,183.779 299.124,183.51 300,183C302.715,181.426 303.658,177.899 302.09,175.18L288.81,152.18C287.788,150.41 285.894,149.314 283.85,149.31Z" style="fill:rgb(35,31,32);fill-rule:nonzero;"/>
        <path d="M253.34,140.43L247.8,140.43C247.526,140.43 247.3,140.204 247.3,139.93C247.3,139.656 247.526,139.43 247.8,139.43L253.34,139.43C253.614,139.43 253.84,139.656 253.84,139.93C253.84,140.204 253.614,140.43 253.34,140.43Z" style="fill:rgb(35,31,32);fill-rule:nonzero;"/>
        <rect x="57.72" y="242.39" width="284.56" height="7.02" style="fill:rgb(35,31,32);"/>
        <path d="M342.28,249.91L57.72,249.91C57.446,249.91 57.22,249.684 57.22,249.41L57.22,242.41C57.22,242.136 57.446,241.91 57.72,241.91L342.28,241.91C342.554,241.91 342.78,242.136 342.78,242.41L342.78,249.41C342.78,249.684 342.554,249.91 342.28,249.91ZM58.22,248.91L341.78,248.91L341.78,242.91L58.22,242.91L58.22,248.91Z" style="fill:rgb(35,31,32);fill-rule:nonzero;"/>
        <rect x="72.03" y="46.29" width="67.97" height="61.21" style="fill:white;"/>
        <path d="M140,108L72,108C71.728,107.995 71.505,107.772 71.5,107.5L71.5,46.29C71.5,46.016 71.726,45.79 72,45.79L140,45.79C140.274,45.79 140.5,46.016 140.5,46.29L140.5,107.5C140.495,107.772 140.272,107.995 140,108ZM72.52,107L139.52,107L139.52,46.79L72.52,46.79L72.52,107Z" style="fill:rgb(35,31,32);fill-rule:nonzero;"/>
        <rect x="88.21" y="87.09" width="10.04" height="11.7" style="fill:rgb(255,77,66);"/>
        <rect x="103.21" y="76.39" width="10.04" height="22.4" style="fill:rgb(255,77,66);"/>
        <rect x="118.2" y="59.89" width="10.04" height="38.9" style="fill:rgb(255,77,66);"/>
        <path d="M133.2,99.28L80.46,99.28C80.186,99.28 79.96,99.054 79.96,98.78L79.96,54C79.96,53.726 80.186,53.5 80.46,53.5C80.734,53.5 80.96,53.726 80.96,54L80.96,98.28L133.2,98.28C133.474,98.28 133.7,98.506 133.7,98.78C133.7,99.054 133.474,99.28 133.2,99.28Z" style="fill:rgb(35,31,32);fill-rule:nonzero;"/>
        <path d="M92.74,82.18L92.24,82.12L91.77,81.94C92.43,79.3 95,70.7 100.3,71C101.78,70.945 103.221,71.486 104.3,72.5C105.246,73.386 106.484,73.899 107.78,73.94C109.51,74.12 110.46,71.49 111.66,68.13C113.79,62.13 116.66,54.04 126.66,54.04C126.934,54.04 127.16,54.266 127.16,54.54C127.16,54.814 126.934,55.04 126.66,55.04C117.38,55.04 114.66,62.48 112.57,68.46C111.22,72.25 110.16,75.26 107.63,74.94C106.14,74.863 104.724,74.265 103.63,73.25C102.718,72.383 101.487,71.931 100.23,72C95.57,71.74 93.17,80.43 92.74,82.18Z" style="fill:rgb(209,211,212);fill-rule:nonzero;"/>
        <path d="M82.05,213.73L82.05,220.33C82.05,222.33 89.56,223.97 98.84,223.97C108.12,223.97 115.63,222.34 115.63,220.33L115.63,213.73L82.05,213.73Z" style="fill:white;fill-rule:nonzero;"/>
        <path d="M98.84,224.47C90.25,224.47 81.55,223.05 81.55,220.33L81.55,213.73C81.55,213.456 81.776,213.23 82.05,213.23L115.63,213.23C115.904,213.23 116.13,213.456 116.13,213.73L116.13,220.33C116.13,223.05 107.43,224.47 98.84,224.47ZM82.55,214.23L82.55,220.33C82.55,221.61 88.89,223.47 98.84,223.47C108.79,223.47 115.13,221.61 115.13,220.33L115.13,214.23L82.55,214.23Z" style="fill:rgb(35,31,32);fill-rule:nonzero;"/>
        <ellipse cx="98.84" cy="213.73" rx="16.79" ry="3.63" style="fill:rgb(35,31,32);"/>
        <path d="M98.84,217.86C90.25,217.86 81.55,216.44 81.55,213.73C81.55,211.02 90.25,209.59 98.84,209.59C107.43,209.59 116.13,211.01 116.13,213.73C116.13,216.45 107.43,217.86 98.84,217.86ZM98.84,210.59C88.84,210.59 82.55,212.45 82.55,213.73C82.55,215.01 88.89,216.86 98.84,216.86C108.79,216.86 115.13,215.01 115.13,213.73C115.13,212.45 108.79,210.59 98.84,210.59Z" style="fill:rgb(35,31,32);fill-rule:nonzero;"/>
        <path d="M83.64,205L83.64,211.61C83.64,213.61 91.16,215.24 100.44,215.24C109.72,215.24 117.23,213.62 117.23,211.61L117.23,205L83.64,205Z" style="fill:white;fill-rule:nonzero;"/>
        <path d="M100.44,215.71C91.84,215.71 83.14,214.29 83.14,211.58L83.14,205C83.145,204.728 83.368,204.505 83.64,204.5L117.23,204.5C117.504,204.5 117.73,204.726 117.73,205L117.73,211.61C117.73,214.29 109,215.71 100.44,215.71ZM84.14,205.47L84.14,211.58C84.14,212.86 90.49,214.71 100.44,214.71C110.39,214.71 116.73,212.86 116.73,211.58L116.73,205.47L84.14,205.47Z" style="fill:rgb(35,31,32);fill-rule:nonzero;"/>
        <ellipse cx="100.44" cy="204.97" rx="16.79" ry="3.63" style="fill:rgb(35,31,32);"/>
        <path d="M100.44,209.11C91.84,209.11 83.14,207.69 83.14,204.97C83.14,202.25 91.84,200.84 100.44,200.84C109.04,200.84 117.73,202.26 117.73,204.97C117.73,207.68 109,209.11 100.44,209.11ZM100.44,201.84C90.44,201.84 84.14,203.7 84.14,204.97C84.14,206.24 90.49,208.11 100.44,208.11C110.39,208.11 116.73,206.25 116.73,204.97C116.73,203.69 110.38,201.84 100.44,201.84Z" style="fill:rgb(35,31,32);fill-rule:nonzero;"/>
        <path d="M81.33,196.22L81.33,202.82C81.33,204.82 88.85,206.46 98.13,206.46C107.41,206.46 114.92,204.83 114.92,202.82L114.92,196.22L81.33,196.22Z" style="fill:white;fill-rule:nonzero;"/>
        <path d="M98.13,207C89.53,207 80.83,205.58 80.83,202.86L80.83,196.26C80.83,195.986 81.056,195.76 81.33,195.76L114.92,195.76C115.194,195.76 115.42,195.986 115.42,196.26L115.42,202.86C115.42,205.54 106.72,207 98.13,207ZM81.83,196.76L81.83,202.86C81.83,204.14 88.18,206 98.13,206C108.08,206 114.42,204.14 114.42,202.86L114.42,196.76L81.83,196.76Z" style="fill:rgb(35,31,32);fill-rule:nonzero;"/>
        <ellipse cx="98.13" cy="196.22" rx="16.79" ry="3.63" style="fill:rgb(35,31,32);"/>
        <path d="M98.13,200.36C89.53,200.36 80.83,198.94 80.83,196.22C80.83,193.5 89.53,192.09 98.13,192.09C106.73,192.09 115.42,193.51 115.42,196.22C115.42,198.93 106.72,200.36 98.13,200.36ZM98.13,193.09C88.18,193.09 81.83,194.94 81.83,196.22C81.83,197.5 88.18,199.36 98.13,199.36C108.08,199.36 114.42,197.5 114.42,196.22C114.42,194.94 108.07,193.09 98.13,193.09Z" style="fill:rgb(35,31,32);fill-rule:nonzero;"/>
        <path d="M86,187.24L86,193.84C86,195.84 93.52,197.48 102.79,197.48C112.06,197.48 119.59,195.85 119.59,193.84L119.59,187.24L86,187.24Z" style="fill:white;fill-rule:nonzero;"/>
        <path d="M102.75,198C94.16,198 85.46,196.58 85.46,193.86L85.46,187.26C85.46,186.986 85.686,186.76 85.96,186.76L119.55,186.76C119.824,186.76 120.05,186.986 120.05,187.26L120.05,193.86C120.05,196.56 111.35,198 102.75,198ZM86.46,187.74L86.46,193.84C86.46,195.12 92.81,196.98 102.75,196.98C112.69,196.98 119.05,195.12 119.05,193.84L119.05,187.74L86.46,187.74Z" style="fill:rgb(35,31,32);fill-rule:nonzero;"/>
        <ellipse cx="102.75" cy="187.24" rx="16.79" ry="3.63" style="fill:rgb(35,31,32);"/>
        <path d="M102.75,191.38C94.16,191.38 85.46,189.96 85.46,187.24C85.46,184.52 94.16,183.11 102.75,183.11C111.34,183.11 120.05,184.53 120.05,187.24C120.05,189.95 111.35,191.38 102.75,191.38ZM102.75,184.11C92.81,184.11 86.46,185.96 86.46,187.24C86.46,188.52 92.81,190.38 102.75,190.38C112.69,190.38 119.05,188.52 119.05,187.24C119.05,185.96 112.7,184.11 102.75,184.11Z" style="fill:rgb(35,31,32);fill-rule:nonzero;"/>
        <path d="M81.33,179.41L81.33,186C81.33,188 88.85,189.63 98.13,189.63C107.41,189.63 114.92,188 114.92,186L114.92,179.39L81.33,179.41Z" style="fill:white;fill-rule:nonzero;"/>
        <path d="M98.13,190.15C89.53,190.15 80.83,188.73 80.83,186.02L80.83,179.41C80.835,179.138 81.058,178.915 81.33,178.91L114.92,178.91C115.194,178.91 115.42,179.136 115.42,179.41L115.42,186C115.42,188.73 106.72,190.15 98.13,190.15ZM81.83,179.91L81.83,186C81.83,187.28 88.18,189.13 98.13,189.13C108.08,189.13 114.42,187.28 114.42,186L114.42,179.89L81.83,179.91Z" style="fill:rgb(35,31,32);fill-rule:nonzero;"/>
        <ellipse cx="98.13" cy="179.41" rx="16.79" ry="3.63" style="fill:white;"/>
        <path d="M98.13,183.55C89.53,183.55 80.83,182.13 80.83,179.41C80.83,176.69 89.53,175.28 98.13,175.28C106.73,175.28 115.42,176.7 115.42,179.41C115.42,182.12 106.72,183.55 98.13,183.55ZM98.13,176.28C88.18,176.28 81.83,178.14 81.83,179.41C81.83,180.68 88.18,182.55 98.13,182.55C108.08,182.55 114.42,180.69 114.42,179.41C114.42,178.13 108.07,176.28 98.13,176.28Z" style="fill:rgb(35,31,32);fill-rule:nonzero;"/>
        <path d="M98.13,181.72C96.92,181.72 86.37,181.66 86.37,179.41C86.37,177.16 96.92,177.1 98.13,177.1C99.34,177.1 109.88,177.17 109.88,179.41C109.88,181.65 99.33,181.72 98.13,181.72ZM87.43,179.41C88.12,179.98 92.09,180.72 98.13,180.72C104.17,180.72 108.13,179.98 108.82,179.41C108.13,178.85 104.16,178.1 98.13,178.1C92.1,178.1 88.12,178.85 87.43,179.41Z" style="fill:rgb(209,211,212);fill-rule:nonzero;"/>
        <path d="M285.8,216.86L285.8,223.47C285.8,225.47 293.32,227.1 302.59,227.1C311.86,227.1 319.39,225.47 319.39,223.47L319.39,216.86L285.8,216.86Z" style="fill:white;fill-rule:nonzero;"/>
        <path d="M302.59,227.6C294,227.6 285.3,226.18 285.3,223.47L285.3,216.86C285.3,216.586 285.526,216.36 285.8,216.36L319.38,216.36C319.654,216.36 319.88,216.586 319.88,216.86L319.88,223.47C319.88,226.18 311.18,227.6 302.59,227.6ZM286.3,217.36L286.3,223.47C286.3,224.74 292.64,226.6 302.59,226.6C312.54,226.6 318.88,224.74 318.88,223.47L318.88,217.36L286.3,217.36Z" style="fill:rgb(35,31,32);fill-rule:nonzero;"/>
        <ellipse cx="302.59" cy="216.86" rx="16.79" ry="3.63" style="fill:rgb(35,31,32);"/>
        <path d="M302.59,221C294,221 285.3,219.58 285.3,216.86C285.3,214.14 294,212.73 302.59,212.73C311.18,212.73 319.88,214.15 319.88,216.86C319.88,219.57 311.18,221 302.59,221ZM302.59,213.73C292.64,213.73 286.3,215.58 286.3,216.86C286.3,218.14 292.64,220 302.59,220C312.54,220 318.88,218.14 318.88,216.86C318.88,215.58 312.54,213.73 302.59,213.73Z" style="fill:rgb(35,31,32);fill-rule:nonzero;"/>
        <path d="M283.48,208.11L283.48,214.71C283.48,216.71 291,218.35 300.28,218.35C309.56,218.35 317.07,216.72 317.07,214.71L317.07,208.11L283.48,208.11Z" style="fill:white;fill-rule:nonzero;"/>
        <path d="M300.28,218.85C291.68,218.85 282.98,217.43 282.98,214.71L282.98,208.11C282.98,207.836 283.206,207.61 283.48,207.61L317.07,207.61C317.344,207.61 317.57,207.836 317.57,208.11L317.57,214.71C317.57,217.43 308.87,218.85 300.28,218.85ZM284,208.61L284,214.71C284,215.99 290.35,217.85 300.3,217.85C310.25,217.85 316.59,215.99 316.59,214.71L316.59,208.61L284,208.61Z" style="fill:rgb(35,31,32);fill-rule:nonzero;"/>
        <ellipse cx="300.28" cy="208.11" rx="16.79" ry="3.63" style="fill:rgb(35,31,32);"/>
        <path d="M300.28,212.24C291.68,212.24 282.98,210.82 282.98,208.11C282.98,205.4 291.68,203.97 300.28,203.97C308.88,203.97 317.57,205.39 317.57,208.11C317.57,210.83 308.87,212.24 300.28,212.24ZM300.28,204.97C290.33,204.97 283.98,206.83 283.98,208.11C283.98,209.39 290.33,211.24 300.28,211.24C310.23,211.24 316.57,209.39 316.57,208.11C316.57,206.83 310.22,205 300.28,205L300.28,204.97Z" style="fill:rgb(35,31,32);fill-rule:nonzero;"/>
        <path d="M288.11,199.13L288.11,205.73C288.11,207.73 295.63,209.37 304.9,209.37C314.17,209.37 321.7,207.74 321.7,205.73L321.7,199.13L288.11,199.13Z" style="fill:white;fill-rule:nonzero;"/>
        <path d="M304.9,209.87C296.31,209.87 287.61,208.45 287.61,205.73L287.61,199.13C287.61,198.856 287.836,198.63 288.11,198.63L321.7,198.63C321.974,198.63 322.2,198.856 322.2,199.13L322.2,205.73C322.2,208.45 313.5,209.87 304.9,209.87ZM288.61,199.63L288.61,205.73C288.61,207.01 294.96,208.87 304.9,208.87C314.84,208.87 321.2,207.01 321.2,205.73L321.2,199.63L288.61,199.63Z" style="fill:rgb(35,31,32);fill-rule:nonzero;"/>
        <ellipse cx="304.9" cy="199.13" rx="16.79" ry="3.63" style="fill:rgb(35,31,32);"/>
        <path d="M304.9,203.26C296.31,203.26 287.61,201.84 287.61,199.13C287.61,196.42 296.31,195 304.9,195C313.49,195 322.2,196.42 322.2,199.13C322.2,201.84 313.5,203.26 304.9,203.26ZM304.9,196C294.96,196 288.61,197.85 288.61,199.13C288.61,200.41 294.96,202.26 304.9,202.26C314.84,202.26 321.2,200.41 321.2,199.13C321.2,197.85 314.85,196 304.9,196Z" style="fill:rgb(35,31,32);fill-rule:nonzero;"/>
        <path d="M283.48,191.3L283.48,197.91C283.48,199.91 291,201.54 300.28,201.54C309.56,201.54 317.07,199.91 317.07,197.91L317.07,191.3L283.48,191.3Z" style="fill:white;fill-rule:nonzero;"/>
        <path d="M300.28,202C291.68,202 282.98,200.58 282.98,197.87L282.98,191.3C282.985,191.028 283.208,190.805 283.48,190.8L317.07,190.8C317.344,190.8 317.57,191.026 317.57,191.3L317.57,197.91C317.57,200.62 308.87,202 300.28,202ZM284,191.8L284,197.91C284,199.18 290.35,201.04 300.3,201.04C310.25,201.04 316.59,199.18 316.59,197.91L316.59,191.8L284,191.8Z" style="fill:rgb(35,31,32);fill-rule:nonzero;"/>
        <ellipse cx="300.28" cy="191.3" rx="16.79" ry="3.63" style="fill:white;"/>
        <path d="M300.28,195.44C291.68,195.44 282.98,194.02 282.98,191.3C282.98,188.58 291.68,187.17 300.28,187.17C308.88,187.17 317.57,188.59 317.57,191.3C317.57,194.01 308.87,195.44 300.28,195.44ZM300.28,188.17C290.33,188.17 283.98,190.02 283.98,191.3C283.98,192.58 290.33,194.44 300.28,194.44C310.23,194.44 316.57,192.58 316.57,191.3C316.57,190.02 310.22,188.17 300.28,188.17Z" style="fill:rgb(35,31,32);fill-rule:nonzero;"/>
        <path d="M300.28,193.61C299.08,193.61 288.53,193.55 288.53,191.3C288.53,189.05 299.08,189 300.28,189C301.48,189 312.03,189.07 312.03,191.31C312.03,193.55 301.48,193.61 300.28,193.61ZM289.58,191.3C290.27,191.87 294.24,192.61 300.28,192.61C306.32,192.61 310.28,191.87 310.97,191.3C310.28,190.74 306.32,189.99 300.28,189.99C294.24,189.99 290.27,190.74 289.58,191.3Z" style="fill:rgb(209,211,212);fill-rule:nonzero;"/>
        <path d="M156.17,216L156.17,222.27C156.17,224.18 149.02,225.73 140.17,225.73C131.32,225.73 124.17,224.18 124.17,222.27L124.17,216L156.17,216Z" style="fill:white;fill-rule:nonzero;"/>
        <path d="M140.21,226.21C133.59,226.21 123.74,225.16 123.74,222.21L123.74,216C123.74,215.726 123.966,215.5 124.24,215.5L156.17,215.5C156.444,215.5 156.67,215.726 156.67,216L156.67,222.27C156.67,225.16 146.83,226.21 140.21,226.21ZM124.74,216.48L124.74,222.25C124.74,223.46 130.74,225.25 140.21,225.25C149.68,225.25 155.67,223.5 155.67,222.25L155.67,216.48L124.74,216.48Z" style="fill:rgb(35,31,32);fill-rule:nonzero;"/>
        <ellipse cx="140.21" cy="215.98" rx="15.96" ry="3.46" style="fill:rgb(35,31,32);"/>
        <path d="M140.21,219.93C133.59,219.93 123.74,218.88 123.74,215.93C123.74,212.98 133.59,211.93 140.21,211.93C146.83,211.93 156.67,212.99 156.67,215.93C156.67,218.87 146.83,219.93 140.21,219.93ZM140.21,213.02C130.77,213.02 124.74,214.77 124.74,216.02C124.74,217.27 130.74,219.02 140.21,219.02C149.68,219.02 155.67,217.27 155.67,216.02C155.67,214.77 149.65,213 140.21,213L140.21,213.02Z" style="fill:rgb(35,31,32);fill-rule:nonzero;"/>
        <path d="M151.77,207.44L151.77,213.72C151.77,215.63 144.63,217.17 135.77,217.17C126.91,217.17 119.77,215.63 119.77,213.72L119.77,207.44L151.77,207.44Z" style="fill:white;fill-rule:nonzero;"/>
        <path d="M135.81,217.67C129.19,217.67 119.35,216.67 119.35,213.72L119.35,207.44C119.35,207.166 119.576,206.94 119.85,206.94L151.77,206.94C152.044,206.94 152.27,207.166 152.27,207.44L152.27,213.72C152.27,216.62 142.43,217.67 135.81,217.67ZM120.35,207.94L120.35,213.72C120.35,214.92 126.35,216.67 135.81,216.67C145.27,216.67 151.27,214.92 151.27,213.72L151.27,207.94L120.35,207.94Z" style="fill:rgb(35,31,32);fill-rule:nonzero;"/>
        <ellipse cx="135.81" cy="207.44" rx="15.96" ry="3.46" style="fill:rgb(35,31,32);"/>
        <path d="M135.81,211.4C129.19,211.4 119.35,210.34 119.35,207.4C119.35,204.46 129.19,203.45 135.81,203.45C142.43,203.45 152.27,204.45 152.27,207.4C152.27,210.35 142.43,211.4 135.81,211.4ZM135.81,204.49C126.37,204.49 120.35,206.24 120.35,207.44C120.35,208.64 126.35,210.44 135.81,210.44C145.27,210.44 151.27,208.69 151.27,207.44C151.27,206.19 145.25,204.49 135.81,204.49Z" style="fill:rgb(35,31,32);fill-rule:nonzero;"/>
        <path d="M156.17,200L156.17,206.28C156.17,208.19 149.02,209.73 140.17,209.73C131.32,209.73 124.17,208.19 124.17,206.28L124.17,200L156.17,200Z" style="fill:white;fill-rule:nonzero;"/>
        <path d="M140.21,210.23C133.59,210.23 123.74,209.23 123.74,206.28L123.74,200C123.745,199.728 123.968,199.505 124.24,199.5L156.17,199.5C156.444,199.5 156.67,199.726 156.67,200L156.67,206.28C156.67,209.18 146.83,210.23 140.21,210.23ZM124.74,200.5L124.74,206.28C124.74,207.48 130.74,209.23 140.21,209.23C149.68,209.23 155.67,207.48 155.67,206.28L155.67,200.5L124.74,200.5Z" style="fill:rgb(35,31,32);fill-rule:nonzero;"/>
        <ellipse cx="140.21" cy="200" rx="15.96" ry="3.46" style="fill:white;"/>
        <path d="M140.21,204C133.59,204 123.74,202.94 123.74,200C123.74,197.06 133.59,196.05 140.21,196.05C146.83,196.05 156.67,197.05 156.67,200C156.67,202.95 146.83,204 140.21,204ZM140.21,197.09C130.77,197.09 124.74,198.84 124.74,200.04C124.74,201.24 130.74,203.04 140.21,203.04C149.68,203.04 155.67,201.29 155.67,200.04C155.67,198.79 149.65,197.05 140.21,197.05L140.21,197.09Z" style="fill:rgb(35,31,32);fill-rule:nonzero;"/>
        <path d="M140.21,202.22C138.34,202.22 129.01,202.12 129.01,200C129.01,197.88 138.34,197.78 140.21,197.78C142.08,197.78 151.4,197.89 151.4,200C151.4,202.11 142.08,202.22 140.21,202.22ZM130.08,200C130.81,200.53 134.56,201.22 140.21,201.22C145.86,201.22 149.61,200.53 150.33,200C149.61,199.47 145.85,198.78 140.21,198.78C134.57,198.78 130.81,199.47 130.08,200Z" style="fill:rgb(209,211,212);fill-rule:nonzero;"/>
        <path d="M278.74,211.65L278.74,217.93C278.74,219.83 271.6,221.38 262.74,221.38C253.88,221.38 246.74,219.83 246.74,217.93L246.74,211.65L278.74,211.65Z" style="fill:white;fill-rule:nonzero;"/>
        <path d="M262.78,221.88C256.16,221.88 246.32,220.88 246.32,217.93L246.32,211.65C246.32,211.376 246.546,211.15 246.82,211.15L278.74,211.15C279.014,211.15 279.24,211.376 279.24,211.65L279.24,217.93C279.24,220.83 269.4,221.88 262.78,221.88ZM247.32,212.15L247.32,217.93C247.32,219.13 253.32,220.88 262.78,220.88C272.24,220.88 278.24,219.13 278.24,217.93L278.24,212.15L247.32,212.15Z" style="fill:rgb(35,31,32);fill-rule:nonzero;"/>
        <ellipse cx="262.78" cy="211.65" rx="15.96" ry="3.46" style="fill:rgb(35,31,32);"/>
        <path d="M262.78,215.6C256.16,215.6 246.32,214.6 246.32,211.65C246.32,208.7 256.16,207.65 262.78,207.65C269.4,207.65 279.24,208.71 279.24,211.65C279.24,214.59 269.4,215.6 262.78,215.6ZM262.78,208.69C253.34,208.69 247.32,210.44 247.32,211.69C247.32,212.94 253.32,214.64 262.78,214.64C272.24,214.64 278.24,212.89 278.24,211.69C278.24,210.49 272.22,208.69 262.78,208.69Z" style="fill:rgb(35,31,32);fill-rule:nonzero;"/>
        <path d="M275.94,203.33L275.94,209.6C275.94,211.51 268.8,213.06 259.94,213.06C251.08,213.06 243.94,211.51 243.94,209.6L243.94,203.33L275.94,203.33Z" style="fill:white;fill-rule:nonzero;"/>
        <path d="M260,213.56C253.38,213.56 243.53,212.51 243.53,209.56L243.53,203.29C243.53,203.016 243.756,202.79 244.03,202.79L275.96,202.79C276.234,202.79 276.46,203.016 276.46,203.29L276.46,209.56C276.44,212.51 266.6,213.56 260,213.56ZM244.53,203.83L244.53,209.6C244.53,210.81 250.53,212.6 260,212.6C269.47,212.6 275.46,210.85 275.46,209.6L275.46,203.83L244.53,203.83Z" style="fill:rgb(35,31,32);fill-rule:nonzero;"/>
        <ellipse cx="259.98" cy="203.33" rx="15.96" ry="3.46" style="fill:white;"/>
        <path d="M260,207.28C253.38,207.28 243.53,206.23 243.53,203.33C243.53,200.43 253.38,199.33 260,199.33C266.62,199.33 276.46,200.39 276.46,203.33C276.46,206.27 266.6,207.28 260,207.28ZM260,200.37C250.56,200.37 244.53,202.12 244.53,203.37C244.53,204.62 250.53,206.32 260,206.32C269.47,206.32 275.46,204.57 275.46,203.37C275.46,202.17 269.42,200.37 260,200.37Z" style="fill:rgb(35,31,32);fill-rule:nonzero;"/>
        <path d="M260,205.55C258.13,205.55 248.8,205.44 248.8,203.33C248.8,201.22 258.13,201.11 260,201.11C261.87,201.11 271.2,201.21 271.2,203.33C271.2,205.45 261.85,205.55 260,205.55ZM249.87,203.33C250.6,203.86 254.35,204.55 260,204.55C265.65,204.55 269.4,203.86 270.12,203.33C269.4,202.8 265.65,202.11 260,202.11C254.35,202.11 250.58,202.8 249.85,203.33L249.87,203.33Z" style="fill:rgb(209,211,212);fill-rule:nonzero;"/>
        <path d="M130.88,224.84L130.88,231.11C130.88,233.02 123.74,234.57 114.88,234.57C106.02,234.57 99,233 99,231.11L99,224.84L130.88,224.84Z" style="fill:white;fill-rule:nonzero;"/>
        <path d="M114.92,235.07C108.3,235.07 98.46,234.01 98.46,231.07L98.46,224.8C98.46,224.526 98.686,224.3 98.96,224.3L130.88,224.3C131.154,224.3 131.38,224.526 131.38,224.8L131.38,231.07C131.38,234 121.54,235.07 114.92,235.07ZM99.46,225.34L99.46,231.11C99.46,232.32 105.46,234.11 114.92,234.11C124.38,234.11 130.38,232.36 130.38,231.11L130.38,225.34L99.46,225.34Z" style="fill:rgb(35,31,32);fill-rule:nonzero;"/>
        <ellipse cx="114.92" cy="224.84" rx="15.96" ry="3.46" style="fill:white;"/>
        <path d="M114.92,228.79C108.3,228.79 98.46,227.79 98.46,224.84C98.46,221.89 108.3,220.84 114.92,220.84C121.54,220.84 131.38,221.89 131.38,224.84C131.38,227.79 121.54,228.79 114.92,228.79ZM114.92,221.88C105.48,221.88 99.46,223.63 99.46,224.88C99.46,226.13 105.46,227.83 114.92,227.83C124.38,227.83 130.38,226.08 130.38,224.88C130.38,223.68 124.36,221.88 114.92,221.88Z" style="fill:rgb(35,31,32);fill-rule:nonzero;"/>
        <path d="M114.92,227.06C113.05,227.06 103.72,226.95 103.72,224.84C103.72,222.73 113.05,222.62 114.92,222.62C116.79,222.62 126.12,222.72 126.12,224.84C126.12,226.96 116.79,227.06 114.92,227.06ZM104.8,224.84C105.52,225.37 109.27,226.06 114.92,226.06C120.57,226.06 124.32,225.37 125.04,224.84C124.32,224.31 120.57,223.62 114.92,223.62C109.27,223.62 105.52,224.31 104.8,224.84Z" style="fill:rgb(209,211,212);fill-rule:nonzero;"/>
        <path d="M260.15,220.31L260.15,226.59C260.15,228.5 253,230.04 244.15,230.04C235.3,230.04 228.15,228.5 228.15,226.59L228.15,220.31L260.15,220.31Z" style="fill:white;fill-rule:nonzero;"/>
        <path d="M244.18,230.54C237.56,230.54 227.72,229.54 227.72,226.59L227.72,220.31C227.72,220.036 227.946,219.81 228.22,219.81L260.15,219.81C260.422,219.815 260.645,220.038 260.65,220.31L260.65,226.59C260.65,229.49 250.8,230.54 244.18,230.54ZM228.72,220.81L228.72,226.59C228.72,227.79 234.72,229.54 244.18,229.54C253.64,229.54 259.65,227.79 259.65,226.59L259.65,220.81L228.72,220.81Z" style="fill:rgb(35,31,32);fill-rule:nonzero;"/>
        <ellipse cx="244.18" cy="220.31" rx="15.96" ry="3.46" style="fill:white;"/>
        <path d="M244.18,224.27C237.56,224.27 227.72,223.21 227.72,220.27C227.72,217.33 237.56,216.32 244.18,216.32C250.8,216.32 260.65,217.32 260.65,220.27C260.65,223.22 250.8,224.27 244.18,224.27ZM244.18,217.36C234.74,217.36 228.72,219.11 228.72,220.31C228.72,221.51 234.72,223.31 244.18,223.31C253.64,223.31 259.65,221.56 259.65,220.31C259.65,219.06 253.62,217.36 244.18,217.36Z" style="fill:rgb(35,31,32);fill-rule:nonzero;"/>
        <path d="M244.18,222.53C242.31,222.53 232.99,222.43 232.99,220.31C232.99,218.19 242.31,218.09 244.18,218.09C246.05,218.09 255.38,218.2 255.38,220.31C255.38,222.42 246.05,222.53 244.18,222.53ZM234.06,220.31C234.78,220.84 238.53,221.53 244.18,221.53C249.83,221.53 253.59,220.84 254.31,220.31C253.58,219.78 249.83,219.09 244.18,219.09C238.53,219.09 234.78,219.78 234.06,220.31Z" style="fill:rgb(209,211,212);fill-rule:nonzero;"/>
        <path d="M285.92,225.41L285.92,231.69C285.92,233.6 278.77,235.14 269.92,235.14C261.07,235.14 253.92,233.6 253.92,231.69L253.92,225.41L285.92,225.41Z" style="fill:white;fill-rule:nonzero;"/>
        <path d="M270,235.64C263.38,235.64 253.53,234.64 253.53,231.69L253.53,225.41C253.535,225.138 253.758,224.915 254.03,224.91L285.96,224.91C286.234,224.91 286.46,225.136 286.46,225.41L286.46,231.69C286.42,234.59 276.57,235.64 270,235.64ZM254.53,225.91L254.53,231.69C254.53,232.89 260.53,234.64 270,234.64C279.47,234.64 285.46,232.89 285.46,231.69L285.46,225.91L254.53,225.91Z" style="fill:rgb(35,31,32);fill-rule:nonzero;"/>
        <ellipse cx="269.96" cy="225.41" rx="15.96" ry="3.46" style="fill:white;"/>
        <path d="M270,229.37C263.38,229.37 253.53,228.31 253.53,225.37C253.53,222.43 263.38,221.42 270,221.42C276.62,221.42 286.46,222.42 286.46,225.37C286.46,228.32 276.57,229.37 270,229.37ZM270,222.46C260.56,222.46 254.53,224.21 254.53,225.41C254.53,226.61 260.53,228.41 270,228.41C279.47,228.41 285.46,226.66 285.46,225.41C285.46,224.16 279.39,222.46 270,222.46Z" style="fill:rgb(35,31,32);fill-rule:nonzero;"/>
        <path d="M270,227.63C268.12,227.63 258.8,227.53 258.8,225.41C258.8,223.29 268.12,223.19 270,223.19C271.88,223.19 281.19,223.3 281.19,225.41C281.19,227.52 271.83,227.63 270,227.63ZM259.87,225.41C260.59,225.94 264.35,226.63 270,226.63C275.65,226.63 279.4,225.94 280.12,225.41C279.4,224.88 275.64,224.19 270,224.19C264.36,224.19 260.55,224.88 259.83,225.41L259.87,225.41Z" style="fill:rgb(209,211,212);fill-rule:nonzero;"/>
    </g>
</svg>
