<svg xmlns="http://www.w3.org/2000/svg" viewBox="0 0 400 300"><g id="_188_google_ad_flatline" data-name="#188_google_ad_flatline"><polygon points="342.28 242.39 57.72 242.39 85.58 207.49 314.42 207.49 342.28 242.39" fill="#fff"/><path d="M342.28,242.89H57.72a.5.5,0,0,1-.45-.28.49.49,0,0,1,.06-.53l27.86-34.9a.51.51,0,0,1,.39-.19H314.42a.51.51,0,0,1,.39.19l27.86,34.9a.49.49,0,0,1,.06.53A.5.5,0,0,1,342.28,242.89Zm-283.52-1H341.24L314.17,208H85.83Z" fill="#231f20"/><polygon points="226.54 215 173.46 215 179.7 186.22 220.3 186.22 226.54 215" fill="#fff"/><path d="M226.54,215.5H173.45a.47.47,0,0,1-.38-.19.45.45,0,0,1-.1-.42l6.25-28.78a.49.49,0,0,1,.48-.39h40.6a.49.49,0,0,1,.48.39L227,214.89a.45.45,0,0,1-.1.42A.48.48,0,0,1,226.54,215.5Zm-52.47-1h51.85l-6-27.78H180.11Z" fill="#231f20"/><rect x="162.65" y="213.38" width="74.69" height="6.59" rx="2.47" fill="#fff"/><path d="M234.88,220.46H165.12a3,3,0,0,1-3-3v-1.65a3,3,0,0,1,3-3h69.76a3,3,0,0,1,3,3v1.65A3,3,0,0,1,234.88,220.46Zm-69.76-6.58a2,2,0,0,0-2,2v1.65a2,2,0,0,0,2,2h69.76a2,2,0,0,0,2-2v-1.65a2,2,0,0,0-2-2Z" fill="#231f20"/><polygon points="175.86 203.92 221.96 193.87 220.3 187.81 179.7 187.81 175.86 203.92" fill="#231f20"/><path d="M175.86,204.42a.55.55,0,0,1-.36-.15.51.51,0,0,1-.13-.47l3.84-16.1a.5.5,0,0,1,.49-.38h40.6a.5.5,0,0,1,.48.36l1.66,6.06a.45.45,0,0,1-.06.39.51.51,0,0,1-.32.23l-46.09,10Zm4.24-16.1-3.57,14.94,44.81-9.77-1.42-5.17Z" fill="#231f20"/><rect x="92.78" y="50.51" width="214.43" height="137.31" rx="6.71" fill="#fff"/><path d="M300.5,188.32H99.5a7.23,7.23,0,0,1-7.22-7.22V57.22A7.22,7.22,0,0,1,99.5,50h201a7.22,7.22,0,0,1,7.22,7.21V181.1A7.23,7.23,0,0,1,300.5,188.32ZM99.5,51a6.22,6.22,0,0,0-6.22,6.21V181.1a6.23,6.23,0,0,0,6.22,6.22h201a6.23,6.23,0,0,0,6.22-6.22V57.22A6.22,6.22,0,0,0,300.5,51Z" fill="#231f20"/><path d="M307.22,166.6H92.78a.5.5,0,0,1,0-1H307.22a.5.5,0,0,1,0,1Z" fill="#231f20"/><path d="M299.56,158.19H100.44a.5.5,0,0,1-.5-.5V57a.5.5,0,0,1,.5-.5H299.56a.5.5,0,0,1,.5.5V157.69A.5.5,0,0,1,299.56,158.19Zm-198.62-1H299.06V57.48H100.94Z" fill="#d1d3d4"/><path d="M191.4,114.42H109.31a.5.5,0,0,1-.5-.5.5.5,0,0,1,.5-.5H191.4a.5.5,0,0,1,.5.5A.5.5,0,0,1,191.4,114.42Z" fill="#fff"/><path d="M191.4,121.12H109.31a.5.5,0,0,1-.5-.5.5.5,0,0,1,.5-.5H191.4a.5.5,0,0,1,.5.5A.5.5,0,0,1,191.4,121.12Z" fill="#fff"/><path d="M180,127.83H109.31a.5.5,0,0,1,0-1H180a.5.5,0,0,1,0,1Z" fill="#fff"/><path d="M132.71,149.54h-23.4a.5.5,0,0,1-.5-.5V132.72a.5.5,0,0,1,.5-.5h23.4a.5.5,0,0,1,.5.5V149A.5.5,0,0,1,132.71,149.54Zm-22.9-1h22.4V133.22h-22.4Z" fill="#fff"/><path d="M162.06,149.54H138.65a.5.5,0,0,1-.5-.5V132.72a.5.5,0,0,1,.5-.5h23.41a.5.5,0,0,1,.5.5V149A.5.5,0,0,1,162.06,149.54Zm-22.91-1h22.41V133.22H139.15Z" fill="#fff"/><path d="M191.4,149.54H168a.5.5,0,0,1-.5-.5V132.72a.5.5,0,0,1,.5-.5h23.4a.5.5,0,0,1,.5.5V149A.5.5,0,0,1,191.4,149.54Zm-22.9-1h22.4V133.22H168.5Z" fill="#fff"/><path d="M279.71,76.88H152.33a5.54,5.54,0,1,1,0-11.07H279.71a5.54,5.54,0,1,1,0,11.07ZM152.33,66.81a4.54,4.54,0,1,0,0,9.07H279.71a4.54,4.54,0,1,0,0-9.07Z" fill="#d1d3d4"/><rect x="109.31" y="66.31" width="30.7" height="10.08" rx="3.94" fill="#ff4d42"/><path d="M270,76.88a.5.5,0,0,1-.5-.5V66.31a.5.5,0,0,1,.5-.5.5.5,0,0,1,.5.5V76.38A.5.5,0,0,1,270,76.88Z" fill="#d1d3d4"/><path d="M278.12,73.82a2.93,2.93,0,1,1,2.93-2.93A2.93,2.93,0,0,1,278.12,73.82Zm0-4.85a1.93,1.93,0,1,0,1.93,1.92A1.93,1.93,0,0,0,278.12,69Z" fill="#d1d3d4"/><path d="M272.86,75.17a.5.5,0,0,1-.39-.18.51.51,0,0,1,.07-.71L275.38,72a.5.5,0,1,1,.62.78l-2.83,2.29A.45.45,0,0,1,272.86,75.17Z" fill="#d1d3d4"/><path d="M227.41,93.14H111.25a2,2,0,0,1,0-4H227.41a2,2,0,0,1,0,4Z" fill="#ff4d42"/><path d="M237.1,102.36H111.25a.51.51,0,0,1-.5-.5.5.5,0,0,1,.5-.5H237.1a.5.5,0,0,1,.5.5A.5.5,0,0,1,237.1,102.36Z" fill="#d1d3d4"/><path d="M209.28,113.07h-98a.5.5,0,0,1,0-1h98a.5.5,0,1,1,0,1Z" fill="#d1d3d4"/><path d="M200.87,130.62H111.25a2,2,0,0,1,0-4h89.62a2,2,0,0,1,0,4Z" fill="#ff4d42"/><path d="M237.1,139.83H111.25a.5.5,0,0,1-.5-.5.51.51,0,0,1,.5-.5H237.1a.5.5,0,0,1,.5.5A.5.5,0,0,1,237.1,139.83Z" fill="#d1d3d4"/><path d="M173.06,150.55H111.25a.51.51,0,0,1-.5-.5.5.5,0,0,1,.5-.5h61.81a.5.5,0,0,1,.5.5A.51.51,0,0,1,173.06,150.55Z" fill="#d1d3d4"/><path d="M293.23,124.83H247.35a.51.51,0,0,1-.5-.5V89.25a.5.5,0,0,1,.5-.5h45.88a.5.5,0,0,1,.5.5v35.08A.5.5,0,0,1,293.23,124.83Zm-45.38-1h44.88V89.75H247.85Z" fill="#d1d3d4"/><path d="M293.23,133.22H247.35a.51.51,0,0,1-.5-.5.5.5,0,0,1,.5-.5h45.88a.5.5,0,0,1,.5.5A.5.5,0,0,1,293.23,133.22Z" fill="#d1d3d4"/><path d="M293.23,141.89H247.35a.51.51,0,0,1-.5-.5.5.5,0,0,1,.5-.5h45.88a.5.5,0,0,1,.5.5A.5.5,0,0,1,293.23,141.89Z" fill="#d1d3d4"/><path d="M285.23,150.55H247.35a.5.5,0,0,1-.5-.5.51.51,0,0,1,.5-.5h37.88a.51.51,0,0,1,.5.5A.5.5,0,0,1,285.23,150.55Z" fill="#d1d3d4"/><path d="M280.21,116.93a.5.5,0,0,1-.34-.13l-15.6-14.44a1.8,1.8,0,0,0-2.48,0L247.7,116.05a.5.5,0,0,1-.69-.72l14.08-13.66a2.82,2.82,0,0,1,3.86,0l15.6,14.44a.5.5,0,0,1-.34.86Z" fill="#d1d3d4"/><path d="M293.23,112.87a.52.52,0,0,1-.36-.16l-6.24-6.59a1.67,1.67,0,0,0-1.34-.56,1.76,1.76,0,0,0-1.32.6l-5.48,6.15a.5.5,0,1,1-.74-.66l5.48-6.16a2.81,2.81,0,0,1,2-.93,2.68,2.68,0,0,1,2.08.87l6.23,6.59a.5.5,0,0,1,0,.71A.54.54,0,0,1,293.23,112.87Z" fill="#d1d3d4"/><path d="M276.08,104.12a3.73,3.73,0,1,1,3.73-3.73A3.73,3.73,0,0,1,276.08,104.12Zm0-6.46a2.73,2.73,0,1,0,2.73,2.73A2.72,2.72,0,0,0,276.08,97.66Z" fill="#d1d3d4"/><path d="M200,180.71a4.59,4.59,0,1,1,4.58-4.59A4.59,4.59,0,0,1,200,180.71Zm0-8.17a3.59,3.59,0,1,0,3.58,3.58A3.58,3.58,0,0,0,200,172.54Z" fill="#d1d3d4"/><rect x="244.02" y="143.45" width="79.54" height="49.16" fill="#ff4d42"/><path d="M323.56,193.11H244a.51.51,0,0,1-.5-.5V143.45a.5.5,0,0,1,.5-.5h79.55a.5.5,0,0,1,.5.5v49.16A.51.51,0,0,1,323.56,193.11Zm-79.05-1h78.55V144H244.51Z" fill="#231f20"/><rect x="244.02" y="136.41" width="79.54" height="7.04" fill="#fff"/><path d="M323.56,144H244a.51.51,0,0,1-.5-.5v-7a.5.5,0,0,1,.5-.5h79.55a.5.5,0,0,1,.5.5v7A.51.51,0,0,1,323.56,144Zm-79.05-1h78.55v-6H244.51Z" fill="#231f20"/><rect x="270.86" y="147.03" width="12.45" height="39.02" rx="6.22" transform="translate(433.77 449.3) rotate(-150)" fill="#fff"/><path d="M270.42,184.77a6.65,6.65,0,0,1-3.34-.9h0a6.74,6.74,0,0,1-2.47-9.19l13.29-23a6.72,6.72,0,1,1,11.64,6.72l-13.28,23A6.74,6.74,0,0,1,270.42,184.77ZM267.58,183a5.72,5.72,0,0,0,7.81-2.09l13.29-23a5.72,5.72,0,1,0-9.91-5.72l-13.29,23a5.7,5.7,0,0,0-.57,4.35,5.65,5.65,0,0,0,2.67,3.47Z" fill="#231f20"/><circle cx="270.55" cy="177.71" r="6.34" fill="#fff"/><path d="M270.55,184.55a6.85,6.85,0,1,1,6.84-6.84A6.85,6.85,0,0,1,270.55,184.55Zm0-12.69a5.85,5.85,0,1,0,5.84,5.85A5.86,5.86,0,0,0,270.55,171.86Z" fill="#231f20"/><rect x="284.28" y="147.03" width="12.45" height="39.02" rx="6.22" transform="translate(-44.35 167.56) rotate(-30)" fill="#fff"/><path d="M297.16,184.77a6.89,6.89,0,0,1-1.75-.23,6.72,6.72,0,0,1-4.09-3.13l-13.28-23a6.72,6.72,0,0,1,11.64-6.72l13.29,23a6.74,6.74,0,0,1-2.46,9.19h0A6.68,6.68,0,0,1,297.16,184.77Zm-13.31-35.46a5.72,5.72,0,0,0-5,8.58l13.29,23A5.73,5.73,0,0,0,300,183a5.73,5.73,0,0,0,2.09-7.82l-13.28-23A5.74,5.74,0,0,0,283.85,149.31Zm16.41,34.12h0Z" fill="#231f20"/><path d="M253.34,140.43H247.8a.5.5,0,0,1,0-1h5.54a.5.5,0,0,1,0,1Z" fill="#231f20"/><rect x="57.72" y="242.39" width="284.56" height="7.02" fill="#231f20"/><path d="M342.28,249.91H57.72a.5.5,0,0,1-.5-.5v-7a.5.5,0,0,1,.5-.5H342.28a.5.5,0,0,1,.5.5v7A.5.5,0,0,1,342.28,249.91Zm-284.06-1H341.78v-6H58.22Z" fill="#231f20"/><rect x="72.03" y="46.29" width="67.97" height="61.21" fill="#fff"/><path d="M140,108H72a.51.51,0,0,1-.5-.5V46.29a.5.5,0,0,1,.5-.5h68a.5.5,0,0,1,.5.5V107.5A.51.51,0,0,1,140,108Zm-67.48-1h67V46.79h-67Z" fill="#231f20"/><rect x="88.21" y="87.09" width="10.04" height="11.7" fill="#ff4d42"/><rect x="103.21" y="76.39" width="10.04" height="22.4" fill="#ff4d42"/><rect x="118.2" y="59.89" width="10.04" height="38.9" fill="#ff4d42"/><path d="M133.2,99.28H80.46a.5.5,0,0,1-.5-.5V54a.5.5,0,0,1,.5-.5.5.5,0,0,1,.5.5V98.28H133.2a.5.5,0,0,1,.5.5A.5.5,0,0,1,133.2,99.28Z" fill="#231f20"/><path d="M92.74,82.18l-.5-.06-.47-.18C92.43,79.3,95,70.7,100.3,71a5.54,5.54,0,0,1,4,1.5,5.34,5.34,0,0,0,3.48,1.44c1.73.18,2.68-2.45,3.88-5.81,2.13-6,5-14.09,15-14.09a.5.5,0,0,1,0,1c-9.28,0-12,7.44-14.09,13.42-1.35,3.79-2.41,6.8-4.94,6.48a6.36,6.36,0,0,1-4-1.69,4.57,4.57,0,0,0-3.4-1.25C95.57,71.74,93.17,80.43,92.74,82.18Zm-.5-.06h0Z" fill="#d1d3d4"/><path d="M82.05,213.73v6.6c0,2,7.51,3.64,16.79,3.64s16.79-1.63,16.79-3.64v-6.6Z" fill="#fff"/><path d="M98.84,224.47c-8.59,0-17.29-1.42-17.29-4.14v-6.6a.5.5,0,0,1,.5-.5h33.58a.5.5,0,0,1,.5.5v6.6C116.13,223.05,107.43,224.47,98.84,224.47ZM82.55,214.23v6.1c0,1.28,6.34,3.14,16.29,3.14s16.29-1.86,16.29-3.14v-6.1Z" fill="#231f20"/><ellipse cx="98.84" cy="213.73" rx="16.79" ry="3.63" fill="#231f20"/><path d="M98.84,217.86c-8.59,0-17.29-1.42-17.29-4.13s8.7-4.14,17.29-4.14,17.29,1.42,17.29,4.14S107.43,217.86,98.84,217.86Zm0-7.27c-10,0-16.29,1.86-16.29,3.14s6.34,3.13,16.29,3.13,16.29-1.85,16.29-3.13S108.79,210.59,98.84,210.59Z" fill="#231f20"/><path d="M83.64,205v6.61c0,2,7.52,3.63,16.8,3.63s16.79-1.62,16.79-3.63V205Z" fill="#fff"/><path d="M100.44,215.71c-8.6,0-17.3-1.42-17.3-4.13V205a.51.51,0,0,1,.5-.5h33.59a.5.5,0,0,1,.5.5v6.61C117.73,214.29,109,215.71,100.44,215.71Zm-16.3-10.24v6.11c0,1.28,6.35,3.13,16.3,3.13s16.29-1.85,16.29-3.13v-6.11Z" fill="#231f20"/><ellipse cx="100.44" cy="204.97" rx="16.79" ry="3.63" fill="#231f20"/><path d="M100.44,209.11c-8.6,0-17.3-1.42-17.3-4.14s8.7-4.13,17.3-4.13,17.29,1.42,17.29,4.13S109,209.11,100.44,209.11Zm0-7.27c-10,0-16.3,1.86-16.3,3.13s6.35,3.14,16.3,3.14,16.29-1.86,16.29-3.14S110.38,201.84,100.44,201.84Z" fill="#231f20"/><path d="M81.33,196.22v6.6c0,2,7.52,3.64,16.8,3.64s16.79-1.63,16.79-3.64v-6.6Z" fill="#fff"/><path d="M98.13,207c-8.6,0-17.3-1.42-17.3-4.14v-6.6a.5.5,0,0,1,.5-.5h33.59a.5.5,0,0,1,.5.5v6.6C115.42,205.54,106.72,207,98.13,207Zm-16.3-10.24v6.1c0,1.28,6.35,3.14,16.3,3.14s16.29-1.86,16.29-3.14v-6.1Z" fill="#231f20"/><ellipse cx="98.13" cy="196.22" rx="16.79" ry="3.63" fill="#231f20"/><path d="M98.13,200.36c-8.6,0-17.3-1.42-17.3-4.14s8.7-4.13,17.3-4.13,17.29,1.42,17.29,4.13S106.72,200.36,98.13,200.36Zm0-7.27c-9.95,0-16.3,1.85-16.3,3.13s6.35,3.14,16.3,3.14,16.29-1.86,16.29-3.14S108.07,193.09,98.13,193.09Z" fill="#231f20"/><path d="M86,187.24v6.6c0,2,7.52,3.64,16.79,3.64s16.8-1.63,16.8-3.64v-6.6Z" fill="#fff"/><path d="M102.75,198c-8.59,0-17.29-1.42-17.29-4.14v-6.6a.5.5,0,0,1,.5-.5h33.59a.5.5,0,0,1,.5.5v6.6C120.05,196.56,111.35,198,102.75,198ZM86.46,187.74v6.1c0,1.28,6.35,3.14,16.29,3.14s16.3-1.86,16.3-3.14v-6.1Z" fill="#231f20"/><ellipse cx="102.75" cy="187.24" rx="16.79" ry="3.63" fill="#231f20"/><path d="M102.75,191.38c-8.59,0-17.29-1.42-17.29-4.14s8.7-4.13,17.29-4.13,17.3,1.42,17.3,4.13S111.35,191.38,102.75,191.38Zm0-7.27c-9.94,0-16.29,1.85-16.29,3.13s6.35,3.14,16.29,3.14,16.3-1.86,16.3-3.14S112.7,184.11,102.75,184.11Z" fill="#231f20"/><path d="M81.33,179.41V186c0,2,7.52,3.63,16.8,3.63S114.92,188,114.92,186v-6.61Z" fill="#fff"/><path d="M98.13,190.15c-8.6,0-17.3-1.42-17.3-4.13v-6.61a.51.51,0,0,1,.5-.5h33.59a.5.5,0,0,1,.5.5V186C115.42,188.73,106.72,190.15,98.13,190.15Zm-16.3-10.24V186c0,1.28,6.35,3.13,16.3,3.13s16.29-1.85,16.29-3.13v-6.11Z" fill="#231f20"/><ellipse cx="98.13" cy="179.41" rx="16.79" ry="3.63" fill="#fff"/><path d="M98.13,183.55c-8.6,0-17.3-1.42-17.3-4.14s8.7-4.13,17.3-4.13,17.29,1.42,17.29,4.13S106.72,183.55,98.13,183.55Zm0-7.27c-9.95,0-16.3,1.86-16.3,3.13s6.35,3.14,16.3,3.14,16.29-1.86,16.29-3.14S108.07,176.28,98.13,176.28Z" fill="#231f20"/><path d="M98.13,181.72c-1.21,0-11.76-.06-11.76-2.31s10.55-2.31,11.76-2.31,11.75.07,11.75,2.31S99.33,181.72,98.13,181.72Zm-10.7-2.31c.69.57,4.66,1.31,10.7,1.31s10-.74,10.69-1.31c-.69-.56-4.66-1.31-10.69-1.31S88.12,178.85,87.43,179.41Zm21.47.09h0Z" fill="#d1d3d4"/><path d="M285.8,216.86v6.61c0,2,7.52,3.63,16.79,3.63s16.8-1.63,16.8-3.63v-6.61Z" fill="#fff"/><path d="M302.59,227.6c-8.59,0-17.29-1.42-17.29-4.13v-6.61a.5.5,0,0,1,.5-.5h33.58a.5.5,0,0,1,.5.5v6.61C319.88,226.18,311.18,227.6,302.59,227.6ZM286.3,217.36v6.11c0,1.27,6.34,3.13,16.29,3.13s16.29-1.86,16.29-3.13v-6.11Z" fill="#231f20"/><ellipse cx="302.59" cy="216.86" rx="16.79" ry="3.63" fill="#231f20"/><path d="M302.59,221c-8.59,0-17.29-1.42-17.29-4.14s8.7-4.13,17.29-4.13,17.29,1.42,17.29,4.13S311.18,221,302.59,221Zm0-7.27c-9.95,0-16.29,1.85-16.29,3.13s6.34,3.14,16.29,3.14,16.29-1.86,16.29-3.14S312.54,213.73,302.59,213.73Z" fill="#231f20"/><path d="M283.48,208.11v6.6c0,2,7.52,3.64,16.8,3.64s16.79-1.63,16.79-3.64v-6.6Z" fill="#fff"/><path d="M300.28,218.85c-8.6,0-17.3-1.42-17.3-4.14v-6.6a.5.5,0,0,1,.5-.5h33.59a.5.5,0,0,1,.5.5v6.6C317.57,217.43,308.87,218.85,300.28,218.85ZM284,208.61v6.1c0,1.28,6.35,3.14,16.3,3.14s16.29-1.86,16.29-3.14v-6.1Z" fill="#231f20"/><ellipse cx="300.28" cy="208.11" rx="16.79" ry="3.63" fill="#231f20"/><path d="M300.28,212.24c-8.6,0-17.3-1.42-17.3-4.13s8.7-4.14,17.3-4.14,17.29,1.42,17.29,4.14S308.87,212.24,300.28,212.24Zm0-7.27c-9.95,0-16.3,1.86-16.3,3.14s6.35,3.13,16.3,3.13,16.29-1.85,16.29-3.13S310.22,205,300.28,205Z" fill="#231f20"/><path d="M288.11,199.13v6.6c0,2,7.52,3.64,16.79,3.64s16.8-1.63,16.8-3.64v-6.6Z" fill="#fff"/><path d="M304.9,209.87c-8.59,0-17.29-1.42-17.29-4.14v-6.6a.5.5,0,0,1,.5-.5H321.7a.5.5,0,0,1,.5.5v6.6C322.2,208.45,313.5,209.87,304.9,209.87Zm-16.29-10.24v6.1c0,1.28,6.35,3.14,16.29,3.14s16.3-1.86,16.3-3.14v-6.1Z" fill="#231f20"/><ellipse cx="304.9" cy="199.13" rx="16.79" ry="3.63" fill="#231f20"/><path d="M304.9,203.26c-8.59,0-17.29-1.42-17.29-4.13s8.7-4.13,17.29-4.13,17.3,1.42,17.3,4.13S313.5,203.26,304.9,203.26Zm0-7.26c-9.94,0-16.29,1.85-16.29,3.13s6.35,3.13,16.29,3.13,16.3-1.85,16.3-3.13S314.85,196,304.9,196Z" fill="#231f20"/><path d="M283.48,191.3v6.61c0,2,7.52,3.63,16.8,3.63s16.79-1.63,16.79-3.63V191.3Z" fill="#fff"/><path d="M300.28,202c-8.6,0-17.3-1.42-17.3-4.13V191.3a.51.51,0,0,1,.5-.5h33.59a.5.5,0,0,1,.5.5v6.61C317.57,200.62,308.87,202,300.28,202ZM284,191.8v6.11c0,1.27,6.35,3.13,16.3,3.13s16.29-1.86,16.29-3.13V191.8Z" fill="#231f20"/><ellipse cx="300.28" cy="191.3" rx="16.79" ry="3.63" fill="#fff"/><path d="M300.28,195.44c-8.6,0-17.3-1.42-17.3-4.14s8.7-4.13,17.3-4.13,17.29,1.42,17.29,4.13S308.87,195.44,300.28,195.44Zm0-7.27c-9.95,0-16.3,1.85-16.3,3.13s6.35,3.14,16.3,3.14,16.29-1.86,16.29-3.14S310.22,188.17,300.28,188.17Z" fill="#231f20"/><path d="M300.28,193.61c-1.2,0-11.75-.06-11.75-2.31S299.08,189,300.28,189s11.75.07,11.75,2.31S301.48,193.61,300.28,193.61Zm-10.7-2.31c.69.57,4.66,1.31,10.7,1.31s10-.74,10.69-1.31c-.69-.56-4.65-1.31-10.69-1.31S290.27,190.74,289.58,191.3Zm21.47.08h0Z" fill="#d1d3d4"/><path d="M156.17,216v6.27c0,1.91-7.15,3.46-16,3.46s-16-1.55-16-3.46V216Z" fill="#fff"/><path d="M140.21,226.21c-6.62,0-16.47-1.05-16.47-4V216a.5.5,0,0,1,.5-.5h31.93a.5.5,0,0,1,.5.5v6.27C156.67,225.16,146.83,226.21,140.21,226.21Zm-15.47-9.73v5.77c0,1.21,6,3,15.47,3s15.46-1.75,15.46-3v-5.77Z" fill="#231f20"/><ellipse cx="140.21" cy="215.98" rx="15.96" ry="3.46" fill="#231f20"/><path d="M140.21,219.93c-6.62,0-16.47-1.05-16.47-4s9.85-4,16.47-4,16.46,1.06,16.46,4S146.83,219.93,140.21,219.93Zm0-6.91c-9.44,0-15.47,1.75-15.47,3s6,3,15.47,3,15.46-1.75,15.46-3S149.65,213,140.21,213Z" fill="#231f20"/><path d="M151.77,207.44v6.28c0,1.91-7.14,3.45-16,3.45s-16-1.54-16-3.45v-6.28Z" fill="#fff"/><path d="M135.81,217.67c-6.62,0-16.46-1-16.46-3.95v-6.28a.5.5,0,0,1,.5-.5h31.92a.5.5,0,0,1,.5.5v6.28C152.27,216.62,142.43,217.67,135.81,217.67Zm-15.46-9.73v5.78c0,1.2,6,2.95,15.46,2.95s15.46-1.75,15.46-2.95v-5.78Z" fill="#231f20"/><ellipse cx="135.81" cy="207.44" rx="15.96" ry="3.46" fill="#231f20"/><path d="M135.81,211.4c-6.62,0-16.46-1.06-16.46-4s9.84-3.95,16.46-3.95,16.46,1,16.46,3.95S142.43,211.4,135.81,211.4Zm0-6.91c-9.44,0-15.46,1.75-15.46,2.95s6,3,15.46,3,15.46-1.75,15.46-3S145.25,204.49,135.81,204.49Z" fill="#231f20"/><path d="M156.17,200v6.28c0,1.91-7.15,3.45-16,3.45s-16-1.54-16-3.45V200Z" fill="#fff"/><path d="M140.21,210.23c-6.62,0-16.47-1-16.47-3.95V200a.51.51,0,0,1,.5-.5h31.93a.5.5,0,0,1,.5.5v6.28C156.67,209.18,146.83,210.23,140.21,210.23Zm-15.47-9.73v5.78c0,1.2,6,2.95,15.47,2.95s15.46-1.75,15.46-2.95V200.5Z" fill="#231f20"/><ellipse cx="140.21" cy="200" rx="15.96" ry="3.46" fill="#fff"/><path d="M140.21,204c-6.62,0-16.47-1.06-16.47-4s9.85-3.95,16.47-3.95,16.46,1,16.46,3.95S146.83,204,140.21,204Zm0-6.91c-9.44,0-15.47,1.75-15.47,2.95s6,3,15.47,3,15.46-1.75,15.46-3S149.65,197.05,140.21,197.05Z" fill="#231f20"/><path d="M140.21,202.22c-1.87,0-11.2-.1-11.2-2.22s9.33-2.22,11.2-2.22,11.19.11,11.19,2.22S142.08,202.22,140.21,202.22ZM130.08,200c.73.53,4.48,1.22,10.13,1.22s9.4-.69,10.12-1.22c-.72-.53-4.48-1.22-10.12-1.22S130.81,199.47,130.08,200Z" fill="#d1d3d4"/><path d="M278.74,211.65v6.28c0,1.9-7.14,3.45-16,3.45s-16-1.55-16-3.45v-6.28Z" fill="#fff"/><path d="M262.78,221.88c-6.62,0-16.46-1-16.46-3.95v-6.28a.5.5,0,0,1,.5-.5h31.92a.5.5,0,0,1,.5.5v6.28C279.24,220.83,269.4,221.88,262.78,221.88Zm-15.46-9.73v5.78c0,1.2,6,2.95,15.46,2.95s15.46-1.75,15.46-2.95v-5.78Z" fill="#231f20"/><ellipse cx="262.78" cy="211.65" rx="15.96" ry="3.46" fill="#231f20"/><path d="M262.78,215.6c-6.62,0-16.46-1-16.46-3.95s9.84-4,16.46-4,16.46,1.06,16.46,4S269.4,215.6,262.78,215.6Zm0-6.91c-9.44,0-15.46,1.75-15.46,3s6,2.95,15.46,2.95,15.46-1.75,15.46-2.95S272.22,208.69,262.78,208.69Z" fill="#231f20"/><path d="M275.94,203.33v6.27c0,1.91-7.14,3.46-16,3.46s-16-1.55-16-3.46v-6.27Z" fill="#fff"/><path d="M260,213.56c-6.62,0-16.47-1.05-16.47-4v-6.27a.5.5,0,0,1,.5-.5h31.93a.5.5,0,0,1,.5.5v6.27C276.44,212.51,266.6,213.56,260,213.56Zm-15.47-9.73v5.77c0,1.21,6,3,15.47,3s15.46-1.75,15.46-3v-5.77Z" fill="#231f20"/><ellipse cx="259.98" cy="203.33" rx="15.96" ry="3.46" fill="#fff"/><path d="M260,207.28c-6.62,0-16.47-1.05-16.47-3.95s9.85-4,16.47-4,16.46,1.06,16.46,4S266.6,207.28,260,207.28Zm0-6.91c-9.44,0-15.47,1.75-15.47,3s6,2.95,15.47,2.95,15.46-1.75,15.46-2.95S269.42,200.37,260,200.37Z" fill="#231f20"/><path d="M260,205.55c-1.87,0-11.2-.11-11.2-2.22s9.33-2.22,11.2-2.22,11.2.1,11.2,2.22S261.85,205.55,260,205.55Zm-10.13-2.22c.73.53,4.48,1.22,10.13,1.22s9.4-.69,10.12-1.22c-.72-.53-4.47-1.22-10.12-1.22S250.58,202.8,249.85,203.33Z" fill="#d1d3d4"/><path d="M130.88,224.84v6.27c0,1.91-7.14,3.46-16,3.46S99,233,99,231.11v-6.27Z" fill="#fff"/><path d="M114.92,235.07c-6.62,0-16.46-1.06-16.46-4v-6.27a.5.5,0,0,1,.5-.5h31.92a.5.5,0,0,1,.5.5v6.27C131.38,234,121.54,235.07,114.92,235.07Zm-15.46-9.73v5.77c0,1.21,6,3,15.46,3s15.46-1.75,15.46-3v-5.77Z" fill="#231f20"/><ellipse cx="114.92" cy="224.84" rx="15.96" ry="3.46" fill="#fff"/><path d="M114.92,228.79c-6.62,0-16.46-1-16.46-3.95s9.84-4,16.46-4,16.46,1.05,16.46,4S121.54,228.79,114.92,228.79Zm0-6.91c-9.44,0-15.46,1.75-15.46,3s6,2.95,15.46,2.95,15.46-1.75,15.46-2.95S124.36,221.88,114.92,221.88Z" fill="#231f20"/><path d="M114.92,227.06c-1.87,0-11.2-.11-11.2-2.22s9.33-2.22,11.2-2.22,11.2.1,11.2,2.22S116.79,227.06,114.92,227.06Zm-10.12-2.22c.72.53,4.47,1.22,10.12,1.22s9.4-.69,10.12-1.22c-.72-.53-4.47-1.22-10.12-1.22S105.52,224.31,104.8,224.84Z" fill="#d1d3d4"/><path d="M260.15,220.31v6.28c0,1.91-7.15,3.45-16,3.45s-16-1.54-16-3.45v-6.28Z" fill="#fff"/><path d="M244.18,230.54c-6.62,0-16.46-1-16.46-3.95v-6.28a.5.5,0,0,1,.5-.5h31.93a.51.51,0,0,1,.5.5v6.28C260.65,229.49,250.8,230.54,244.18,230.54Zm-15.46-9.73v5.78c0,1.2,6,2.95,15.46,2.95s15.47-1.75,15.47-2.95v-5.78Z" fill="#231f20"/><ellipse cx="244.18" cy="220.31" rx="15.96" ry="3.46" fill="#fff"/><path d="M244.18,224.27c-6.62,0-16.46-1.06-16.46-4s9.84-3.95,16.46-3.95,16.47,1,16.47,3.95S250.8,224.27,244.18,224.27Zm0-6.91c-9.44,0-15.46,1.75-15.46,2.95s6,3,15.46,3,15.47-1.75,15.47-3S253.62,217.36,244.18,217.36Z" fill="#231f20"/><path d="M244.18,222.53c-1.87,0-11.19-.1-11.19-2.22s9.32-2.22,11.19-2.22,11.2.11,11.2,2.22S246.05,222.53,244.18,222.53Zm-10.12-2.22c.72.53,4.47,1.22,10.12,1.22s9.41-.69,10.13-1.22c-.73-.53-4.48-1.22-10.13-1.22S234.78,219.78,234.06,220.31Z" fill="#d1d3d4"/><path d="M285.92,225.41v6.28c0,1.91-7.15,3.45-16,3.45s-16-1.54-16-3.45v-6.28Z" fill="#fff"/><path d="M270,235.64c-6.62,0-16.47-1-16.47-3.95v-6.28a.51.51,0,0,1,.5-.5h31.93a.5.5,0,0,1,.5.5v6.28C286.42,234.59,276.57,235.64,270,235.64Zm-15.47-9.73v5.78c0,1.2,6,2.95,15.47,2.95s15.46-1.75,15.46-2.95v-5.78Z" fill="#231f20"/><ellipse cx="269.96" cy="225.41" rx="15.96" ry="3.46" fill="#fff"/><path d="M270,229.37c-6.62,0-16.47-1.06-16.47-4s9.85-3.95,16.47-3.95,16.46,1,16.46,3.95S276.57,229.37,270,229.37Zm0-6.91c-9.44,0-15.47,1.75-15.47,2.95s6,3,15.47,3,15.46-1.75,15.46-3S279.39,222.46,270,222.46Z" fill="#231f20"/><path d="M270,227.63c-1.88,0-11.2-.1-11.2-2.22s9.32-2.22,11.2-2.22,11.19.11,11.19,2.22S271.83,227.63,270,227.63Zm-10.13-2.22c.72.53,4.48,1.22,10.13,1.22s9.4-.69,10.12-1.22c-.72-.53-4.48-1.22-10.12-1.22S260.55,224.88,259.83,225.41Z" fill="#d1d3d4"/></g></svg>