<svg id="_011" data-name="011" xmlns="http://www.w3.org/2000/svg" viewBox="0 0 400 300"><ellipse cx="190.23" cy="263.32" rx="108.13" ry="14.19" fill="#d1d3d4"/><path d="M182.53,115s-10.32,1.24-14.11,1.49-7.7,3-8.34,3.54-3.66,4.8-2.65,8.08,5.18,6.44,6.95,6.69,15.93-6.89,19.09-9.42Z" fill="#fff"/><path d="M164.44,135.3h-.13c-2.05-.29-6.34-3.71-7.37-7-1.12-3.64,2.2-8.13,2.82-8.64,0,0,4.31-3.36,8.63-3.64,3.73-.25,14-1.48,14.08-1.49a.51.51,0,0,1,.57.46l.94,10.39a.5.5,0,0,1-.19.45C180.86,128.12,167,135.3,164.44,135.3Zm17.62-19.75c-2.16.26-10.34,1.22-13.61,1.44s-7,2.6-8,3.42c-.47.37-3.43,4.45-2.48,7.53s4.9,6.1,6.52,6.33,14.91-6.45,18.48-9.14Z" fill="#231f20"/><path d="M158.92,128.82s6.91,6,9.18,6.06,1-2.28,1-2.28,2.18,1.71,2.56.29-.1-2-.1-2,1.8,2.46,2.28.66.19-2.37.19-2.37,1.42,2.85,2.08.86-3.22-9-7.1-12.32c0,0,4.54.48,4.92-1.13s-3.69-2.28-5.4-2.37-5,2.08-7.95,2.37a41.32,41.32,0,0,1-7.58-.38l.38,11Z" fill="#fff"/><path d="M168.23,135.4h-.15c-2.31-.09-8.38-5.22-9.41-6.11l-5.48-1.58a.51.51,0,0,1-.38-.48l-.38-11a.57.57,0,0,1,.17-.41.55.55,0,0,1,.42-.12,41.07,41.07,0,0,0,7.46.37,17,17,0,0,0,4.44-1.35,9.86,9.86,0,0,1,3.59-1c.05,0,4.45.27,5.61,1.82a1.39,1.39,0,0,1,.26,1.19c-.32,1.37-2.51,1.6-4,1.6,3.58,3.63,6.9,9.81,6.21,11.89-.22.67-.58,1-1.05,1.06a1.38,1.38,0,0,1-1-.46c0,.26-.11.55-.19.88-.2.75-.61,1-.92,1a1.5,1.5,0,0,1-1.13-.35,6.22,6.22,0,0,1-.13.65,1.17,1.17,0,0,1-.78.88,2,2,0,0,1-1.39-.16,1.52,1.52,0,0,1-.2,1A1.62,1.62,0,0,1,168.23,135.4Zm-14.4-8.59,5.23,1.51a.45.45,0,0,1,.19.11c2.73,2.35,7.34,5.87,8.87,5.93.39,0,.66-.05.74-.19s-.08-1-.26-1.31a.52.52,0,0,1,.77-.66,2.93,2.93,0,0,0,1.63.73s.07,0,.11-.17a2.09,2.09,0,0,0,0-1.54v0a.51.51,0,0,1,.1-.71.52.52,0,0,1,.71.08h0l0,0a3.15,3.15,0,0,0,1.24,1.1,1.67,1.67,0,0,0,.11-.28,4.14,4.14,0,0,0,.21-2,.5.5,0,0,1,.24-.68.53.53,0,0,1,.7.24,3.2,3.2,0,0,0,1,1.27,2.9,2.9,0,0,0,.15-.35c.53-1.57-3-8.36-6.95-11.75a.52.52,0,0,1-.14-.6.52.52,0,0,1,.53-.31c1.72.18,4.19,0,4.37-.74a.38.38,0,0,0-.08-.33c-.61-.81-3.25-1.32-4.85-1.4a9.23,9.23,0,0,0-3.14.94,17.92,17.92,0,0,1-4.73,1.42,37.7,37.7,0,0,1-7.09-.3Z" fill="#231f20"/><path d="M175.5,116a31.61,31.61,0,0,0-4.35.12c-2.62.25-5.44,1-7.05,3.06a.9.9,0,0,0-.24.82c.12.29.48.38.78.43a23.19,23.19,0,0,0,6.55.08,1.82,1.82,0,0,1,.9,0,2.08,2.08,0,0,1,.61.42,5.25,5.25,0,0,0,3.05,1.2" fill="#fff"/><path d="M175.75,122.62h0a5.68,5.68,0,0,1-3.36-1.32l-.09-.07a1.48,1.48,0,0,0-.37-.26,1.39,1.39,0,0,0-.64,0,23.57,23.57,0,0,1-6.71-.08,1.42,1.42,0,0,1-1.17-.74,1.32,1.32,0,0,1,.3-1.34c1.42-1.85,3.85-2.91,7.41-3.25a32.63,32.63,0,0,1,4.42-.12.51.51,0,0,1,.49.53.55.55,0,0,1-.54.5,32.1,32.1,0,0,0-4.27.11c-3.26.32-5.45,1.25-6.69,2.86-.17.23-.17.32-.17.32s.06.06.38.11a22.5,22.5,0,0,0,6.4.08,2.26,2.26,0,0,1,1.15,0,2.18,2.18,0,0,1,.68.45,4.77,4.77,0,0,0,2.83,1.14.53.53,0,0,1,.49.55A.52.52,0,0,1,175.75,122.62Z" fill="#231f20"/><path d="M269.79,251.33s.81,5.26-.4,7.28-2.3,4.59-2.83,9.31a10.5,10.5,0,0,0,7.68,3.5c4.86,0,9.71-3.64,10.25-5.39s-3.91-20.36-3.91-20.36Z" fill="#fff"/><path d="M274.24,271.94a11,11,0,0,1-8.09-3.7.58.58,0,0,1-.11-.38c.58-5.09,1.8-7.67,2.9-9.51.92-1.53.56-5.53.34-6.94a.53.53,0,0,1,.27-.54l10.79-5.66a.51.51,0,0,1,.45,0,.49.49,0,0,1,.29.35c.75,3.13,4.46,18.83,3.9,20.63S279.33,271.94,274.24,271.94Zm-7.15-4.19a10.12,10.12,0,0,0,7.15,3.16c4.66,0,9.31-3.58,9.76-5,.31-1-1.68-10.66-3.77-19.45l-9.88,5.19c.17,1.26.59,5.4-.52,7.26S267.66,263,267.09,267.75Z" fill="#231f20"/><path d="M236.24,136.78l23.38,6.47,5.44-71s-21.35,3.51-26,5.66S236.24,136.78,236.24,136.78Z" fill="#fff"/><path d="M259.62,143.77l-.14,0-23.37-6.47a.52.52,0,0,1-.38-.48c0-.14-.47-14.36-.36-28.66.23-29.23,2.56-30.31,3.44-30.71,4.69-2.17,25.29-5.56,26.16-5.71a.51.51,0,0,1,.6.55l-5.44,71a.51.51,0,0,1-.22.39A.5.5,0,0,1,259.62,143.77Zm-22.87-7.39,22.4,6.21,5.34-69.74c-3.6.61-21.14,3.62-25.24,5.51C236.43,79.67,235.85,109.15,236.75,136.38Z" fill="#231f20"/><path d="M244,243.87v15.82l-7.55,2.16.18-3.24L233.25,262s-20.29,3.64-20.19.94,2.16-4.18,4.72-5.53c2.75-1.44,10-5.53,10-5.53l1.08-11.59" fill="#fff"/><path d="M216.83,264.47c-1.89,0-3.34-.19-3.9-.68a1,1,0,0,1-.38-.84c.12-3,2.47-4.64,5-6s8.47-4.68,9.73-5.39l1.06-11.33a.51.51,0,1,1,1,.09L228.28,252a.53.53,0,0,1-.26.4c-.08,0-7.27,4.11-10,5.54s-4.35,2.76-4.44,5.09c.55,1,9.42.34,19.42-1.44l3.3-3.3a.49.49,0,0,1,.57-.11.52.52,0,0,1,.31.5l-.14,2.51,6.48-1.85V243.87a.52.52,0,1,1,1,0v15.82a.53.53,0,0,1-.37.5l-7.56,2.15a.51.51,0,0,1-.46-.09.5.5,0,0,1-.19-.43l.1-1.89-2.46,2.46a.49.49,0,0,1-.27.15C231.1,262.94,222.19,264.47,216.83,264.47Z" fill="#231f20"/><path d="M280.3,143.16l6.35,107.09s-.6,4.39-10.13,4.93-8.57-1.69-8.57-1.69l-15-75.08-6.12,69.94-20.57,1.27,4.09-115Z" fill="#231f20"/><path d="M273.81,255.76c-3.43,0-5.5-.47-6.16-1.42a1.21,1.21,0,0,1-.21-.87l-14.28-71.55-5.81,66.47a.5.5,0,0,1-.47.46l-20.57,1.27a.53.53,0,0,1-.38-.14.54.54,0,0,1-.15-.38l4.09-115a.48.48,0,0,1,.19-.36.47.47,0,0,1,.39-.11l49.93,8.57a.49.49,0,0,1,.41.46l6.36,107.09c0,.29-.78,4.9-10.6,5.46C275.55,255.73,274.64,255.76,273.81,255.76Zm-5.4-2.09a1,1,0,0,0,.1.15c.34.38,1.79,1.21,8,.86,8.45-.47,9.56-4.05,9.66-4.46l-6.33-106.63-49-8.41-4,113.91,19.59-1.21,6.08-69.52a.49.49,0,0,1,.47-.45.49.49,0,0,1,.51.4l15,75.08a.48.48,0,0,1,0,.29Z" fill="#231f20"/><path d="M261.42,70.07s-8.1,74.89-4.5,79.57,19.69,10.87,26.88,5.12S282.18,81.31,279,76.28A71.85,71.85,0,0,0,261.42,70.07Z" fill="#0064ff"/><path d="M291.47,167.47s-1-6.39-.43-7,14.87-1,16-.87,1.32,6.78,1.32,6.78l-2.13.21s.23-4.33-.56-4.52-12.4.16-12.4.16l.62,5.22Z" fill="#231f20"/><path d="M291.47,168a.5.5,0,0,1-.49-.42c-.7-4.41-.8-6.9-.29-7.42.89-.9,16.29-1,16.44-1,1.08.08,1.68,2.53,1.78,7.27a.52.52,0,0,1-.45.51l-2.13.21a.5.5,0,0,1-.39-.14.47.47,0,0,1-.16-.38,12.3,12.3,0,0,0-.25-4c-.93-.1-7.35,0-11.66.17l.56,4.68a.51.51,0,0,1-.12.39.48.48,0,0,1-.37.17h-2.47Zm-.06-7.11a28.52,28.52,0,0,0,.49,6.11h1.48l-.56-4.66a.51.51,0,0,1,.12-.38.46.46,0,0,1,.36-.17c1.95-.06,11.73-.36,12.54-.16.28.07,1.12.27,1,4.46l1.1-.11c-.1-2.92-.5-5.55-.92-5.86C305.77,160,293,160.38,291.41,160.86Z" fill="#231f20"/><path d="M294.51,150.94a31.31,31.31,0,0,0-2.85,6.07,5.57,5.57,0,0,0,.09,3.4l3.33-.54s-.49,6.5.55,6.5,2.66.79,2.56-4.23c0,0,.45,1.92,2.15,1.17a3.9,3.9,0,0,0,2.13-2s1.49,2.42,3-.24-.95-10.19-.95-10.19l-.24-3.62-10.19.28Z" fill="#fff"/><path d="M296.45,166.93c-.17,0-.33,0-.48,0l-.34,0a.85.85,0,0,1-.58-.26c-.74-.79-.65-4.17-.53-6.14l-2.68.43a.52.52,0,0,1-.55-.28,6,6,0,0,1-.13-3.74,29.74,29.74,0,0,1,2.82-6.07l-.37-3.22a.52.52,0,0,1,.12-.4.55.55,0,0,1,.38-.18l10.19-.27c.25-.06.51.2.53.48l.23,3.55c.26.79,2.46,7.81.88,10.54-.57,1-1.23,1.5-2,1.51a1.94,1.94,0,0,1-1.42-.62,4.83,4.83,0,0,1-2,1.57,1.91,1.91,0,0,1-1.71,0l-.17-.09a4,4,0,0,1-.92,2.72A1.8,1.8,0,0,1,296.45,166.93Zm-.69-1.08.3,0c.46,0,.76,0,1-.17s.67-1.15.62-3.55a.52.52,0,0,1,.46-.52.51.51,0,0,1,.56.39,1.5,1.5,0,0,0,.61.88,1,1,0,0,0,.83-.06,3.3,3.3,0,0,0,1.85-1.71.53.53,0,0,1,.93-.1c.12.21.58.77,1,.77s.83-.54,1.09-1c1.17-2-.32-7.74-1-9.77a.51.51,0,0,1,0-.13l-.21-3.12-9.13.25.32,2.84a.52.52,0,0,1-.07.32,31.58,31.58,0,0,0-2.79,5.93,5.78,5.78,0,0,0-.05,2.7l2.88-.47a.48.48,0,0,1,.43.13.52.52,0,0,1,.17.42C295.41,162.36,295.44,165.25,295.76,165.85Z" fill="#231f20"/><polygon points="284.24 168.06 277.89 168.83 280.68 200.98 287.48 201.54 284.24 168.06" fill="#fff"/><path d="M287.48,202.05h0l-6.8-.55a.51.51,0,0,1-.47-.47l-2.79-32.16a.5.5,0,0,1,.45-.55l6.35-.78a.58.58,0,0,1,.38.11.52.52,0,0,1,.19.36L288,201.49a.5.5,0,0,1-.51.56Zm-6.32-1.55,5.75.47-3.13-32.34-5.33.65Z" fill="#231f20"/><path d="M284.24,168.06c-.15.44,3.24,33.48,3.24,33.48l30.41-3.13-2.05-32.3Z" fill="#fff"/><path d="M287.48,202.05a.57.57,0,0,1-.33-.11.54.54,0,0,1-.18-.35c-3.4-33.15-3.27-33.56-3.22-33.69a.5.5,0,0,1,.46-.36l31.6-1.95a.52.52,0,0,1,.55.48l2.05,32.31a.51.51,0,0,1-.46.54l-30.42,3.13Zm-2.71-33.51c.2,3,1.94,20.39,3.17,32.43l29.41-3-2-31.3Z" fill="#231f20"/><path d="M291.64,179.71a.52.52,0,0,1-.43-.23l-7.4-11.14a.52.52,0,0,1,.86-.57l7.23,10.88,19.31-1.51,4.15-11.21a.51.51,0,0,1,.66-.31.52.52,0,0,1,.31.67l-4.27,11.51a.52.52,0,0,1-.44.34l-19.94,1.57Z" fill="#231f20"/><rect x="301.23" y="175.85" width="2.95" height="5.91" transform="translate(-17.68 34.04) rotate(-6.25)" fill="#d1d3d4"/><path d="M229.05,76.55s-8.63,76.32-6.47,78.48,11.69-.54,14.92-2.7S245.44,71,245.44,71,233.73,72.59,229.05,76.55Z" fill="#0064ff"/><path d="M229.05,76.55s-15.3,32-22.52,34.25c-10.79,3.37-26,3.1-26,3.1l1.22,16.18s19.6,2.74,30.74-.13,23.06-19.06,23.06-19.06Z" fill="#0064ff"/><polygon points="247.98 81.98 250.09 85.04 242.49 130.67 247.35 136.87 253.55 131.48 252.2 85.54 254.58 82.21 251.57 80.05 247.98 81.98" fill="#d1d3d4"/><path d="M223.12,134.51h-.05a.53.53,0,0,1-.47-.56c.71-8.53,3.93-43.17,4-43.52a.52.52,0,0,1,1,.1c0,.35-3.25,35-4,43.51A.51.51,0,0,1,223.12,134.51Z" fill="#231f20"/><path d="M246,65.08l-1.17,9.85s.75,4.65,7.52,3.9,8.32-5.15,8.32-5.15l1.52-18.44s-3.78-3.33-1-13.72c0,0-10.54,1.83-20.15-.66,0,0-1.66,12-1.52,17.14S246,65.08,246,65.08Z" fill="#fff"/><path d="M251,79.43c-5.84,0-6.61-4.37-6.62-4.42v-.14l1.12-9.43c-1.47-.54-6.3-2.67-6.43-7.43-.15-5.17,1.45-16.73,1.52-17.22a.49.49,0,0,1,.23-.35.5.5,0,0,1,.41-.08C250.6,42.8,261,41,261.15,41a.49.49,0,0,1,.46.16.5.5,0,0,1,.12.48c-2.67,10,.8,13.17.84,13.2a.54.54,0,0,1,.17.43l-1.52,18.44a.28.28,0,0,1,0,.13c-.06.19-1.73,4.71-8.74,5.49A12.86,12.86,0,0,1,251,79.43Zm-5.58-4.52c.11.53,1.11,4,6.93,3.41,6-.67,7.66-4.24,7.87-4.76l1.49-18.13c-.75-.85-3.31-4.5-1.15-13.28-2.57.35-11.08,1.27-19-.65-.33,2.44-1.57,12-1.44,16.48.13,4.75,6,6.59,6.11,6.61a.53.53,0,0,1,.37.55Z" fill="#231f20"/><path d="M259.18,54.32a4.36,4.36,0,0,1,1.75-2.11,7.53,7.53,0,0,1,2.45-.86,3.26,3.26,0,0,1,1.42-.08,2.69,2.69,0,0,1,.89.46,3.32,3.32,0,0,1,1.37,1.87,4,4,0,0,1-.15,1.88,7.91,7.91,0,0,1-.76,1.94,5.24,5.24,0,0,1-7.24,1.83" fill="#fff"/><path d="M261.63,60.52a5.79,5.79,0,0,1-3-.83.51.51,0,0,1-.17-.7.51.51,0,0,1,.71-.18,4.72,4.72,0,0,0,6.52-1.65,7.11,7.11,0,0,0,.71-1.81,3.43,3.43,0,0,0,.15-1.64,2.92,2.92,0,0,0-1.18-1.56,2.16,2.16,0,0,0-.71-.38,2.86,2.86,0,0,0-1.18.08,7.12,7.12,0,0,0-2.29.8,3.8,3.8,0,0,0-1.53,1.85.52.52,0,0,1-.67.3.52.52,0,0,1-.3-.67,4.87,4.87,0,0,1,2-2.36,8.21,8.21,0,0,1,2.61-.93,3.67,3.67,0,0,1,1.65-.07,3,3,0,0,1,1.08.55,3.85,3.85,0,0,1,1.57,2.16,4.62,4.62,0,0,1-.16,2.14,8.17,8.17,0,0,1-.82,2.06A5.8,5.8,0,0,1,263,60.35,5.55,5.55,0,0,1,261.63,60.52Z" fill="#231f20"/><path d="M245.06,49.29s-4.26,4.56-3.59,5.58,3,.8,3,.8" fill="#fff"/><path d="M244,56.2c-.84,0-2.32-.14-2.92-1.06C240.28,54,243,50.76,244.7,49a.49.49,0,0,1,.7,0,.51.51,0,0,1,0,.71c-2,2.13-3.65,4.46-3.53,5,.37.55,1.89.62,2.57.56a.51.51,0,0,1,.54.45.5.5,0,0,1-.45.54A5.08,5.08,0,0,1,244,56.2Z" fill="#231f20"/><ellipse cx="248.52" cy="47.64" rx="1.21" ry="0.86" transform="matrix(0.37, -0.93, 0.93, 0.37, 112.92, 261.29)" fill="#231f20"/><ellipse cx="242.87" cy="46.75" rx="1.21" ry="0.86" transform="translate(110.18 255.47) rotate(-68.45)" fill="#231f20"/><path d="M243,58l4.47.29s.29,3.23-2.13,3.81S243,58,243,58Z" fill="#fff"/><path d="M244.93,62.62a1.76,1.76,0,0,1-1.13-.39c-1.33-1.06-1.32-3.94-1.32-4.27a.52.52,0,0,1,.16-.36.56.56,0,0,1,.37-.13l4.47.3a.49.49,0,0,1,.47.45c.11,1.26-.27,3.79-2.51,4.34A2.35,2.35,0,0,1,244.93,62.62Zm-1.43-4.11c.05.92.27,2.42.92,2.94a.89.89,0,0,0,.79.14c1.51-.37,1.73-2.05,1.75-2.86Z" fill="#231f20"/><path d="M269,52.26a.54.54,0,0,1-.21,0,.51.51,0,0,1-.26-.68,22.05,22.05,0,0,0,2.29-8.61,9.58,9.58,0,0,0-3.32-7.72c-1.27-1-3.3-1.61-4.77-.67a.51.51,0,0,1-.79-.47,2.46,2.46,0,0,0-.92-1.74c-4.3-4.41-11.13-4.82-16.95-4.51a10.64,10.64,0,0,1,1.56,1.72.53.53,0,0,1,0,.53.51.51,0,0,1-.43.29,21.13,21.13,0,0,1-9.3-1.56A24.84,24.84,0,0,0,238,35.94a.51.51,0,0,1-.61.71,11.08,11.08,0,0,1-6.12-4.54,14.1,14.1,0,0,0,4.55,12.28.5.5,0,0,1,0,.72.51.51,0,0,1-.73,0,15.06,15.06,0,0,1-4.61-14.66.51.51,0,0,1,.45-.39.54.54,0,0,1,.52.3,10,10,0,0,0,5.08,4.86A25.61,25.61,0,0,1,234.8,28a.52.52,0,0,1,.73-.52,20,20,0,0,0,8.62,1.87,9.71,9.71,0,0,0-1.78-1.54.52.52,0,0,1,.25-.95c6.31-.45,14.18-.33,19.12,4.74a4.2,4.2,0,0,1,1.11,1.71,5.62,5.62,0,0,1,5.26,1.08,10.61,10.61,0,0,1,3.72,8.54,22.88,22.88,0,0,1-2.38,9A.52.52,0,0,1,269,52.26Z" fill="#231f20"/><path d="M246,65.08s5.13.5,7.64-.67c0,0-2.54,5.66-8.24,6.61Z" fill="#231f20"/><path d="M245.44,71.51a.47.47,0,0,1-.34-.13.47.47,0,0,1-.16-.41l.61-5.94a.49.49,0,0,1,.54-.44s5,.47,7.39-.63a.47.47,0,0,1,.55.1.49.49,0,0,1,.11.55c-.11.24-2.72,5.92-8.62,6.9Zm1.05-5.89L246,70.4a11.39,11.39,0,0,0,6.62-5.11A22.83,22.83,0,0,1,246.49,65.62Z" fill="#231f20"/><path d="M278.57,76S290,81.46,295.94,96.77s11.22,50.9,11.22,50.9l-17.86,1.55s-2.33-37.14-15-54.84Z" fill="#0064ff"/><path d="M227.43,144.58a.51.51,0,0,1-.39-.19.5.5,0,0,1,.06-.72l8.82-7.29a.51.51,0,0,1,.72.07.52.52,0,0,1-.07.73l-8.81,7.28A.5.5,0,0,1,227.43,144.58Z" fill="#231f20"/><path d="M277.06,144.58a.47.47,0,0,1-.28-.09c-3.51-2.3-11.7-7.77-12.08-8.89a.53.53,0,0,1,.33-.66.51.51,0,0,1,.64.31c.44.74,6.27,4.84,11.67,8.38a.52.52,0,0,1,.15.72A.51.51,0,0,1,277.06,144.58Z" fill="#231f20"/><path d="M260.16,109.16a.5.5,0,0,1-.24-.06.52.52,0,0,1-.22-.7l7.89-14.9-5.95-4.59a.52.52,0,0,1-.2-.39.51.51,0,0,1,.17-.4c.2-.18,4.6-4.12,5.77-5.09-.41-.89-3.13-3.91-5.61-6.39a.52.52,0,0,1,.73-.73c2.26,2.26,6,6.21,6,7.3a.68.68,0,0,1-.26.49c-.51.38-3.55,3.09-5.44,4.77l5.8,4.48a.51.51,0,0,1,.14.65l-8.09,15.28A.5.5,0,0,1,260.16,109.16Zm7.27-26h0Z" fill="#231f20"/><path d="M240.92,103.22a.52.52,0,0,1-.46-.27l-6.83-13.13a.5.5,0,0,1,.18-.67l5.81-3.71-4.74-3.16a.51.51,0,0,1-.08-.79L241.27,75a.52.52,0,0,1,.73.73l-6,6L240.85,85a.52.52,0,0,1,.23.43.54.54,0,0,1-.24.43l-6.08,3.88,6.62,12.71a.53.53,0,0,1-.22.7A.69.69,0,0,1,240.92,103.22Z" fill="#231f20"/><path d="M252.79,182a.5.5,0,0,1-.5-.42c-.16-1-4-25.19-3.78-29.78a.5.5,0,0,1,1,.06c-.27,4.48,3.73,29.31,3.77,29.56a.5.5,0,0,1-.42.57Z" fill="#fff"/><path d="M289.46,147.73a.51.51,0,0,1-.5-.42l-11.6-57.45a.51.51,0,0,1,.41-.6.5.5,0,0,1,.6.4L290,147.11a.5.5,0,0,1-.4.6Z" fill="#231f20"/><path d="M130.83,201.76l-1.89,44.58s18.16,10.8,17.34,11.93-32.61-4.47-32.61-4.47l2.14-51.5" fill="#fff"/><path d="M145.1,258.84c-3.83,0-14.39-1.51-31.52-4.53a.51.51,0,0,1-.43-.53l2.14-51.5a.52.52,0,0,1,.54-.49.51.51,0,0,1,.49.54l-2.12,51c11,1.93,28.11,4.66,31.34,4.55-1.56-1.62-9.44-6.72-16.86-11.13a.53.53,0,0,1-.25-.47l1.89-44.58a.51.51,0,0,1,.53-.5.52.52,0,0,1,.5.54l-1.88,44.28c5.31,3.16,17,10.29,17.33,12a.61.61,0,0,1-.11.54Q146.5,258.84,145.1,258.84Z" fill="#231f20"/><path d="M135.19,247.83l-5.88,5.31-16.88-2.35,0,6.7s37.27,4.92,39,1.83S135.19,247.83,135.19,247.83Z" fill="#231f20"/><path d="M118.67,211.21l-1.88,44.59s18.15,10.8,17.33,11.92-32.61-4.46-32.61-4.46l2.14-51.5" fill="#fff"/><path d="M132.94,268.3c-3.83,0-14.39-1.52-31.52-4.53a.52.52,0,0,1-.43-.53l2.14-51.5a.54.54,0,0,1,.54-.5.52.52,0,0,1,.5.54l-2.13,51c11,1.93,28.1,4.66,31.34,4.54-1.56-1.62-9.43-6.71-16.86-11.13a.53.53,0,0,1-.25-.47l1.89-44.58a.52.52,0,0,1,1,0l-1.88,44.28c5.31,3.16,17,10.29,17.34,12a.7.7,0,0,1-.11.55C134.4,268.21,133.87,268.3,132.94,268.3Zm.89-1Z" fill="#231f20"/><path d="M122.88,257.21l-5.76,5.44-16.93-2,.12,6.69s37.37,4.08,39,.95S122.88,257.21,122.88,257.21Z" fill="#231f20"/><path d="M139.6,129.83c1.46,9.94-6,108.27-6,108.27a138,138,0,0,1-32.37-.54c-8.56-17.77-17.62-73.36-15.1-86.31s8.63-26.43,8.63-26.43S139.65,130.19,139.6,129.83Z" fill="#231f20"/><path d="M139.69,134.89s4.94-52.77,2.52-56.73c-8.13-13.27-50.35-12.85-53.94-.27-2.83,9.9,2.15,50.71,2.15,50.71Z" fill="#0064ff"/><path d="M113.44,124.82s30,6.48,41,4.5l2.7-14s-34.88-4.85-37.58-6.65-2.88-20.14-2.88-20.14-8.45,1.8-10.6,6.3S101.93,120,113.44,124.82Z" fill="#0064ff"/><path d="M109.48,73c-.74.43,17.53,31,17.53,31L121.1,72.37S116.49,69,109.48,73Z" fill="#fff"/><path d="M146.25,131h0c-.49,0-49-3.61-49.84-33.67a.51.51,0,0,1,.5-.53.5.5,0,0,1,.53.5c.79,29.13,48.4,32.64,48.88,32.67a.52.52,0,0,1,0,1Z" fill="#231f20"/><path d="M109.48,73c-.56-6.74-1-12.67-1.52-19.41-.17-2.49-.44-5-.51-7.49-.1-3.61,1.47-2.77,5-2.8q.38-3.48,1.06-6.9l1.73,5.71c5.39-1.52,16.59,0,16.59,0s1.13,10.86-.3,16c-2.06,7.42-11.7,5.79-11.7,5.79l1.25,8.47s.36,2.78-3,3.73C113.24,77.47,109.48,73,109.48,73Z" fill="#fff"/><path d="M116.2,76.88a9.3,9.3,0,0,1-5.51-2s-1.63-1.24-1.72-1.76h0c-.54-6.46-1-12.56-1.52-19.42-.06-.79-.12-1.59-.19-2.39-.14-1.68-.28-3.41-.33-5.12,0-1.43.17-2.26.7-2.78.69-.68,1.72-.64,3.15-.58.38,0,.78,0,1.23,0,.25-2.17.59-4.35,1-6.48a.51.51,0,0,1,1-.05l1.58,5.23c5.57-1.32,15.86,0,16.3.06a.52.52,0,0,1,.45.46c0,.45,1.13,11-.32,16.21-1.82,6.57-9.26,6.45-11.58,6.24l1.15,7.8s.38,3.25-3.36,4.3A7.51,7.51,0,0,1,116.2,76.88ZM110,72.82c.62.67,3.93,3.93,8,2.78,2.86-.81,2.63-3.08,2.62-3.17L119.34,64a.51.51,0,0,1,.15-.44.5.5,0,0,1,.45-.14c.37.06,9.2,1.46,11.11-5.42,1.23-4.44.51-13.4.32-15.41-2.05-.24-11.32-1.23-16,.08a.5.5,0,0,1-.63-.34l-1.12-3.69c-.27,1.59-.5,3.19-.67,4.78a.52.52,0,0,1-.51.46c-.63,0-1.21,0-1.73,0-1.17,0-2-.08-2.39.28a3,3,0,0,0-.39,2c.05,1.68.19,3.4.33,5.06.06.81.13,1.61.19,2.41C109,60.38,109.45,66.43,110,72.82Zm0,.22h0Z" fill="#231f20"/><path d="M119.85,63.9s-4-.5-5.95-2.47c0,0,2.63,6.57,6.68,7.56Z" fill="#231f20"/><path d="M120.58,69.67a.44.44,0,0,1-.16,0c-4.35-1.05-7-7.68-7.16-8a.69.69,0,0,1,1.12-.74c1.79,1.79,5.52,2.27,5.56,2.28a.68.68,0,0,1,.59.58l.73,5.09a.68.68,0,0,1-.68.78Zm-4.94-6.27a11.75,11.75,0,0,0,4.1,4.54l-.5-3.44A15.91,15.91,0,0,1,115.64,63.4Z" fill="#231f20"/><path d="M109.5,50.9a4.71,4.71,0,0,0-3.36-3.61,2.76,2.76,0,0,0-2.27.25,3,3,0,0,0-1,2.8,6.45,6.45,0,0,0,6.53,6" fill="#fff"/><path d="M109.28,56.86a7,7,0,0,1-7-6.48,3.52,3.52,0,0,1,1.26-3.27,3.35,3.35,0,0,1,2.71-.32,5.24,5.24,0,0,1,3.73,4,.51.51,0,0,1-1,.19,4.27,4.27,0,0,0-3-3.2,2.24,2.24,0,0,0-1.85.18,2.7,2.7,0,0,0-.82,2.34,5.94,5.94,0,0,0,6,5.51.52.52,0,1,1,0,1Z" fill="#231f20"/><ellipse cx="129.71" cy="44.54" rx="1.23" ry="0.66" transform="translate(78.78 171.88) rotate(-87.15)" fill="#231f20"/><ellipse cx="123.63" cy="45.38" rx="1.23" ry="0.66" transform="translate(72.16 166.61) rotate(-87.15)" fill="#231f20"/><path d="M129.82,57.57A9.75,9.75,0,0,1,127,58.8c-1.33.35-2.94.34-3.86-.68a4.4,4.4,0,0,1-.82-1.56" fill="#fff"/><path d="M125.49,59.52a3.52,3.52,0,0,1-2.7-1.05,5.1,5.1,0,0,1-.92-1.73.52.52,0,0,1,1-.36,4.42,4.42,0,0,0,.72,1.4c1,1,2.8.66,3.34.52a9.31,9.31,0,0,0,2.64-1.16.51.51,0,1,1,.56.86,10.13,10.13,0,0,1-2.93,1.3A6.77,6.77,0,0,1,125.49,59.52Z" fill="#231f20"/><path d="M128.46,46.84s5.56,6.33,4.19,7.69-4.58.68-4.58.68" fill="#fff"/><path d="M129.83,55.9a10.11,10.11,0,0,1-1.86-.18.52.52,0,0,1,.21-1c.82.17,3.15.41,4.11-.54.53-.54-1.48-3.87-4.22-7a.53.53,0,0,1,.05-.73.51.51,0,0,1,.73,0c1.77,2,5.71,6.86,4.17,8.4A4.57,4.57,0,0,1,129.83,55.9Z" fill="#231f20"/><path d="M139.51,113.47h-.13c-16.74-4.36-25.48-13.1-29.87-19.67a33.82,33.82,0,0,1-5.57-13.41.51.51,0,0,1,.44-.57.52.52,0,0,1,.58.45c0,.24,3.32,24,34.68,32.2a.51.51,0,0,1-.13,1Z" fill="#231f20"/><path d="M97.21,63.56a.47.47,0,0,1-.3-.1.52.52,0,0,1-.22-.41l-.11-15.34c0-4.61-.07-9.84,2-14.42,1.27-2.87,3.8-6.32,7.08-7.4a6.43,6.43,0,0,1,5.14.45,41.33,41.33,0,0,1,3.64-2.56,17.26,17.26,0,0,1,5-1.61c3.21-.54,6,.07,9.49,2a18.36,18.36,0,0,1,8.32,11.39,30.67,30.67,0,0,1,0,14.18.52.52,0,1,1-1-.21,29.75,29.75,0,0,0,0-13.71,17.31,17.31,0,0,0-7.83-10.75c-3.26-1.85-5.82-2.39-8.81-1.9a16.31,16.31,0,0,0-4.67,1.53c-.31.16-3.4,2.35-3.73,2.61l-.07.06a.53.53,0,0,1-.53,0,5.48,5.48,0,0,0-4.58-.52c-3,1-5.29,4.17-6.47,6.84-1.94,4.38-1.91,9.49-1.87,14l.1,14.64a11.43,11.43,0,0,1,3.19-.39A5.08,5.08,0,0,1,101.8,59a.54.54,0,0,1,.51-.21.52.52,0,0,1,.41.36,9.5,9.5,0,0,1,.4,2.65l2.37-.15a.52.52,0,0,1,.55.49.51.51,0,0,1-.48.54l-2.94.18a.48.48,0,0,1-.39-.15.51.51,0,0,1-.16-.39A7.48,7.48,0,0,0,102,61a3.77,3.77,0,0,0-.06,1.42.51.51,0,0,1-.14.42.48.48,0,0,1-.42.16,10.23,10.23,0,0,0-4,.51A.51.51,0,0,1,97.21,63.56Z" fill="#231f20"/><path d="M140.05,108.35h0a.53.53,0,0,1-.51-.53c0-.17.25-17.81-1.87-25.47a.52.52,0,0,1,1-.28c2.15,7.81,1.92,25,1.9,25.77A.51.51,0,0,1,140.05,108.35Z" fill="#231f20"/><path d="M133.22,263.41a.54.54,0,0,1-.36-.14c-1.13-1.14-7.74-4.44-10.2-5.61a.51.51,0,0,1-.23-.67.5.5,0,0,1,.66-.23c.37.18,9,4.32,10.48,5.8a.51.51,0,0,1,0,.71A.54.54,0,0,1,133.22,263.41Z" fill="#fff"/><path d="M92.58,149.06a.5.5,0,0,1-.19-1c6.17-2.58,8.32-10.38,8.34-10.46a.5.5,0,1,1,1,.26c-.09.34-2.29,8.36-8.92,11.12A.65.65,0,0,1,92.58,149.06Z" fill="#fff"/></svg>