<svg xmlns="http://www.w3.org/2000/svg" viewBox="0 0 400 300"><g id="_157_data_hosting_flatline" data-name="#157_data_hosting_flatline"><rect x="108.7" y="81.51" width="72.69" height="102.78" rx="3.19" fill="#fff"/><path d="M178.2,184.79H111.89a3.7,3.7,0,0,1-3.69-3.69V84.7A3.7,3.7,0,0,1,111.89,81H178.2a3.69,3.69,0,0,1,3.69,3.69v96.4A3.69,3.69,0,0,1,178.2,184.79ZM111.89,82a2.7,2.7,0,0,0-2.69,2.69v96.4a2.7,2.7,0,0,0,2.69,2.69H178.2a2.69,2.69,0,0,0,2.69-2.69V84.7A2.69,2.69,0,0,0,178.2,82Z" fill="#231f20"/><rect x="115.2" y="87.91" width="59.69" height="14.73" transform="translate(290.09 190.55) rotate(-180)" fill="#fff"/><path d="M174.89,103.14H115.2a.5.5,0,0,1-.5-.5V87.91a.5.5,0,0,1,.5-.5h59.69a.5.5,0,0,1,.5.5v14.73A.5.5,0,0,1,174.89,103.14Zm-59.19-1h58.69V88.41H115.7Z" fill="#d1d3d4"/><circle cx="123.08" cy="95.28" r="3.08" fill="#00cba9"/><path d="M169.44,93.5H143.49a.5.5,0,0,1-.5-.5.5.5,0,0,1,.5-.5h25.95a.5.5,0,0,1,.5.5A.5.5,0,0,1,169.44,93.5Z" fill="#00cba9"/><path d="M169.44,98.05H143.49a.5.5,0,0,1-.5-.5.5.5,0,0,1,.5-.5h25.95a.5.5,0,0,1,.5.5A.5.5,0,0,1,169.44,98.05Z" fill="#00cba9"/><path d="M137.82,98.58h-8.48a.51.51,0,0,1-.5-.5v-5.6a.5.5,0,0,1,.5-.5h8.48a.5.5,0,0,1,.5.5v5.6A.5.5,0,0,1,137.82,98.58Zm-8-1h7.48V93h-7.48Z" fill="#00cba9"/><rect x="115.2" y="105.7" width="59.69" height="14.73" transform="translate(290.09 226.13) rotate(-180)" fill="#fff"/><path d="M174.89,120.93H115.2a.5.5,0,0,1-.5-.5V105.7a.51.51,0,0,1,.5-.5h59.69a.5.5,0,0,1,.5.5v14.73A.5.5,0,0,1,174.89,120.93Zm-59.19-1h58.69V106.2H115.7Z" fill="#d1d3d4"/><circle cx="123.08" cy="113.07" r="3.08" fill="#00cba9"/><path d="M169.44,111.29H143.49a.5.5,0,0,1-.5-.5.5.5,0,0,1,.5-.5h25.95a.5.5,0,0,1,.5.5A.5.5,0,0,1,169.44,111.29Z" fill="#00cba9"/><path d="M169.44,115.85H143.49a.5.5,0,0,1-.5-.5.5.5,0,0,1,.5-.5h25.95a.5.5,0,0,1,.5.5A.5.5,0,0,1,169.44,115.85Z" fill="#00cba9"/><path d="M137.82,116.37h-8.48a.51.51,0,0,1-.5-.5v-5.6a.5.5,0,0,1,.5-.5h8.48a.5.5,0,0,1,.5.5v5.6A.5.5,0,0,1,137.82,116.37Zm-8-1h7.48v-4.6h-7.48Z" fill="#00cba9"/><rect x="115.2" y="123.49" width="59.69" height="14.73" transform="translate(290.09 261.72) rotate(-180)" fill="#fff"/><path d="M174.89,138.72H115.2a.5.5,0,0,1-.5-.5V123.49a.51.51,0,0,1,.5-.5h59.69a.5.5,0,0,1,.5.5v14.73A.5.5,0,0,1,174.89,138.72Zm-59.19-1h58.69V124H115.7Z" fill="#d1d3d4"/><circle cx="123.08" cy="130.86" r="3.08" fill="#00cba9"/><path d="M169.44,129.08H143.49a.5.5,0,0,1,0-1h25.95a.5.5,0,0,1,0,1Z" fill="#00cba9"/><path d="M169.44,133.64H143.49a.5.5,0,0,1-.5-.5.5.5,0,0,1,.5-.5h25.95a.5.5,0,0,1,.5.5A.5.5,0,0,1,169.44,133.64Z" fill="#00cba9"/><path d="M137.82,134.16h-8.48a.51.51,0,0,1-.5-.5v-5.6a.5.5,0,0,1,.5-.5h8.48a.5.5,0,0,1,.5.5v5.6A.5.5,0,0,1,137.82,134.16Zm-8-1h7.48v-4.6h-7.48Z" fill="#00cba9"/><rect x="115.2" y="141.28" width="59.69" height="14.73" transform="translate(290.09 297.3) rotate(-180)" fill="#fff"/><path d="M174.89,156.51H115.2a.5.5,0,0,1-.5-.5V141.28a.51.51,0,0,1,.5-.5h59.69a.5.5,0,0,1,.5.5V156A.5.5,0,0,1,174.89,156.51Zm-59.19-1h58.69V141.78H115.7Z" fill="#d1d3d4"/><circle cx="123.08" cy="148.65" r="3.08" fill="#00cba9"/><path d="M169.44,146.87H143.49a.5.5,0,0,1,0-1h25.95a.5.5,0,0,1,0,1Z" fill="#00cba9"/><path d="M169.44,151.43H143.49a.5.5,0,0,1-.5-.5.5.5,0,0,1,.5-.5h25.95a.5.5,0,0,1,.5.5A.5.5,0,0,1,169.44,151.43Z" fill="#00cba9"/><path d="M137.82,152h-8.48a.5.5,0,0,1-.5-.5v-5.6a.5.5,0,0,1,.5-.5h8.48a.5.5,0,0,1,.5.5v5.6A.5.5,0,0,1,137.82,152Zm-8-1h7.48v-4.6h-7.48Z" fill="#00cba9"/><rect x="115.2" y="159.08" width="59.69" height="14.73" transform="translate(290.09 332.88) rotate(-180)" fill="#fff"/><path d="M174.89,174.31H115.2a.51.51,0,0,1-.5-.5V159.08a.5.5,0,0,1,.5-.5h59.69a.5.5,0,0,1,.5.5v14.73A.5.5,0,0,1,174.89,174.31Zm-59.19-1h58.69V159.58H115.7Z" fill="#d1d3d4"/><circle cx="123.08" cy="166.44" r="3.08" fill="#00cba9"/><path d="M169.44,164.66H143.49a.5.5,0,0,1-.5-.5.5.5,0,0,1,.5-.5h25.95a.5.5,0,0,1,.5.5A.5.5,0,0,1,169.44,164.66Z" fill="#00cba9"/><path d="M169.44,169.22H143.49a.5.5,0,0,1,0-1h25.95a.5.5,0,0,1,0,1Z" fill="#00cba9"/><path d="M137.82,169.74h-8.48a.5.5,0,0,1-.5-.5v-5.6a.5.5,0,0,1,.5-.5h8.48a.5.5,0,0,1,.5.5v5.6A.5.5,0,0,1,137.82,169.74Zm-8-1h7.48v-4.6h-7.48Z" fill="#00cba9"/><path d="M261.65,158.18c-1-1-1.86-1.76-2.68-2.57a13,13,0,0,0-14.45-2.89A12.66,12.66,0,0,0,237,165.46c.09,1.3-.32,1.71-1.52,2A19.56,19.56,0,0,0,240.51,206q39.81,0,79.63,0a22.23,22.23,0,0,0,3.05-.22,17.6,17.6,0,0,0,.3-34.75c-1.95-.29-3.95-.28-5.93-.4,3.37-17.64-8.3-30.51-20.1-33.67a28,28,0,0,0-18.85,1.16C269.69,141.93,264.32,148.89,261.65,158.18Z" fill="#fff"/><path d="M271.45,206.5H240.51a20,20,0,0,1-20.28-21.09A19.94,19.94,0,0,1,235.32,167c1-.26,1.21-.49,1.14-1.48a13.14,13.14,0,0,1,7.86-13.23,13.42,13.42,0,0,1,15,3c.54.54,1.1,1.07,1.71,1.66l.36.34c2.91-9.42,8.64-16,17-19.61a28.89,28.89,0,0,1,35.19,10.42,29.28,29.28,0,0,1,4.54,22.08l1.3.06a38.49,38.49,0,0,1,4.12.32,18.1,18.1,0,0,1-.31,35.74,22.77,22.77,0,0,1-3.12.22Zm-21.84-54.36a11.9,11.9,0,0,0-4.88,1,12.17,12.17,0,0,0-7.27,12.25,2.07,2.07,0,0,1-1.89,2.52,19,19,0,0,0-14.34,17.49,19,19,0,0,0,19.28,20.05q39.81,0,79.63,0a22.44,22.44,0,0,0,3-.21,17.1,17.1,0,0,0,.3-33.76,35.71,35.71,0,0,0-4-.31c-.63,0-1.26,0-1.88-.09a.49.49,0,0,1-.37-.2.51.51,0,0,1-.09-.4c3.29-17.17-7.72-29.87-19.74-33.09a27.71,27.71,0,0,0-18.52,1.14c-8.44,3.62-13.9,10.08-16.68,19.76a.52.52,0,0,1-.35.34.5.5,0,0,1-.48-.12l-.95-.91c-.62-.59-1.18-1.12-1.73-1.67A12.79,12.79,0,0,0,249.61,152.14Z" fill="#231f20"/><rect x="166.74" y="58.11" width="109.96" height="155.46" rx="4.82" fill="#fff"/><path d="M271.87,214.08H171.56a5.33,5.33,0,0,1-5.32-5.33V62.94a5.33,5.33,0,0,1,5.32-5.33H271.87a5.33,5.33,0,0,1,5.32,5.33V208.75A5.33,5.33,0,0,1,271.87,214.08ZM171.56,58.61a4.33,4.33,0,0,0-4.32,4.33V208.75a4.34,4.34,0,0,0,4.32,4.33H271.87a4.34,4.34,0,0,0,4.32-4.33V62.94a4.33,4.33,0,0,0-4.32-4.33Z" fill="#231f20"/><rect x="176.57" y="67.8" width="90.29" height="22.28" transform="translate(443.43 157.87) rotate(-180)" fill="#fff"/><path d="M266.86,90.58H176.57a.5.5,0,0,1-.5-.5V67.8a.5.5,0,0,1,.5-.5h90.29a.5.5,0,0,1,.5.5V90.08A.5.5,0,0,1,266.86,90.58Zm-89.79-1h89.29V68.3H177.07Z" fill="#d1d3d4"/><circle cx="188.48" cy="78.94" r="4.65" fill="#00cba9"/><path d="M258.61,76H219.36a.5.5,0,0,1,0-1h39.25a.5.5,0,0,1,0,1Z" fill="#00cba9"/><path d="M258.61,82.88H219.36a.5.5,0,0,1-.5-.5.5.5,0,0,1,.5-.5h39.25a.5.5,0,0,1,.5.5A.5.5,0,0,1,258.61,82.88Z" fill="#00cba9"/><path d="M210.79,83.67H198a.5.5,0,0,1-.5-.5V74.7a.5.5,0,0,1,.5-.5h12.83a.5.5,0,0,1,.5.5v8.47A.5.5,0,0,1,210.79,83.67Zm-12.33-1h11.83V75.2H198.46Z" fill="#00cba9"/><rect x="176.57" y="94.71" width="90.29" height="22.28" transform="translate(443.43 211.69) rotate(-180)" fill="#fff"/><path d="M266.86,117.49H176.57a.5.5,0,0,1-.5-.5V94.71a.5.5,0,0,1,.5-.5h90.29a.5.5,0,0,1,.5.5V117A.5.5,0,0,1,266.86,117.49Zm-89.79-1h89.29V95.21H177.07Z" fill="#d1d3d4"/><circle cx="188.48" cy="105.85" r="4.65" fill="#00cba9"/><path d="M258.61,102.9H219.36a.5.5,0,0,1,0-1h39.25a.5.5,0,0,1,0,1Z" fill="#00cba9"/><path d="M258.61,109.79H219.36a.5.5,0,0,1-.5-.5.5.5,0,0,1,.5-.5h39.25a.5.5,0,0,1,.5.5A.5.5,0,0,1,258.61,109.79Z" fill="#00cba9"/><path d="M210.79,110.58H198a.5.5,0,0,1-.5-.5v-8.47a.5.5,0,0,1,.5-.5h12.83a.51.51,0,0,1,.5.5v8.47A.5.5,0,0,1,210.79,110.58Zm-12.33-1h11.83v-7.47H198.46Z" fill="#00cba9"/><rect x="176.57" y="121.62" width="90.29" height="22.28" transform="translate(443.43 265.52) rotate(-180)" fill="#fff"/><path d="M266.86,144.4H176.57a.5.5,0,0,1-.5-.5V121.62a.5.5,0,0,1,.5-.5h90.29a.5.5,0,0,1,.5.5V143.9A.5.5,0,0,1,266.86,144.4Zm-89.79-1h89.29V122.12H177.07Z" fill="#d1d3d4"/><circle cx="188.48" cy="132.76" r="4.65" fill="#00cba9"/><path d="M258.61,129.81H219.36a.5.5,0,0,1-.5-.5.5.5,0,0,1,.5-.5h39.25a.5.5,0,0,1,.5.5A.5.5,0,0,1,258.61,129.81Z" fill="#00cba9"/><path d="M258.61,136.71H219.36a.5.5,0,0,1-.5-.5.5.5,0,0,1,.5-.5h39.25a.5.5,0,0,1,.5.5A.5.5,0,0,1,258.61,136.71Z" fill="#00cba9"/><path d="M210.79,137.49H198a.5.5,0,0,1-.5-.5v-8.47a.5.5,0,0,1,.5-.5h12.83a.51.51,0,0,1,.5.5V137A.5.5,0,0,1,210.79,137.49Zm-12.33-1h11.83V129H198.46Z" fill="#00cba9"/><rect x="176.57" y="148.53" width="90.29" height="22.28" transform="translate(443.43 319.34) rotate(-180)" fill="#fff"/><path d="M266.86,171.31H176.57a.5.5,0,0,1-.5-.5V148.53a.5.5,0,0,1,.5-.5h90.29a.5.5,0,0,1,.5.5v22.28A.5.5,0,0,1,266.86,171.31Zm-89.79-1h89.29V149H177.07Z" fill="#d1d3d4"/><circle cx="188.48" cy="159.67" r="4.65" fill="#00cba9"/><path d="M258.61,156.72H219.36a.5.5,0,0,1-.5-.5.5.5,0,0,1,.5-.5h39.25a.5.5,0,0,1,.5.5A.5.5,0,0,1,258.61,156.72Z" fill="#00cba9"/><path d="M258.61,163.62H219.36a.5.5,0,0,1-.5-.5.5.5,0,0,1,.5-.5h39.25a.5.5,0,0,1,.5.5A.5.5,0,0,1,258.61,163.62Z" fill="#00cba9"/><path d="M210.79,164.4H198a.5.5,0,0,1-.5-.5v-8.47a.5.5,0,0,1,.5-.5h12.83a.51.51,0,0,1,.5.5v8.47A.5.5,0,0,1,210.79,164.4Zm-12.33-1h11.83v-7.47H198.46Z" fill="#00cba9"/><rect x="176.57" y="175.44" width="90.29" height="22.28" transform="translate(443.43 373.16) rotate(-180)" fill="#fff"/><path d="M266.86,198.22H176.57a.5.5,0,0,1-.5-.5V175.44a.5.5,0,0,1,.5-.5h90.29a.5.5,0,0,1,.5.5v22.28A.5.5,0,0,1,266.86,198.22Zm-89.79-1h89.29V175.94H177.07Z" fill="#d1d3d4"/><circle cx="188.48" cy="186.58" r="4.65" fill="#00cba9"/><path d="M258.61,183.63H219.36a.5.5,0,0,1-.5-.5.5.5,0,0,1,.5-.5h39.25a.5.5,0,0,1,.5.5A.5.5,0,0,1,258.61,183.63Z" fill="#00cba9"/><path d="M258.61,190.53H219.36a.5.5,0,0,1-.5-.5.5.5,0,0,1,.5-.5h39.25a.5.5,0,0,1,.5.5A.5.5,0,0,1,258.61,190.53Z" fill="#00cba9"/><path d="M210.79,191.32H198a.5.5,0,0,1-.5-.5v-8.47a.5.5,0,0,1,.5-.5h12.83a.5.5,0,0,1,.5.5v8.47A.51.51,0,0,1,210.79,191.32Zm-12.33-1h11.83v-7.47H198.46Z" fill="#00cba9"/><path d="M111.32,169.92c-1.23-1.19-2.25-2.13-3.23-3.11a15.64,15.64,0,0,0-17.46-3.48,15.28,15.28,0,0,0-9.14,15.39c.11,1.57-.39,2.06-1.83,2.42a23.64,23.64,0,0,0,6.12,46.55q48.1,0,96.22,0a28.21,28.21,0,0,0,3.68-.27,21.27,21.27,0,0,0,.38-42c-2.36-.36-4.78-.34-7.17-.49,4.07-21.31-10-36.86-24.3-40.69a34,34,0,0,0-22.77,1.4C121,150.28,114.55,158.69,111.32,169.92Z" fill="#fff"/><path d="M123.76,228.2h-38a24,24,0,0,1-24.4-25.37,24,24,0,0,1,18.16-22.16c1.29-.33,1.54-.65,1.45-1.91a15.79,15.79,0,0,1,9.43-15.88,16.09,16.09,0,0,1,18,3.59c.66.65,1.34,1.29,2.08,2l.55.53c3.5-11.44,10.41-19.45,20.56-23.8A34.81,34.81,0,0,1,174,157.76a35.3,35.3,0,0,1,5.45,26.71l1.68.08a49.11,49.11,0,0,1,5,.38,21.77,21.77,0,0,1-.38,43,29.23,29.23,0,0,1-3.75.28Zm-27-65.69a14.59,14.59,0,0,0-5.94,1.27A14.81,14.81,0,0,0,82,178.68c.13,2-.71,2.57-2.21,2.95a23,23,0,0,0-17.4,21.23,23,23,0,0,0,23.4,24.33q48.1,0,96.22,0a27.36,27.36,0,0,0,3.62-.27,20.77,20.77,0,0,0,.36-41,43.78,43.78,0,0,0-4.86-.37l-2.27-.11a.49.49,0,0,1-.36-.2.52.52,0,0,1-.1-.4c4-20.81-9.35-36.2-23.92-40.1A33.57,33.57,0,0,0,132,146.11c-10.23,4.39-16.84,12.22-20.22,23.94a.51.51,0,0,1-.35.35.53.53,0,0,1-.48-.12l-1.14-1.09c-.75-.72-1.43-1.36-2.09-2A15.54,15.54,0,0,0,96.77,162.51Z" fill="#231f20"/><path d="M240.16,161.2a31.1,31.1,0,0,0-20.82-1.28c-13,3.5-25.92,17.71-22.2,37.19-2.19.14-4.4.12-6.55.45a19.44,19.44,0,0,0,.34,38.38,25.19,25.19,0,0,0,3.36.24q44,0,88,0a21.61,21.61,0,0,0,5.6-42.55c-1.32-.33-1.78-.78-1.68-2.21a14,14,0,0,0-8.35-14.07,14.31,14.31,0,0,0-16,3.18c-.9.9-1.83,1.76-3,2.84C255.94,173.12,250,165.43,240.16,161.2Z" fill="#fff"/><path d="M247.77,236.69H194.29a24.42,24.42,0,0,1-3.43-.25,19.94,19.94,0,0,1-.35-39.37,43.77,43.77,0,0,1,4.54-.35l1.5-.07a32.31,32.31,0,0,1,5-24.4,31.86,31.86,0,0,1,38.81-11.5c9.27,4,15.59,11.28,18.79,21.71l.46-.43c.68-.65,1.29-1.23,1.89-1.83A14.77,14.77,0,0,1,278,176.9a14.47,14.47,0,0,1,8.65,14.56c-.08,1.12.14,1.41,1.3,1.69a22,22,0,0,1,16.62,20.3,22,22,0,0,1-22.34,23.24Zm-19.62-77.47a33.46,33.46,0,0,0-8.68,1.19C206.17,164,194,178,197.63,197a.47.47,0,0,1-.09.4.49.49,0,0,1-.37.2l-2.08.1a41.08,41.08,0,0,0-4.43.34,18.94,18.94,0,0,0,.34,37.39,23.83,23.83,0,0,0,3.29.24q44,0,88,0a21,21,0,0,0,21.35-22.2,21,21,0,0,0-15.88-19.37c-1.39-.34-2.17-.9-2-2.73a13.48,13.48,0,0,0-8.05-13.58,13.77,13.77,0,0,0-15.41,3.09c-.61.6-1.23,1.19-1.91,1.84l-1.05,1a.48.48,0,0,1-.47.12.47.47,0,0,1-.35-.34c-3.09-10.7-9.12-17.85-18.46-21.86h0A29.81,29.81,0,0,0,228.15,159.22Z" fill="#231f20"/><polyline points="140.02 233.04 140.02 199.49 146 199.49 134.31 186.62 122.61 199.49 128.59 199.49 128.59 233.04" fill="#fff"/><path d="M140,233.54a.5.5,0,0,1-.5-.5V199.49a.51.51,0,0,1,.5-.5h4.85l-10.56-11.63L123.74,199h4.85a.5.5,0,0,1,.5.5V233a.5.5,0,0,1-1,0V200h-5.48a.5.5,0,0,1-.46-.29.5.5,0,0,1,.09-.54l11.7-12.87a.51.51,0,0,1,.74,0l11.69,12.87a.49.49,0,0,1,.09.54.5.5,0,0,1-.46.29h-5.48v33A.5.5,0,0,1,140,233.54Z" fill="#231f20"/><polyline points="233.74 197.45 233.74 231 227.76 231 239.45 243.88 251.15 231 245.17 231 245.17 197.45" fill="#fff"/><path d="M239.45,244.38a.5.5,0,0,1-.37-.17l-11.69-12.87a.49.49,0,0,1-.09-.54.51.51,0,0,1,.46-.3h5.48V197.45a.5.5,0,0,1,.5-.5.51.51,0,0,1,.5.5V231a.5.5,0,0,1-.5.5h-4.85l10.56,11.63L250,231.5h-4.85a.5.5,0,0,1-.5-.5V197.45a.5.5,0,0,1,1,0V230.5h5.48a.51.51,0,0,1,.46.3.51.51,0,0,1-.09.54l-11.7,12.87A.48.48,0,0,1,239.45,244.38Z" fill="#231f20"/></g></svg>