<svg xmlns="http://www.w3.org/2000/svg" viewBox="0 0 64 64"><g data-name="Download"><path fill="#222" d="M32,42a1.5,1.5,0,0,1-1.5-1.5V15.046a1.5,1.5,0,0,1,3,0V40.5A1.5,1.5,0,0,1,32,42Z"/><path fill="#222" d="M32,42a1.5,1.5,0,0,1-1.061-.439l-6.189-6.19a1.5,1.5,0,0,1,2.121-2.121l6.19,6.189A1.5,1.5,0,0,1,32,42Z"/><path fill="#222" d="M32,42a1.5,1.5,0,0,1-1.061-2.561l6.19-6.189a1.5,1.5,0,0,1,2.121,2.121l-6.189,6.19A1.5,1.5,0,0,1,32,42Z"/><path fill="#222" d="M50,50.454H14a1.5,1.5,0,0,1-1.5-1.5V40.5a1.5,1.5,0,0,1,3,0v6.954h33V40.5a1.5,1.5,0,0,1,3,0v8.454A1.5,1.5,0,0,1,50,50.454Z"/></g></svg>