<svg xmlns="http://www.w3.org/2000/svg" viewBox="0 0 400 300"><g id="_155_network_flatline" data-name="#155_network_flatline"><circle cx="200" cy="150" r="109.88" fill="#fff"/><path d="M200,40.12A109.88,109.88,0,1,1,90.12,150,109.87,109.87,0,0,1,200,40.12m0-.91a110.79,110.79,0,1,0,78.34,32.45A110,110,0,0,0,200,39.21Z" fill="#231f20"/><path d="M282.39,77.31a4.29,4.29,0,0,1-2.53.15l1.47-1.35q-3-3.28-6.23-6.31c0,1.5.9,2.82,2.48,4-2.33.13-4.13-1.26-6.17-1.87a65.21,65.21,0,0,0-7.34-1.37l3.65,2.61a16.82,16.82,0,0,1-2.08.66c-.69-1.46-1.57-.27-2.36-.32-1.79-.1-3.76,2-5.13-.17a11.1,11.1,0,0,0-1.89.41c-1.63.68-3.45,1.17-4.78,2.24-1.66,1.33-2.18,1.48-3.45-.48l1.68-.58,0-.68-3.42-.73a12.27,12.27,0,0,0-.15,2.44,5.16,5.16,0,0,0,.69,1.45,22.48,22.48,0,0,0-3,.45A27.66,27.66,0,0,0,241.12,79l.83,1.7-4.56-.73-.17.42L239,81.49c-2.61.78-4.24-.59-4.25-3.25L232.49,77a5.46,5.46,0,0,1,2.35.29c2.46.54,5,1.15,7.38-.08,1.25-.64,1.18-1.53,0-2.14a26.26,26.26,0,0,0-4.58-2c-2.79-.79-5.64-1.34-8.51-2l.47-.73a29.52,29.52,0,0,0-4-.84,6.79,6.79,0,0,0-2.33.76l.7-1.5c-1.34.63-2.4,1.59-3.21,1.41-1.76-.4-3.11,1-4.94.61-1-.2-2.41,1.34-3.2,1.84a12.53,12.53,0,0,0-2.46.54A14.45,14.45,0,0,0,208,74.87l2.79-.67c-1.26,1.56-2.61,3.39-4.14,5.08-1,1.16-2.18,2.66-3.53,3a12.65,12.65,0,0,0-5,2.86,2.88,2.88,0,0,0-.77,2.2,15,15,0,0,0,1,3.41,2.52,2.52,0,0,0,3.16,1.41c1.09-.55,2.48-1.86,3.14-1.56,1,.46,1.47,2,2.15,3.15.14.22.25.47.37.7.63,1.3.55,4.35,3,1.21,2,.42,2-1.19,2.09-2.29A3.12,3.12,0,0,1,214,90.75c1.34-.78,1.34-2,.18-2.8-1.51-1.09-1.69-2.08-.38-3.48.69-.74,1.74-1.14,2.5-1.84s1.18-1.63,1.93-2.23a8.67,8.67,0,0,1,3-1.67c.62-.17,1.44.41,2.35.71-1.79,1.41-3.14,2.46-4.47,3.53-.74.6-1.62,4.19-.94,4.59a9.46,9.46,0,0,0,4.1,1.34c1.26.08,2.56-.63,3.86-.82a6.08,6.08,0,0,1,1.9.39l0,.8-3.4.31a21.55,21.55,0,0,0-2.68.32c-1.21.27-1.37,1.08-.52,1.86,1.11,1,.76,1.73-.16,2.54-2.28-1.87-2.79-1.69-3.33,1.22a10.51,10.51,0,0,0,0,2c-.94.4-2.09,1.32-2.66,1-2.4-1.15-4,1-6.12,1.14-.64-1.66-1.84-.65-3-.62a3.46,3.46,0,0,1-2-.94c-.3-.25-.5-1.16-.31-1.36a3.31,3.31,0,0,0,.61-3.69c-2.89,1.59-2.87,1.58-2.19,4.54a9.72,9.72,0,0,1,.12,1.84l-4.3,1.71c-1.38,1.37-2.35,2.35-3.35,3.32-.35.34-.88.56-1.09,1a3.16,3.16,0,0,1-4.28,1.66c.08.6.14,1.16.22,1.8l-3.81-.17a38.45,38.45,0,0,0,3.56,3.91c1.54,1.75.29,3.6.07,5.39-3.21.24-6.41-1.24-9.5.63,1.76,3.58-1.18,7.29.94,10.79l2.09-.25,1.25,1.65c3.2-.75,6.3-1.21,7.26-4,0-1.08-.24-1.86,0-2.26a37.38,37.38,0,0,1,2.56-2.8c.56-.64,1.48-1.39,1.44-2-.11-2.06,1.13-2,2.27-1.5a2.39,2.39,0,0,0,2.95-.52,18.28,18.28,0,0,1,2.26-1.54c.54.69,1.08,1.42,1.67,2.1a21.29,21.29,0,0,0,3.19,3.43c2.07,1.52,4.54,2.63,3.66,6l1.45-2c-.24-.85-.41-1.45-.69-2.41l2.39,1c-.08-.39,0-.66-.15-.73-1.41-.92-2.25-2.6-4.08-3-.51-.11-1-.69-1.31-1.15-.54-.71-.89-1.57-1.46-2.25-1.4-1.7-1.14-2.62.78-3.12a5.37,5.37,0,0,0,.65,1.22c.22.24.88.22.93.42.5,1.92,2.14,2.48,3.61,3.37.91.56,2.13,1.64,2.13,2.48,0,3.87,2.77,6.24,4.12,9.3a17.77,17.77,0,0,0,1.57-2.73,2.72,2.72,0,0,0-.19-1.83,22.7,22.7,0,0,0-1.55-2.51c.87.05,1.68.35,2,.08,1.51-1.35,1.46-1.4,2.76-.64-.11,1.41-.2,2.6-.28,3.66.59.87,1,2.19,1.87,2.58,1,.47,1.92,2.3,3.71.71.56-.5,2.45.5,3.73.81.06,0,.13,0,.19-.05l3.25-1.49c-.67,3-1.2,5.35-1.74,7.71-.35,1.52-.93,2.67-2.85,2.72-.74,0-1.46.82-1.82,1l3,3.13L232,145.25c.07.19.13.39.2.58l2.86-.86c.4.69.95,1.56,1.4,2.48.77,1.55,1.5,3.13,2.2,4.72.56,1.28,1.09,2.58,1.58,3.89a27,27,0,0,0,.95,2.88,25.64,25.64,0,0,0,1.9,3c2,2.85,1.91,6.22,2.48,9.43.2,1.14.69,1.56,1.73,1a54.52,54.52,0,0,0,5.5-2.93c1.87-1.22,3.45-2.9,5.37-4a13.92,13.92,0,0,0,4.61-3.72c.33-.47.59-1,.88-1.48a9.77,9.77,0,0,1,.94-1.48c2.21-2.43,1.76-4.57-1.2-6a3,3,0,0,1-1.25-1.61,11.36,11.36,0,0,1-.28-2.59,18.7,18.7,0,0,0-2.24,2.87c-.84,1.68-2.2.65-3.32.87-.11-.7-.22-1.4-.35-2.09-.09-.46-.2-.9-.43-1.91-.44,1-.63,1.51-.77,1.83l-3.38-7.23c1.8-2,2.18-2,3.45.47a9.65,9.65,0,0,1,.48,1.1,5,5,0,0,0,7,2.82c.93,2.34,1.13,2.64,3.8,2.81s5.48,0,7.92,0l4.48,5.1-1.28.53,3,2.55,1.51-1.85c.69,3.71,1.27,8,2.34,12.21a64.82,64.82,0,0,0,4,12.39,15.09,15.09,0,0,0,3.55-10.82,5.12,5.12,0,0,1,.36-2.85c.95-1.4,2.5-2.4,3.41-3.81,1.4-2.2,4.18-3.33,4.72-6.2.06-.37.85-.72,1.36-.86,1.44-.37,2.9-.62,4.41-.93a10.58,10.58,0,0,0,1,3.13,17.78,17.78,0,0,1,2.21,3.79,111.52,111.52,0,0,0,.71-12.47A109.46,109.46,0,0,0,282.39,77.31Z" fill="#d1d3d4"/><path d="M130.09,234.78a6.71,6.71,0,0,0,.64-2.21c.14-1.87.75-3.11,2.29-3.82,1.81-.82,3.73-1.37,5.59-2.07a2.15,2.15,0,0,0,1.11-.71,21.75,21.75,0,0,0,2.26-4.85,59.24,59.24,0,0,0,.82-7.19,1.71,1.71,0,0,1,.16-.77c.95-1.24,2-2.38,2.9-3.68.94-1.46,2.26-3,2.35-4.61a3.39,3.39,0,0,0-3.2-3.78,1.38,1.38,0,0,1-.77-.58c-2.15-2.9-5.24-2.26-8.25-2.31.25-1.24-.38-1.65-1.67-1.94-3-.7-5.45-2.11-6.32-5.53-.92-3.6-2.7-4.61-6.45-4.82a7,7,0,0,1-3.08-1.48,14,14,0,0,1-2-2,7.38,7.38,0,0,0-1-1c-1-.71-1.79-2.25-3.18-2s-2.94.69-4.41,0-2.66-1.24-4.24-2c-.4,1.08-.91,2.5-1.46,4-1-1.57,0-3.11.25-4.75-2.93,1.8-6.3,2.83-7,6.82l-.19-.11A110.06,110.06,0,0,0,130.09,234.78Z" fill="#d1d3d4"/><path d="M108.05,114.26c3.69.84,6.44-1,9.39-2.45a1.93,1.93,0,0,0,1-1.4,2.64,2.64,0,0,0-1-1.81,9.09,9.09,0,0,0-2.59-.63l1.15-.75a24.67,24.67,0,0,1-4.25-2.64c-.64-.58-.43-2-.92-2.85-.84-1.45-1.92-2.75-3-4.19-1,1.39-1.25,3.9-3.67,3.29a2.84,2.84,0,0,1-1.81-1.23,109,109,0,0,0-11.91,42.17,6.11,6.11,0,0,1,1.27-1c3-1.72,3.18-2.25,2.41-5.72a17.23,17.23,0,0,1,0-3.4l.76,2.9c.71-1.26,1.73-2.29,1.83-3.4.19-2,1.17-2.43,2.84-2.46a9.62,9.62,0,0,0,1.94-.42l-.56-.26c.11-1-.14-2.48.38-2.83a61.14,61.14,0,0,1,6.5-3.38l-1.42,3,.5.12,6.89-3.68-.3-.53-.86.49.47-1.62a.87.87,0,0,0-.73.45c-1.25,1.85-1.92,2-3.77.66-1.39-1-1.9-2.13-.42-3.54.13-.12-.22-1.13-.41-1.15a6.21,6.21,0,0,0-2.31.18,27.79,27.79,0,0,0-3,1.22C104.1,115.87,105.68,113.72,108.05,114.26Z" fill="#d1d3d4"/><path d="M203.06,189a4.09,4.09,0,0,1,.52,2.85c-.86,2.92-.88,5.35,1.5,7.8a10.58,10.58,0,0,1,2.82,8,1.86,1.86,0,0,0,.29,1.14c1,1.31.38,2.25-.26,3.57-1.43,2.91-2.79,5.91-.78,9.33,1.19,2,2.49,4,2.58,6.7a10.19,10.19,0,0,0,2.52,7c1.07,1.14,2.12,3,2,4.42a3.36,3.36,0,0,0,1.87,3.6,11,11,0,0,1,1.88-.62,33.05,33.05,0,0,0,5.4-.57c4.48-1.28,6.67-5.12,8.95-8.74.42-.66.15-1.76.22-3,.27-.15.88-.53,1.52-.84,1.8-.86,2.36-2,1.8-4-.2-.7-.52-1.37-.69-2.07-.1-.39-.16-1,.06-1.22,1.49-1.36,3.11-2.58,4.58-4,.95-.9,2.22-1.9,2.45-3A14.59,14.59,0,0,0,242,210c-.19-1.18-1-2.25-1.19-3.43s.63-2.78-.74-3.92c-.17-.14-.09-.85.11-1.13,2.23-3.07,4-6.7,6.89-9,3.78-3.07,5.67-7.1,7.75-11.13a13.71,13.71,0,0,0,.75-3.79c-2.88.74-5.44,1.44-8,2a1.72,1.72,0,0,1-1.44-.68c-.43-.73-.37-1.8-.88-2.42-.95-1.16-2.21-2.06-3.25-3.14a5.6,5.6,0,0,1-1.39-2c-.86-2.61-2.82-4.69-3.12-7.66-.19-1.83-1.88-3.47-2.71-5.28a66.28,66.28,0,0,1-2.78-6.9c-.58-1.73-1.55-1.58-2.93-1.21a6.46,6.46,0,0,1-3.13.24,59.45,59.45,0,0,1-6.06-2.1c-1.77-.68-3.2.09-3.36,1.89-.11,1.3-.67,2-1.91,1.09s-3.7-.43-4.14-2.75c0-.08-.48,0-.69-.12-1.88-.81-4.44.23-5.49-1.77.51-1.51.94-2.78,1.4-4.16a14.9,14.9,0,0,0-2.61-.36c-2.28.08-4.57.16-6.82.46a19.61,19.61,0,0,0-4.71,1.25c-2.4,1-4.71,1.86-6.87.13-1.09,1.16-1.9,2.51-3.1,3.17A4.07,4.07,0,0,0,179.3,151c0,2.42-1.27,3.27-3.2,3.86a2.29,2.29,0,0,0-1.22.85c-1.13,1.84-2.26,3.69-3.23,5.62-.68,1.36-1.93,2.51-.68,4.5.72,1.14.6,3.2.14,4.62a15.26,15.26,0,0,0-.49,6.06c0,.44.46.87.77,1.25s.73.56,1,.91a47.53,47.53,0,0,0,3.44,5,48.58,48.58,0,0,0,4.57,3.84,2.87,2.87,0,0,0,3.08.44,26.44,26.44,0,0,1,5-.48,8.56,8.56,0,0,0,1.91-.3,40,40,0,0,1,3.89-1.38c1.32-.29,3.13-1.12,3.75.87.55,1.8,1.57,1.73,3,1.6A2.54,2.54,0,0,1,203.06,189Z" fill="#d1d3d4"/><path d="M119.92,74.77a4.23,4.23,0,0,0,1.1-.5l3.23,2.25-4.13-.6-.09.62L124,78v2l-4.72,2.41,2.17,1.71a4.67,4.67,0,0,0,0,1.73c1.49,3.07,3,6.12,4.63,9.12A5.08,5.08,0,0,0,128,96.77a31.53,31.53,0,0,0,3.45,1.55c.88.39,1.71.83,2-.71s.65-2.91,1-4.36c.06-.26.16-.63.35-.73,1.64-.84,1.93-2.21,1.92-3.91,0-.55,1-1.61,1.38-1.57,3.2.29,5.21-1.34,6.94-3.73.48-.66,1.28-1.48,2-1.52,4.19-.26,7.72-2.14,11.45-4.28l-5-.52,1.35-1.64,4,1.68c.3-2.09-.44-3-2-3.64-1.71-.67-1.88-1.59-1-2.79h4.6c-.45-.49-.89-1-1.34-1.49l3-.42-1.31-1.36c2.3-1.56-.72-2.34-.53-3.52l2.86-.18c-.53-.8-.82-1.75-1.41-2a8.67,8.67,0,0,0-2.85-.21c2.66-4,7.15-5.24,11.29-7.22a8.79,8.79,0,0,0-7.28-.46,47.36,47.36,0,0,1-6.51,1.3l1-1.61c-.85.09-1.69.2-2.54.27-.47,0-1,0-1.42,0,0-.28,0-.55-.07-.82l5.17-.87c-1.76-.47-3.43-1.15-5.12-1.48A110.1,110.1,0,0,0,119.92,74.77Z" fill="#d1d3d4"/><path d="M106,93.16c-.22.35-.42.71-.63,1.06.42.14.84.29,1.27.46Z" fill="#d1d3d4"/><path d="M112,84.39l-.07,0-1,1.31C111.27,85.24,111.61,84.81,112,84.39Z" fill="#d1d3d4"/><path d="M107.87,92.57a4.46,4.46,0,0,0-.13-2.26c-.46.7-.9,1.4-1.34,2.11Z" fill="#d1d3d4"/><path d="M246.09,224.26c-.7,1.5-.5,4.38.7,5.41a2.24,2.24,0,0,0,3.6-.92c1.14-3.78,2.15-7.6,3.21-11.4.08-.29,0-.66.19-.89a3.42,3.42,0,0,0-.61-4.49c-2.21,1.66-2.44,5.29-6.41,5.12,0,1.28.08,2.48,0,3.66A10.72,10.72,0,0,1,246.09,224.26Z" fill="#d1d3d4"/><path d="M193.05,103.14c.18-.48.64-1.19.48-1.4a1.91,1.91,0,0,0-1.05-.48l-4.31-5.94c1.17-2.06,1.12-2.83-.43-3.84-1-.62-3.15.25-4.14,1.66-.46.65.21,1.87,1.92,3.49l-.24,1.24c.34,0,.58,0,.72.1.61.46,1.52.87,1.71,1.48s-.39,1.36-1.4.94a1.33,1.33,0,0,0-.5.73c-.07.72,0,1.46,0,2.37l1.64.49-2.91,2.23L192.4,105Z" fill="#d1d3d4"/><path d="M260.22,63.51A46.73,46.73,0,0,1,255.46,68c2.1,2,4.78,2.32,8.06,2.19-.9-.63-1.65-.93-2-1.47s-.61-1.62-.32-2a15.88,15.88,0,0,1,5.35-4.16c-.69-.53-1.39-1-2.1-1.57A7.88,7.88,0,0,0,260.22,63.51Z" fill="#d1d3d4"/><path d="M161,92.59a4.92,4.92,0,0,0,2.35,0A10.16,10.16,0,0,0,166.74,91c.75-.63,2.5-1.15,1.67-2.59a14.31,14.31,0,0,0-2.85-2.74l-.16.65-6,1.43c-.31-.4-.89-1.18-1.46-1.95l.22.65L155.53,88l.27.34h2.82l-2.55,1.34,2.83.82-1.43,1.06C158.66,91.89,159.79,92.33,161,92.59Z" fill="#d1d3d4"/><path d="M212.5,59.41c1.3-1,2.36-1.95,3.5-2.73a1.5,1.5,0,0,1,1.34,0c.33.22.41.82.64,1.37h3.84c0-.24.05-.48.07-.72L211.09,53c.46,1,.63,1.38.66,1.46l-6.43-.56-.15.67c.92.65,1.76,1.6,2.78,1.86s2.09-.24,3.14-.41c0,.16,0,.33.07.49l-2.45.88.08.34,1.94.18-1.3.67Z" fill="#d1d3d4"/><path d="M183.94,99.53c.92-.56,1.07-1.35.15-1.79s-2-1.26-3-.06c-.56.64-1.24,1.19-2,1.92v3.11l-.64.31c.35.28.77.86,1,.79a19.23,19.23,0,0,0,4.15-1.51c.33-.18.08-1.4.13-2.14C183.74,99.94,183.79,99.62,183.94,99.53Z" fill="#d1d3d4"/><path d="M91.61,162.25a3.69,3.69,0,0,0-.84-.31c0,.47.1.93.16,1.39a18.88,18.88,0,0,1,2.31,1c.78.39,1.26,1.37,2.08,2.32l3.63-.42C96.31,164.78,94,163.43,91.61,162.25Z" fill="#d1d3d4"/><path d="M105.91,168.92c.16-1.78-3-2.9-5.88-2.12l1.52,1.75-3-.27C100.9,169.92,103.46,168.71,105.91,168.92Z" fill="#d1d3d4"/><path d="M225.05,53.15H214.9a13.83,13.83,0,0,0,4.23,1.4,49,49,0,0,0,5.92-.28Z" fill="#d1d3d4"/><path d="M292.62,185.85c.57-.22,1.34-1.32,1.2-1.72a23.74,23.74,0,0,0-2-3.6l-.6.27c0,1.22,0,2.43,0,3.64C291.15,185.5,291.52,186.28,292.62,185.85Z" fill="#d1d3d4"/><path d="M203.36,122.19l-1.31.53v3.39c2.25-.11,1.22-1.93,1.68-2.9C203.83,123,203.5,122.56,203.36,122.19Z" fill="#d1d3d4"/><path d="M210.65,127.71h-3.58l-.11.42,3.28,2Z" fill="#d1d3d4"/><path d="M291.19,175.6a.52.52,0,0,1-.29-.09l-.69-.49a.5.5,0,1,1,.57-.81l.69.48a.5.5,0,0,1,.13.69A.52.52,0,0,1,291.19,175.6ZM288,173.39a.52.52,0,0,1-.29-.09l-2.45-1.72a.5.5,0,1,1,.57-.82l2.46,1.72a.51.51,0,0,1,.12.7A.49.49,0,0,1,288,173.39ZM283.13,170a.52.52,0,0,1-.29-.09l-2.46-1.72a.51.51,0,0,1-.12-.7.5.5,0,0,1,.7-.12l2.46,1.72a.51.51,0,0,1,.12.7A.49.49,0,0,1,283.13,170Zm-4.92-3.45a.44.44,0,0,1-.28-.09l-2.46-1.72a.5.5,0,0,1,.57-.82l2.46,1.73a.49.49,0,0,1,.12.69A.48.48,0,0,1,278.21,166.5Zm-4.91-3.44A.52.52,0,0,1,273,163l-2.45-1.72a.5.5,0,0,1,.57-.82l2.46,1.72a.51.51,0,0,1,.12.7A.49.49,0,0,1,273.3,163.06Zm-4.91-3.44a.52.52,0,0,1-.29-.09l-2.46-1.73a.5.5,0,1,1,.58-.81l2.46,1.72a.5.5,0,0,1,.12.69A.5.5,0,0,1,268.39,159.62Zm-4.91-3.45a.52.52,0,0,1-.29-.09l-2.46-1.72a.5.5,0,1,1,.58-.82l2.45,1.72a.5.5,0,0,1,.12.7A.48.48,0,0,1,263.48,156.17Zm-4.92-3.44a.47.47,0,0,1-.28-.09l-2.46-1.72a.5.5,0,0,1-.12-.7.49.49,0,0,1,.69-.12l2.46,1.72a.5.5,0,0,1,.12.7A.51.51,0,0,1,258.56,152.73Zm-4.91-3.45a.45.45,0,0,1-.29-.09l-2.45-1.72a.49.49,0,0,1-.13-.69.51.51,0,0,1,.7-.13l2.46,1.73a.5.5,0,0,1-.29.9Zm-4.91-3.44a.52.52,0,0,1-.29-.09L246,144a.51.51,0,0,1-.12-.7.5.5,0,0,1,.7-.12l2.45,1.72a.5.5,0,0,1-.28.91Zm-4.92-3.44a.47.47,0,0,1-.28-.09l-2.46-1.73a.5.5,0,0,1,.57-.81l2.46,1.72a.5.5,0,0,1-.29.91ZM238.91,139a.52.52,0,0,1-.29-.09l-2.45-1.72a.5.5,0,0,1-.13-.7.51.51,0,0,1,.7-.12L239.2,138a.51.51,0,0,1,.12.7A.49.49,0,0,1,238.91,139ZM234,135.51a.52.52,0,0,1-.29-.09l-2.46-1.72a.51.51,0,0,1-.12-.7.5.5,0,0,1,.7-.12l2.45,1.72a.5.5,0,0,1,.13.7A.54.54,0,0,1,234,135.51Zm-4.92-3.45a.41.41,0,0,1-.28-.09l-2.46-1.72a.49.49,0,0,1-.12-.69.5.5,0,0,1,.69-.13l2.46,1.73a.49.49,0,0,1,.12.69A.48.48,0,0,1,229.08,132.06Zm-4.91-3.44a.52.52,0,0,1-.29-.09l-2.45-1.72A.5.5,0,1,1,222,126l2.46,1.72a.51.51,0,0,1,.12.7A.49.49,0,0,1,224.17,128.62Zm-4.91-3.44a.52.52,0,0,1-.29-.09l-2.46-1.73a.5.5,0,0,1-.12-.69.51.51,0,0,1,.7-.13l2.45,1.73a.49.49,0,0,1,.13.69A.5.5,0,0,1,219.26,125.18Zm-4.92-3.45a.51.51,0,0,1-.28-.09l-2.46-1.72a.51.51,0,0,1-.12-.7.5.5,0,0,1,.69-.12l2.46,1.72a.5.5,0,0,1,.12.7A.48.48,0,0,1,214.34,121.73Zm-4.91-3.44a.52.52,0,0,1-.29-.09l-2.45-1.72a.5.5,0,0,1-.12-.7.49.49,0,0,1,.69-.12l2.46,1.72a.51.51,0,0,1,.12.7A.52.52,0,0,1,209.43,118.29Zm-4.91-3.45a.45.45,0,0,1-.29-.09L201.77,113a.5.5,0,0,1-.12-.69.51.51,0,0,1,.7-.13l2.46,1.73a.5.5,0,0,1-.29.9Z" fill="#231f20"/><path d="M125.12,204.76l-.17,0-1.41-.51a.5.5,0,0,1,.35-.94l1.41.51a.5.5,0,0,1-.18,1Z" fill="#231f20"/><path d="M222.62,240.15a.47.47,0,0,1-.17,0l-2.87-1.05a.49.49,0,0,1-.3-.64.5.5,0,0,1,.64-.3l2.87,1a.51.51,0,0,1-.17,1Zm-5.74-2.09a.51.51,0,0,1-.17,0l-2.87-1a.5.5,0,0,1,.34-.94l2.87,1a.5.5,0,0,1-.17,1ZM211.15,236a.47.47,0,0,1-.17,0l-2.87-1a.49.49,0,0,1-.3-.64.5.5,0,0,1,.64-.3l2.87,1a.5.5,0,0,1-.17,1Zm-5.74-2.08a.51.51,0,0,1-.17,0l-2.87-1a.5.5,0,0,1-.3-.64.51.51,0,0,1,.64-.3l2.87,1a.5.5,0,0,1-.17,1Zm-5.73-2.08a.47.47,0,0,1-.17,0l-2.87-1a.5.5,0,1,1,.34-.94l2.87,1a.5.5,0,0,1,.3.64A.52.52,0,0,1,199.68,231.82Zm-5.74-2.08-.17,0-2.87-1a.5.5,0,1,1,.35-.94l2.86,1a.5.5,0,0,1-.17,1Zm-5.73-2.08a.47.47,0,0,1-.17,0l-2.87-1a.52.52,0,0,1-.3-.65.5.5,0,0,1,.64-.29l2.87,1a.5.5,0,0,1,.3.64A.52.52,0,0,1,188.21,227.66Zm-5.74-2.09-.17,0-2.87-1a.49.49,0,0,1-.29-.64.5.5,0,0,1,.64-.3l2.86,1a.51.51,0,0,1,.3.65A.49.49,0,0,1,182.47,225.57Zm-5.73-2.08a.47.47,0,0,1-.17,0l-2.87-1a.5.5,0,1,1,.34-.94l2.87,1a.5.5,0,0,1-.17,1ZM171,221.41l-.17,0-2.87-1a.5.5,0,0,1-.29-.64.5.5,0,0,1,.64-.3l2.86,1a.5.5,0,0,1,.3.64A.48.48,0,0,1,171,221.41Zm-5.73-2.08a.47.47,0,0,1-.17,0l-2.87-1a.5.5,0,1,1,.34-.94l2.87,1a.5.5,0,0,1-.17,1Zm-5.74-2.08-.17,0-2.86-1a.5.5,0,0,1,.34-.94l2.86,1a.5.5,0,0,1-.17,1Zm-5.73-2.08a.47.47,0,0,1-.17,0l-2.87-1a.5.5,0,0,1-.3-.64.5.5,0,0,1,.64-.3l2.87,1a.5.5,0,0,1-.17,1Zm-5.74-2.08-.17,0L145,212a.51.51,0,0,1-.3-.65.5.5,0,0,1,.64-.3l2.86,1.05a.5.5,0,0,1-.17,1ZM142.33,211a.47.47,0,0,1-.17,0l-2.87-1a.5.5,0,0,1,.34-.94l2.87,1a.51.51,0,0,1,.3.64A.49.49,0,0,1,142.33,211Zm-5.74-2.08-.17,0-2.86-1a.49.49,0,0,1-.3-.64.5.5,0,0,1,.64-.3l2.87,1a.5.5,0,0,1,.29.64A.48.48,0,0,1,136.59,208.92Zm-5.73-2.08a.51.51,0,0,1-.17,0l-2.87-1a.5.5,0,1,1,.34-.94l2.87,1a.5.5,0,0,1-.17,1Z" fill="#231f20"/><path d="M226.89,241.7a.51.51,0,0,1-.17,0l-1.41-.51a.51.51,0,0,1-.3-.64.5.5,0,0,1,.64-.3l.73.26,0-.77a.49.49,0,0,1,.49-.51.5.5,0,0,1,.51.49l0,1.5a.46.46,0,0,1-.21.41A.43.43,0,0,1,226.89,241.7Z" fill="#231f20"/><path d="M226.79,237.22a.51.51,0,0,1-.5-.49l-.07-3a.52.52,0,0,1,.49-.52.49.49,0,0,1,.51.49l.07,3a.5.5,0,0,1-.49.52Zm-.13-6a.49.49,0,0,1-.5-.49l-.07-3a.5.5,0,0,1,.49-.51h0a.51.51,0,0,1,.5.49l.07,3a.5.5,0,0,1-.49.51Zm-.14-6a.51.51,0,0,1-.5-.49l-.06-3a.49.49,0,0,1,.48-.51.5.5,0,0,1,.52.49l.06,3a.5.5,0,0,1-.48.51Zm-.13-6a.5.5,0,0,1-.5-.49l-.07-3a.52.52,0,0,1,.49-.52h0a.5.5,0,0,1,.5.49l.07,3a.51.51,0,0,1-.49.52Zm-.14-6a.5.5,0,0,1-.5-.49l-.06-3a.5.5,0,0,1,.49-.51.5.5,0,0,1,.51.49l.06,3a.49.49,0,0,1-.48.51Zm-.13-6a.51.51,0,0,1-.5-.49l-.07-3a.5.5,0,0,1,.49-.51.5.5,0,0,1,.51.49l.07,3a.5.5,0,0,1-.49.51Zm-.13-6a.49.49,0,0,1-.5-.49l-.07-3a.5.5,0,0,1,.49-.52.52.52,0,0,1,.51.49l.07,3a.52.52,0,0,1-.49.52Zm-.14-6a.5.5,0,0,1-.5-.49l-.07-3a.52.52,0,0,1,.49-.51.51.51,0,0,1,.51.49l.07,3a.49.49,0,0,1-.49.51Zm-.13-6a.5.5,0,0,1-.5-.49l-.07-3a.49.49,0,0,1,.49-.51.52.52,0,0,1,.51.49l.07,3a.52.52,0,0,1-.49.51Zm-.14-6a.51.51,0,0,1-.5-.49l-.06-3a.5.5,0,0,1,.48-.52.52.52,0,0,1,.52.49l.06,3a.5.5,0,0,1-.49.52Zm.13-5.88a.48.48,0,0,1-.3-.11.5.5,0,0,1-.1-.7l1.81-2.37a.5.5,0,0,1,.7-.09.51.51,0,0,1,.1.7l-1.81,2.37A.51.51,0,0,1,225.71,177.67Zm3.62-4.75a.52.52,0,0,1-.31-.1.51.51,0,0,1-.09-.7l1.81-2.37a.5.5,0,1,1,.79.61l-1.8,2.37A.5.5,0,0,1,229.33,172.92Zm3.62-4.74a.49.49,0,0,1-.4-.8l1.81-2.37a.5.5,0,1,1,.79.61L233.34,168A.47.47,0,0,1,233,168.18Zm3.61-4.74a.49.49,0,0,1-.39-.8l1.81-2.37a.5.5,0,1,1,.79.6L237,163.24A.51.51,0,0,1,236.56,163.44Zm3.62-4.74a.49.49,0,0,1-.39-.8l1.8-2.38a.52.52,0,0,1,.71-.09.51.51,0,0,1,.09.7l-1.81,2.37A.51.51,0,0,1,240.18,158.7ZM243.8,154a.51.51,0,0,1-.4-.81l1.81-2.37a.5.5,0,0,1,.8.61l-1.81,2.37A.51.51,0,0,1,243.8,154Zm3.62-4.75a.47.47,0,0,1-.3-.1.5.5,0,0,1-.1-.7l1.81-2.37a.5.5,0,0,1,.7-.09.51.51,0,0,1,.1.7L247.82,149A.5.5,0,0,1,247.42,149.21Zm3.62-4.74a.52.52,0,0,1-.31-.1.51.51,0,0,1-.09-.7l1.81-2.37a.51.51,0,0,1,.7-.1.52.52,0,0,1,.1.71l-1.81,2.37A.5.5,0,0,1,251,144.47Zm3.62-4.74a.49.49,0,0,1-.4-.8l1.81-2.37a.5.5,0,1,1,.79.6l-1.81,2.37A.47.47,0,0,1,254.66,139.73Zm3.62-4.74a.49.49,0,0,1-.4-.8l1.81-2.38a.5.5,0,1,1,.79.61l-1.81,2.37A.49.49,0,0,1,258.28,135Zm3.61-4.74a.5.5,0,0,1-.3-.11.49.49,0,0,1-.09-.7l1.81-2.37a.5.5,0,0,1,.79.61l-1.81,2.37A.51.51,0,0,1,261.89,130.25Zm3.62-4.75a.49.49,0,0,1-.39-.8l1.8-2.37a.5.5,0,0,1,.8.61l-1.81,2.37A.5.5,0,0,1,265.51,125.5Zm3.62-4.74a.47.47,0,0,1-.3-.1.51.51,0,0,1-.1-.7l1.81-2.37a.5.5,0,1,1,.8.61l-1.81,2.37A.53.53,0,0,1,269.13,120.76Zm3.62-4.74a.47.47,0,0,1-.3-.1.5.5,0,0,1-.1-.7l1.81-2.37a.5.5,0,0,1,.7-.1.51.51,0,0,1,.1.7l-1.81,2.37A.51.51,0,0,1,272.75,116Zm3.62-4.74a.49.49,0,0,1-.4-.8l1.81-2.38a.5.5,0,1,1,.79.61l-1.81,2.37A.47.47,0,0,1,276.37,111.28Zm3.62-4.74a.51.51,0,0,1-.31-.11.49.49,0,0,1-.09-.7l1.81-2.37a.5.5,0,1,1,.79.61l-1.81,2.37A.47.47,0,0,1,280,106.54Z" fill="#231f20"/><path d="M283.6,101.79a.49.49,0,0,1-.39-.8l.58-.76-.81-.51a.51.51,0,0,1-.16-.69.5.5,0,0,1,.69-.15l1.27.8a.52.52,0,0,1,.23.33.53.53,0,0,1-.1.4L284,101.6A.5.5,0,0,1,283.6,101.79Z" fill="#231f20"/><path d="M111,107.44a.47.47,0,0,1-.35-.15.5.5,0,0,1,0-.71l2.12-2.07a.51.51,0,0,1,.71,0,.5.5,0,0,1,0,.71l-2.13,2.07A.5.5,0,0,1,111,107.44Zm4.25-4.14a.47.47,0,0,1-.35-.15.48.48,0,0,1,0-.7l2.12-2.07a.5.5,0,0,1,.71,0,.49.49,0,0,1,0,.7l-2.13,2.07A.46.46,0,0,1,115.22,103.3Zm4.26-4.13a.5.5,0,0,1-.35-.86l2.12-2.07a.5.5,0,0,1,.7.72L119.82,99A.49.49,0,0,1,119.48,99.17Zm161.26-1a.53.53,0,0,1-.27-.08L278,96.55a.5.5,0,1,1,.54-.84L281,97.29a.51.51,0,0,1-.27.93Zm-5-3.17a.5.5,0,0,1-.27-.08L273,93.39a.5.5,0,0,1-.15-.69.49.49,0,0,1,.69-.16l2.5,1.58a.49.49,0,0,1,.16.69A.52.52,0,0,1,275.73,95.05Zm-152,0a.5.5,0,0,1-.35-.86l2.12-2.07a.51.51,0,0,1,.71,0,.5.5,0,0,1,0,.71l-2.13,2.07A.49.49,0,0,1,123.73,95Zm147-3.15a.5.5,0,0,1-.26-.08l-2.51-1.58a.51.51,0,0,1-.16-.69.5.5,0,0,1,.69-.16L271,91a.5.5,0,0,1-.27.92ZM128,90.89a.49.49,0,0,1-.36-.15.48.48,0,0,1,0-.7L129.75,88a.5.5,0,0,1,.71,0,.49.49,0,0,1,0,.7l-2.13,2.07A.45.45,0,0,1,128,90.89ZM265.7,88.71a.53.53,0,0,1-.27-.08l-2.51-1.58a.5.5,0,0,1,.54-.85L266,87.79a.5.5,0,0,1-.27.92ZM132.23,86.76a.5.5,0,0,1-.35-.86L134,83.83a.5.5,0,1,1,.7.72l-2.12,2.07A.54.54,0,0,1,132.23,86.76Zm128.46-1.22a.5.5,0,0,1-.27-.08l-2.51-1.58a.5.5,0,0,1,.54-.85l2.5,1.59a.49.49,0,0,1,.16.69A.51.51,0,0,1,260.69,85.54ZM136.48,82.62a.5.5,0,0,1-.35-.86l2.12-2.07a.51.51,0,0,1,.71,0,.5.5,0,0,1,0,.71l-2.12,2.07A.54.54,0,0,1,136.48,82.62Zm119.19-.25a.47.47,0,0,1-.27-.08l-2.5-1.58a.49.49,0,0,1-.16-.69.51.51,0,0,1,.69-.16l2.51,1.59a.5.5,0,0,1,.15.69A.48.48,0,0,1,255.67,82.37Zm-5-3.17a.45.45,0,0,1-.27-.08l-2.51-1.58a.5.5,0,0,1-.15-.69.51.51,0,0,1,.69-.16l2.51,1.59a.5.5,0,0,1,.15.69A.49.49,0,0,1,250.66,79.2Zm-109.93-.72a.51.51,0,0,1-.36-.15.49.49,0,0,1,0-.7l2.12-2.07a.5.5,0,0,1,.71,0,.49.49,0,0,1,0,.7l-2.12,2.07A.49.49,0,0,1,140.73,78.48ZM245.65,76a.43.43,0,0,1-.27-.08l-2.51-1.58a.5.5,0,0,1-.15-.69.51.51,0,0,1,.69-.16l2.5,1.59a.49.49,0,0,1,.16.69A.51.51,0,0,1,245.65,76ZM145,74.35a.5.5,0,0,1-.35-.86l2.12-2.07a.5.5,0,1,1,.7.72l-2.12,2.07A.54.54,0,0,1,145,74.35Zm95.65-1.49a.54.54,0,0,1-.27-.07l-2.5-1.59a.49.49,0,0,1-.16-.69.5.5,0,0,1,.69-.15l2.51,1.58a.5.5,0,0,1,.15.69A.48.48,0,0,1,240.63,72.86Zm-91.4-2.65a.5.5,0,0,1-.35-.86L150.24,68a.58.58,0,0,1,.26-.13l1-.2a.49.49,0,0,1,.58.4.48.48,0,0,1-.39.58l-.9.17-1.25,1.23A.54.54,0,0,1,149.23,70.21Zm86.39-.52a.52.52,0,0,1-.27-.07L232.84,68a.5.5,0,1,1,.54-.84l2.51,1.58a.5.5,0,0,1,.15.69A.49.49,0,0,1,235.62,69.69Zm-81.08-1.57a.51.51,0,0,1-.49-.41.5.5,0,0,1,.4-.58l2.91-.56A.49.49,0,0,1,158,67a.51.51,0,0,1-.4.59l-2.91.56ZM160.37,67a.5.5,0,0,1-.49-.41.49.49,0,0,1,.4-.58l2.91-.57a.5.5,0,0,1,.58.4.49.49,0,0,1-.39.58l-2.92.57Zm70.24-.48a.5.5,0,0,1-.27-.07l-2.51-1.59a.5.5,0,1,1,.54-.84l2.5,1.58a.49.49,0,0,1,.16.69A.51.51,0,0,1,230.61,66.52Zm-64.42-.65a.5.5,0,0,1-.49-.4.51.51,0,0,1,.4-.59l2.91-.56a.51.51,0,0,1,.59.4.5.5,0,0,1-.4.58l-2.91.56ZM172,64.75a.49.49,0,0,1-.49-.41.48.48,0,0,1,.39-.58l2.91-.56a.49.49,0,0,1,.59.39.5.5,0,0,1-.4.59l-2.91.56Zm5.82-1.12a.51.51,0,0,1-.49-.41.49.49,0,0,1,.4-.58l2.91-.57a.5.5,0,0,1,.58.4.48.48,0,0,1-.39.58l-2.91.57Zm47.75-.28a.54.54,0,0,1-.27-.07l-2.5-1.59a.49.49,0,0,1-.16-.69.5.5,0,0,1,.69-.15l2.51,1.58a.5.5,0,0,1,.15.69A.48.48,0,0,1,225.59,63.35Zm-41.93-.85a.5.5,0,0,1-.49-.4.51.51,0,0,1,.4-.59l2.91-.56a.5.5,0,1,1,.19,1l-2.91.56Zm5.83-1.12a.5.5,0,0,1-.1-1l2.92-.56a.49.49,0,0,1,.58.39.5.5,0,0,1-.39.59l-2.92.56Zm5.82-1.12a.51.51,0,0,1-.49-.41.5.5,0,0,1,.4-.58l2.91-.57a.5.5,0,0,1,.19,1l-2.91.56Zm25.27-.07a.53.53,0,0,1-.27-.08l-2.51-1.59a.5.5,0,0,1,.54-.84l2.51,1.58a.51.51,0,0,1-.27.93Zm-19.45-1.06a.5.5,0,0,1-.49-.4.51.51,0,0,1,.4-.59l2.91-.56a.5.5,0,1,1,.19,1l-2.91.56ZM207,58a.5.5,0,0,1-.49-.41.49.49,0,0,1,.4-.58l2.91-.56a.5.5,0,0,1,.19,1l-2.92.56Zm8.6-1a.5.5,0,0,1-.26-.08l-.64-.41-1.78.35a.51.51,0,0,1-.59-.4.5.5,0,0,1,.4-.58l2-.39a.55.55,0,0,1,.36.07l.81.51a.5.5,0,0,1,.16.69A.52.52,0,0,1,215.56,57Z" fill="#231f20"/><path d="M108,112a.5.5,0,0,1-.49-.41l-.25-1.48a.49.49,0,0,1,.15-.44l1.07-1a.5.5,0,1,1,.7.72l-.89.86.21,1.22a.51.51,0,0,1-.41.58Z" fill="#231f20"/><path d="M123,199.84a.49.49,0,0,1-.49-.41l-.5-2.93a.5.5,0,1,1,1-.17l.5,2.93a.5.5,0,0,1-.41.57ZM122,194a.49.49,0,0,1-.49-.42l-.5-2.92a.5.5,0,1,1,1-.17l.5,2.92a.49.49,0,0,1-.41.58Zm-1-5.86a.49.49,0,0,1-.49-.41l-.5-2.93a.5.5,0,1,1,1-.17l.5,2.93a.51.51,0,0,1-.41.58Zm-1-5.85a.51.51,0,0,1-.5-.42l-.49-2.92a.5.5,0,0,1,.4-.58.51.51,0,0,1,.58.41l.5,2.93a.49.49,0,0,1-.41.57Zm-1-5.85a.5.5,0,0,1-.49-.42l-.5-2.93a.49.49,0,0,1,.41-.57.5.5,0,0,1,.58.41l.49,2.92a.49.49,0,0,1-.4.58Zm-1-5.86a.5.5,0,0,1-.49-.41l-.5-2.93a.5.5,0,1,1,1-.17l.5,2.93a.51.51,0,0,1-.41.58Zm-1-5.85a.49.49,0,0,1-.49-.42l-.5-2.92a.5.5,0,1,1,1-.17l.5,2.93a.48.48,0,0,1-.41.57Zm-1-5.85a.5.5,0,0,1-.49-.42l-.5-2.93a.5.5,0,0,1,1-.17l.5,2.93a.51.51,0,0,1-.41.58ZM115,153a.51.51,0,0,1-.5-.41l-.49-2.93a.5.5,0,0,1,.41-.58.5.5,0,0,1,.57.41l.5,2.93a.49.49,0,0,1-.41.57Zm-1-5.85a.49.49,0,0,1-.49-.42l-.5-2.93a.49.49,0,0,1,.41-.57.5.5,0,0,1,.58.41l.49,2.92a.49.49,0,0,1-.41.58Zm-1-5.86a.49.49,0,0,1-.49-.41L112,138a.5.5,0,1,1,1-.17l.5,2.93a.51.51,0,0,1-.41.58Zm-1-5.85a.49.49,0,0,1-.49-.42l-.5-2.92a.5.5,0,1,1,1-.17l.5,2.93a.48.48,0,0,1-.41.57Zm-1-5.85a.5.5,0,0,1-.49-.42l-.5-2.93a.5.5,0,0,1,1-.17l.5,2.93a.51.51,0,0,1-.41.58Zm-1-5.86a.51.51,0,0,1-.5-.41L109,120.4a.5.5,0,1,1,1-.17l.5,2.93a.49.49,0,0,1-.41.57Zm-1-5.85a.49.49,0,0,1-.49-.42l-.5-2.92a.5.5,0,0,1,.41-.58.51.51,0,0,1,.58.41l.49,2.92a.49.49,0,0,1-.4.58Z" fill="#231f20"/><path d="M123.71,204.25a.5.5,0,0,1-.26-.08.51.51,0,0,1-.23-.34l-.25-1.48a.49.49,0,0,1,.41-.57.5.5,0,0,1,.58.41l.15.91.88-.28a.49.49,0,0,1,.63.32.5.5,0,0,1-.33.63l-1.42.45A.41.41,0,0,1,123.71,204.25Z" fill="#231f20"/><path d="M128,202.89a.5.5,0,0,1-.15-1l2.86-.91a.49.49,0,0,1,.62.33.49.49,0,0,1-.32.62l-2.86.91Zm5.71-1.81a.48.48,0,0,1-.47-.34.49.49,0,0,1,.32-.63l2.86-.91a.5.5,0,0,1,.3,1l-2.86.9A.39.39,0,0,1,133.71,201.08Zm5.71-1.8a.5.5,0,0,1-.15-1l2.86-.9a.5.5,0,1,1,.3.95l-2.85.9A.45.45,0,0,1,139.42,199.28Zm5.72-1.81a.51.51,0,0,1-.48-.35.51.51,0,0,1,.33-.63l2.85-.9a.5.5,0,0,1,.63.33.49.49,0,0,1-.33.62l-2.85.91Zm5.71-1.81a.5.5,0,0,1-.15-1l2.85-.91a.5.5,0,0,1,.31,1l-2.86.9A.39.39,0,0,1,150.85,195.66Zm5.71-1.8a.51.51,0,0,1-.48-.35.51.51,0,0,1,.33-.63l2.86-.9a.49.49,0,0,1,.62.32.49.49,0,0,1-.32.63l-2.86.9Zm5.71-1.81a.49.49,0,0,1-.47-.35.5.5,0,0,1,.32-.63l2.86-.9a.5.5,0,1,1,.3,1l-2.86.91Zm5.72-1.81a.5.5,0,0,1-.16-1l2.86-.91a.5.5,0,0,1,.3,1l-2.85.9A.39.39,0,0,1,168,190.24Zm5.71-1.8a.51.51,0,0,1-.48-.35.5.5,0,0,1,.33-.63l2.85-.9a.5.5,0,1,1,.3.95l-2.85.9A.4.4,0,0,1,173.7,188.44Zm5.71-1.81a.5.5,0,0,1-.15-1l2.86-.9a.49.49,0,0,1,.62.33.49.49,0,0,1-.32.62l-2.86.91Zm5.71-1.81a.48.48,0,0,1-.47-.35.49.49,0,0,1,.32-.62l2.86-.91a.49.49,0,0,1,.62.33.5.5,0,0,1-.32.63l-2.86.9A.39.39,0,0,1,185.12,184.82Zm5.71-1.8a.5.5,0,0,1-.15-1l2.86-.9a.5.5,0,0,1,.63.32.51.51,0,0,1-.33.63L191,183Zm5.72-1.81a.5.5,0,0,1-.15-1l2.85-.9a.5.5,0,1,1,.3.95l-2.85.91Zm5.71-1.81a.5.5,0,0,1-.48-.35.49.49,0,0,1,.33-.62l2.85-.91a.5.5,0,0,1,.3,1l-2.85.9Zm5.71-1.8a.51.51,0,0,1-.48-.35.51.51,0,0,1,.33-.63l2.86-.91a.5.5,0,0,1,.3,1l-2.86.9A.4.4,0,0,1,208,177.6Zm5.71-1.81a.5.5,0,0,1-.15-1l2.86-.9a.49.49,0,0,1,.62.32.49.49,0,0,1-.32.63l-2.86.9A.4.4,0,0,1,213.68,175.79Z" fill="#231f20"/><path d="M219.39,174a.49.49,0,0,1-.47-.35.5.5,0,0,1,.32-.63l.35-.1-.32-.18a.51.51,0,0,1-.18-.69.5.5,0,0,1,.68-.18l1.3.75a.48.48,0,0,1,.25.48.51.51,0,0,1-.35.43l-1.43.45Z" fill="#231f20"/><path d="M216.92,171.29a.42.42,0,0,1-.24-.07l-2.6-1.49a.5.5,0,0,1-.19-.68.52.52,0,0,1,.69-.19l2.59,1.5a.49.49,0,0,1,.19.68A.5.5,0,0,1,216.92,171.29Zm-5.19-3a.55.55,0,0,1-.25-.07l-2.6-1.49a.52.52,0,0,1-.19-.69.51.51,0,0,1,.69-.18l2.6,1.49a.5.5,0,0,1,.18.68A.49.49,0,0,1,211.73,168.31Zm-5.2-3a.45.45,0,0,1-.25-.07l-2.6-1.49a.5.5,0,1,1,.5-.86l2.6,1.49a.5.5,0,0,1-.25.93Zm-5.2-3a.59.59,0,0,1-.25-.07l-2.6-1.49a.51.51,0,0,1-.18-.69.49.49,0,0,1,.68-.18l2.6,1.49a.5.5,0,0,1,.18.68A.49.49,0,0,1,201.33,162.34Zm-5.2-3a.57.57,0,0,1-.25-.06l-2.59-1.5a.49.49,0,1,1,.49-.86l2.6,1.49a.51.51,0,0,1,.19.68A.51.51,0,0,1,196.13,159.35Zm-5.2-3a.42.42,0,0,1-.24-.07l-2.6-1.49a.5.5,0,0,1-.19-.68.49.49,0,0,1,.68-.19l2.6,1.49a.51.51,0,0,1,.19.69A.5.5,0,0,1,190.93,156.37Zm-5.19-3a.54.54,0,0,1-.25-.06l-2.6-1.5a.5.5,0,1,1,.5-.86l2.6,1.49a.5.5,0,0,1-.25.93Zm-5.2-3a.45.45,0,0,1-.25-.07l-2.6-1.49a.5.5,0,0,1,.5-.87l2.6,1.49a.51.51,0,0,1,.18.69A.5.5,0,0,1,180.54,150.4Zm-5.2-3a.57.57,0,0,1-.25-.06l-2.6-1.5a.5.5,0,1,1,.5-.86l2.6,1.49a.5.5,0,0,1-.25.93Zm-5.2-3a.47.47,0,0,1-.25-.07l-2.6-1.49a.5.5,0,0,1,.5-.87l2.6,1.49a.52.52,0,0,1,.19.69A.51.51,0,0,1,170.14,144.43Zm-5.19-3a.51.51,0,0,1-.25-.06l-2.6-1.5a.49.49,0,1,1,.49-.86l2.6,1.49a.5.5,0,0,1-.24.93Zm-5.2-3a.45.45,0,0,1-.25-.07l-2.6-1.49a.51.51,0,0,1-.19-.68.52.52,0,0,1,.69-.19l2.6,1.5a.5.5,0,0,1-.25.93Zm-5.2-3a.54.54,0,0,1-.25-.06l-2.6-1.49a.51.51,0,0,1-.18-.69.49.49,0,0,1,.68-.18l2.6,1.49a.5.5,0,0,1-.25.93Zm-5.2-3a.47.47,0,0,1-.25-.07l-2.6-1.49a.49.49,0,0,1-.18-.68.51.51,0,0,1,.68-.19l2.6,1.5a.5.5,0,0,1,.19.68A.52.52,0,0,1,149.35,132.49Zm-5.2-3a.57.57,0,0,1-.25-.06L141.31,128a.51.51,0,0,1-.19-.69.5.5,0,0,1,.68-.18l2.6,1.49a.51.51,0,0,1,.19.68A.49.49,0,0,1,144.15,129.5Zm-5.19-3a.43.43,0,0,1-.25-.07l-2.6-1.49a.51.51,0,0,1-.19-.68.52.52,0,0,1,.69-.19l2.59,1.5a.5.5,0,0,1-.24.93Zm-5.2-3a.55.55,0,0,1-.25-.07l-2.6-1.49a.52.52,0,0,1-.19-.69.51.51,0,0,1,.69-.18l2.6,1.49a.49.49,0,0,1,.18.68A.49.49,0,0,1,133.76,123.54Zm-5.2-3a.45.45,0,0,1-.25-.07l-2.6-1.49a.49.49,0,0,1-.18-.68.51.51,0,0,1,.68-.19l2.6,1.5a.5.5,0,0,1-.25.93Zm-5.2-3a.59.59,0,0,1-.25-.07l-2.6-1.49a.51.51,0,0,1-.18-.69.49.49,0,0,1,.68-.18l2.6,1.49a.5.5,0,0,1,.18.68A.49.49,0,0,1,123.36,117.57Zm-5.2-3a.57.57,0,0,1-.25-.06l-2.59-1.5a.49.49,0,1,1,.49-.86l2.6,1.49a.51.51,0,0,1,.19.68A.51.51,0,0,1,118.16,114.58Z" fill="#231f20"/><path d="M113,111.6a.43.43,0,0,1-.25-.07l-1.3-.75a.49.49,0,1,1,.49-.86l1.3.74a.51.51,0,0,1,.19.69A.5.5,0,0,1,113,111.6Z" fill="#231f20"/><path d="M205.25,120.54a.46.46,0,0,1-.33-.13.52.52,0,0,1-.06-.73.47.47,0,0,1,.68-.05l.05.05a.5.5,0,0,1-.34.86ZM203,118.46a.51.51,0,0,1-.34-.14l-2.2-2a.5.5,0,0,1,.68-.74l2.2,2a.5.5,0,0,1,0,.71A.52.52,0,0,1,203,118.46Zm-4.4-4.08a.5.5,0,0,1-.34-.13l-2.2-2a.5.5,0,0,1,.68-.74l2.2,2a.5.5,0,0,1,0,.71A.49.49,0,0,1,198.6,114.38Zm-4.4-4.08a.5.5,0,0,1-.34-.13l-2.2-2a.51.51,0,0,1,0-.71.5.5,0,0,1,.71,0l2.2,2a.5.5,0,0,1-.34.87Zm-4.4-4.08a.5.5,0,0,1-.34-.13l-2.2-2a.5.5,0,1,1,.68-.73l2.2,2a.5.5,0,0,1-.34.86Zm-4.4-4.07a.51.51,0,0,1-.34-.14l-2.2-2a.5.5,0,1,1,.68-.73l2.2,2a.51.51,0,0,1,0,.71A.54.54,0,0,1,185.4,102.15ZM181,98.07a.49.49,0,0,1-.34-.14l-2.2-2a.5.5,0,1,1,.68-.74l2.2,2a.51.51,0,0,1,0,.71A.54.54,0,0,1,181,98.07ZM176.6,94a.47.47,0,0,1-.34-.13l-2.2-2a.5.5,0,0,1,0-.71.51.51,0,0,1,.71,0l2.2,2a.5.5,0,0,1,0,.71A.46.46,0,0,1,176.6,94Zm-4.4-4.08a.47.47,0,0,1-.34-.13l-2.2-2a.5.5,0,1,1,.67-.73l2.21,2a.5.5,0,0,1,0,.71A.48.48,0,0,1,172.2,89.91Zm-4.41-4.08a.46.46,0,0,1-.33-.13l-2.21-2a.5.5,0,0,1,0-.71.49.49,0,0,1,.7,0l2.2,2a.5.5,0,0,1-.34.86Zm-4.4-4.07a.51.51,0,0,1-.34-.14l-2.2-2a.49.49,0,0,1,0-.7.48.48,0,0,1,.7,0l2.2,2a.5.5,0,0,1,0,.71A.52.52,0,0,1,163.39,81.76ZM159,77.68a.51.51,0,0,1-.34-.14l-2.2-2a.5.5,0,1,1,.68-.74l2.2,2a.5.5,0,0,1,0,.71A.52.52,0,0,1,159,77.68Zm-4.4-4.08a.5.5,0,0,1-.34-.13l-2.2-2a.5.5,0,1,1,.68-.74l2.2,2a.5.5,0,0,1-.34.87Z" fill="#231f20"/><path d="M225.46,178a.49.49,0,0,1-.47-.34l-1-2.73a.48.48,0,0,1,.3-.63.49.49,0,0,1,.64.3l1,2.73a.51.51,0,0,1-.31.64A.45.45,0,0,1,225.46,178Zm-2-5.56a.5.5,0,0,1-.47-.34l-1-2.83a.48.48,0,0,1,.3-.63.49.49,0,0,1,.64.3l1,2.83a.49.49,0,0,1-.3.64A.51.51,0,0,1,223.5,172.44Zm-2-5.66a.5.5,0,0,1-.47-.34l-1-2.83a.48.48,0,0,1,.3-.63.49.49,0,0,1,.64.3l1,2.83a.49.49,0,0,1-.3.64A.51.51,0,0,1,221.51,166.78Zm-2-5.66a.5.5,0,0,1-.47-.34l-1-2.83a.48.48,0,0,1,.3-.63.49.49,0,0,1,.64.3l1,2.83a.49.49,0,0,1-.3.64A.51.51,0,0,1,219.52,161.12Zm-2-5.66a.5.5,0,0,1-.47-.34l-1-2.83a.48.48,0,0,1,.3-.63.49.49,0,0,1,.64.3l1,2.83a.49.49,0,0,1-.3.64A.51.51,0,0,1,217.53,155.46Zm-2-5.66a.5.5,0,0,1-.47-.34l-1-2.83a.5.5,0,0,1,.3-.64.51.51,0,0,1,.64.31l1,2.83a.49.49,0,0,1-.3.64A.51.51,0,0,1,215.54,149.8Zm-2-5.66a.49.49,0,0,1-.47-.34l-1-2.83a.5.5,0,0,1,.95-.33l1,2.83a.5.5,0,0,1-.3.64A.51.51,0,0,1,213.55,144.14Zm-2-5.66a.49.49,0,0,1-.47-.34l-1-2.83A.5.5,0,0,1,211,135l1,2.83a.5.5,0,0,1-.3.64A.51.51,0,0,1,211.56,138.48Zm-2-5.66a.49.49,0,0,1-.47-.34l-1-2.83a.5.5,0,1,1,1-.33l1,2.83a.5.5,0,0,1-.3.64Zm-2-5.66a.49.49,0,0,1-.47-.34l-1-2.83a.5.5,0,1,1,.95-.33l1,2.83a.5.5,0,0,1-.3.64Zm-2-5.66a.49.49,0,0,1-.47-.34l-.23-.65-1.67-.17a.5.5,0,0,1,.11-1l2,.21a.5.5,0,0,1,.42.33l.33,1a.5.5,0,0,1-.3.64Zm-5.3-1.47h0l-3-.3a.5.5,0,0,1-.44-.55.5.5,0,0,1,.55-.45l3,.31a.5.5,0,0,1,.45.55A.51.51,0,0,1,200.29,120Zm-6-.61h0l-3-.31a.49.49,0,0,1-.45-.54.51.51,0,0,1,.55-.45l3,.31a.49.49,0,0,1,.45.54A.5.5,0,0,1,194.32,119.42Zm-6-.61h0l-3-.31a.49.49,0,0,1-.45-.54.51.51,0,0,1,.55-.45l3,.3a.5.5,0,0,1-.05,1Zm-6-.61h0l-3-.31a.5.5,0,0,1-.45-.55.51.51,0,0,1,.55-.44l3,.3a.5.5,0,0,1-.05,1Zm-6-.61h-.06l-3-.31a.51.51,0,0,1-.45-.55.5.5,0,0,1,.55-.44l3,.3a.5.5,0,0,1,.44.55A.49.49,0,0,1,176.42,117.59Zm-6-.61h0l-3-.3a.51.51,0,0,1-.45-.55.52.52,0,0,1,.55-.45l3,.31a.5.5,0,0,1,.44.55A.49.49,0,0,1,170.45,117Zm-6-.61h0l-3-.3a.5.5,0,0,1-.44-.55.49.49,0,0,1,.54-.45l3,.31a.5.5,0,0,1-.05,1Zm-6-.62h0l-3-.3a.5.5,0,0,1-.44-.55.51.51,0,0,1,.55-.45l3,.31a.5.5,0,0,1-.05,1Zm-6-.61h0l-3-.31a.49.49,0,0,1-.44-.54.5.5,0,0,1,.55-.45l3,.3a.5.5,0,0,1-.05,1Zm-6-.61h0l-3-.31a.5.5,0,0,1-.45-.55.5.5,0,0,1,.55-.44l3,.3a.5.5,0,0,1-.05,1Zm-6-.61h0l-3-.31a.5.5,0,0,1-.45-.55.52.52,0,0,1,.55-.44l3,.3a.5.5,0,0,1-.05,1Zm-6-.61h0l-3-.31a.5.5,0,0,1-.45-.55.52.52,0,0,1,.55-.45l3,.31a.5.5,0,0,1-.05,1Zm-6-.61h-.06l-3-.3a.5.5,0,1,1,.1-1l3,.31a.5.5,0,0,1-.05,1Zm-6-.62h0l-3-.3a.52.52,0,0,1-.45-.55.5.5,0,0,1,.55-.45l3,.31a.5.5,0,0,1,.44.55A.49.49,0,0,1,122.7,112.08Zm-6-.61h0l-3-.31a.49.49,0,0,1-.44-.54.5.5,0,0,1,.54-.45l3,.31a.5.5,0,0,1,0,1Zm-6-.61h-.05l-3-.31a.5.5,0,0,1-.44-.55.51.51,0,0,1,.55-.44l3,.3a.52.52,0,0,1,.45.55A.51.51,0,0,1,110.76,110.86Z" fill="#231f20"/><path d="M227.42,239.2a.51.51,0,0,1-.36-.15.51.51,0,0,1,0-.71l2.13-2.12a.5.5,0,0,1,.7,0,.5.5,0,0,1,0,.71l-2.12,2.12A.5.5,0,0,1,227.42,239.2Zm4.25-4.24a.51.51,0,0,1-.36-.15.51.51,0,0,1,0-.71l2.13-2.11a.49.49,0,0,1,.7.7L232,234.81A.5.5,0,0,1,231.67,235Zm4.24-4.24a.54.54,0,0,1-.35-.14.51.51,0,0,1,0-.71l2.12-2.12a.5.5,0,0,1,.71,0,.5.5,0,0,1,0,.71l-2.12,2.12A.54.54,0,0,1,235.91,230.72Zm4.25-4.24a.47.47,0,0,1-.35-.14.5.5,0,0,1,0-.71l2.12-2.12a.5.5,0,0,1,.71.71l-2.12,2.12A.5.5,0,0,1,240.16,226.48Zm4.25-4.23a.47.47,0,0,1-.35-.15.5.5,0,0,1,0-.71l2.12-2.11a.5.5,0,0,1,.71,0,.5.5,0,0,1,0,.7l-2.13,2.12A.47.47,0,0,1,244.41,222.25Zm4.25-4.24a.47.47,0,0,1-.35-.15.48.48,0,0,1,0-.7l2.12-2.12a.5.5,0,0,1,.71,0,.51.51,0,0,1,0,.71L249,217.87A.5.5,0,0,1,248.66,218Zm4.25-4.24a.5.5,0,0,1-.36-.14.51.51,0,0,1,0-.71l2.13-2.12a.5.5,0,0,1,.7,0,.5.5,0,0,1,0,.71l-2.12,2.12A.47.47,0,0,1,252.91,213.77Zm4.25-4.23a.51.51,0,0,1-.36-.15.51.51,0,0,1,0-.71l2.13-2.12a.49.49,0,0,1,.7,0,.48.48,0,0,1,0,.7l-2.12,2.12A.5.5,0,0,1,257.16,209.54Zm4.24-4.24a.5.5,0,0,1-.35-.85l2.12-2.12a.5.5,0,0,1,.71.71l-2.12,2.11A.51.51,0,0,1,261.4,205.3Zm-143.07-1.92a.49.49,0,0,1-.36-.15.5.5,0,0,1,0-.71l.84-.8a.51.51,0,0,1,.71,0,.5.5,0,0,1,0,.71l-.84.8A.49.49,0,0,1,118.33,203.38Zm147.32-2.32a.52.52,0,0,1-.35-.14.5.5,0,0,1,0-.71l2.12-2.12a.51.51,0,0,1,.71,0,.5.5,0,0,1,0,.71L266,200.92A.54.54,0,0,1,265.65,201.06Zm-144.31-.55a.51.51,0,0,1-.36-.15.5.5,0,0,1,0-.71l2.17-2.07a.5.5,0,0,1,.69.72l-2.18,2.07A.49.49,0,0,1,121.34,200.51Zm148.56-3.68a.47.47,0,0,1-.35-.15.5.5,0,0,1,0-.71l2.12-2.12a.5.5,0,0,1,.71.71l-2.13,2.12A.47.47,0,0,1,269.9,196.83Zm-144.22-.46a.5.5,0,0,1-.34-.86l2.17-2.07a.5.5,0,0,1,.71,0,.49.49,0,0,1,0,.7L126,196.23A.47.47,0,0,1,125.68,196.37Zm148.47-3.78a.51.51,0,0,1-.36-.15.49.49,0,0,1,0-.7l2.12-2.12a.5.5,0,0,1,.71,0,.51.51,0,0,1,0,.71l-2.13,2.11A.47.47,0,0,1,274.15,192.59ZM130,192.23a.5.5,0,0,1-.35-.86l2.17-2.07a.5.5,0,0,1,.71,0,.49.49,0,0,1,0,.7l-2.17,2.07A.45.45,0,0,1,130,192.23Zm148.37-3.88a.54.54,0,0,1-.36-.14.51.51,0,0,1,0-.71l2.13-2.12a.5.5,0,0,1,.71.71l-2.13,2.12A.52.52,0,0,1,278.4,188.35Zm-144-.26a.5.5,0,0,1-.34-.86l2.17-2.07a.5.5,0,1,1,.69.73L134.72,188A.47.47,0,0,1,134.37,188.09Zm148.28-4a.51.51,0,0,1-.36-.15.51.51,0,0,1,0-.71l2.13-2.12a.5.5,0,0,1,.7,0,.5.5,0,0,1,0,.71L283,184A.5.5,0,0,1,282.65,184.12ZM138.71,184a.5.5,0,0,1-.34-.86l2.17-2.07a.5.5,0,1,1,.69.73l-2.17,2.07A.51.51,0,0,1,138.71,184Zm148.18-4.07a.5.5,0,0,1-.35-.15.51.51,0,0,1,0-.71l2.13-2.11a.49.49,0,0,1,.7.7l-2.12,2.12A.51.51,0,0,1,286.89,179.88Zm-143.83-.07a.5.5,0,0,1-.35-.86l2.17-2.07a.5.5,0,1,1,.69.73l-2.17,2.07A.48.48,0,0,1,143.06,179.81Zm4.34-4.13a.52.52,0,0,1-.36-.16.5.5,0,0,1,0-.71l2.17-2.07a.5.5,0,1,1,.69.73l-2.17,2.07A.52.52,0,0,1,147.4,175.68Zm143.75-.07a.45.45,0,0,1-.34-.14.49.49,0,0,1-.14-.49l-.24-2.76a.5.5,0,1,1,1-.09l.26,2.92a.49.49,0,0,1-.14.4A.57.57,0,0,1,291.15,175.61Zm-139.4-4.07a.52.52,0,0,1-.37-.16.5.5,0,0,1,0-.71l2.17-2.07a.5.5,0,1,1,.69.73l-2.17,2.07A.51.51,0,0,1,151.75,171.54Zm138.91-1.86a.5.5,0,0,1-.5-.45l-.26-3a.49.49,0,0,1,.45-.54.51.51,0,0,1,.54.45l.27,3a.5.5,0,0,1-.46.54ZM156.09,167.4a.52.52,0,0,1-.36-.16.5.5,0,0,1,0-.71l2.18-2.06a.48.48,0,0,1,.7,0,.5.5,0,0,1,0,.71l-2.18,2.07A.49.49,0,0,1,156.09,167.4Zm134-3.69a.5.5,0,0,1-.5-.46l-.26-3a.49.49,0,0,1,.45-.54.51.51,0,0,1,.54.45l.27,3a.51.51,0,0,1-.46.55Zm-129.7-.45a.48.48,0,0,1-.36-.16.49.49,0,0,1,0-.7l2.17-2.07a.5.5,0,1,1,.69.72l-2.17,2.07A.52.52,0,0,1,160.43,163.26Zm4.35-4.14a.49.49,0,0,1-.37-.16.49.49,0,0,1,0-.7l2.17-2.07a.5.5,0,1,1,.69.72L165.12,159A.51.51,0,0,1,164.78,159.12Zm124.82-1.39a.49.49,0,0,1-.5-.45l-.27-3a.51.51,0,0,1,.46-.55.52.52,0,0,1,.54.46l.26,3a.49.49,0,0,1-.45.54ZM169.12,155a.48.48,0,0,1-.36-.16.49.49,0,0,1,0-.7l2.18-2.07a.49.49,0,0,1,.7,0,.5.5,0,0,1,0,.71l-2.18,2.07A.49.49,0,0,1,169.12,155Zm119.94-3.23a.49.49,0,0,1-.49-.45l-.27-3a.5.5,0,0,1,.46-.54.52.52,0,0,1,.54.45l.26,3a.49.49,0,0,1-.45.54Zm-115.6-.91a.48.48,0,0,1-.36-.16.49.49,0,0,1,0-.7l2.17-2.07a.5.5,0,1,1,.69.72l-2.17,2.07A.52.52,0,0,1,173.46,150.84Zm4.35-4.14a.49.49,0,0,1-.37-.16.49.49,0,0,1,0-.7l2.17-2.07a.5.5,0,0,1,.71,0,.49.49,0,0,1,0,.7l-2.17,2.07A.51.51,0,0,1,177.81,146.7Zm110.72-.92a.5.5,0,0,1-.49-.46l-.27-3a.51.51,0,0,1,.45-.54.52.52,0,0,1,.55.46l.26,3a.5.5,0,0,1-.45.55Zm-106.38-3.22a.5.5,0,0,1-.34-.86l2.17-2.07a.49.49,0,0,1,.7,0,.48.48,0,0,1,0,.7l-2.17,2.07A.49.49,0,0,1,182.15,142.56ZM288,139.8a.51.51,0,0,1-.5-.45l-.26-3a.5.5,0,0,1,1-.09l.27,3a.5.5,0,0,1-.45.54Zm-101.51-1.38a.5.5,0,0,1-.34-.86l2.17-2.07a.5.5,0,0,1,.71,0,.49.49,0,0,1,0,.7l-2.17,2.07A.47.47,0,0,1,186.49,138.42Zm4.35-4.14a.53.53,0,0,1-.37-.15.5.5,0,0,1,0-.71l2.17-2.07a.5.5,0,0,1,.71,0,.49.49,0,0,1,0,.7l-2.17,2.07A.47.47,0,0,1,190.84,134.28Zm96.63-.45a.51.51,0,0,1-.5-.46l-.26-3a.49.49,0,0,1,.45-.54.5.5,0,0,1,.54.45l.27,3a.5.5,0,0,1-.46.54Zm-92.29-3.69a.5.5,0,0,1-.34-.86l2.17-2.07a.5.5,0,0,1,.69.73L195.53,130A.53.53,0,0,1,195.18,130.14Zm91.76-2.29a.5.5,0,0,1-.5-.46l-.27-3a.5.5,0,1,1,1-.09l.27,3a.51.51,0,0,1-.46.55ZM199.52,126a.5.5,0,0,1-.34-.86l2.17-2.07a.5.5,0,1,1,.69.73l-2.17,2.07A.51.51,0,0,1,199.52,126Zm86.89-4.13a.49.49,0,0,1-.5-.45l-.27-3a.5.5,0,0,1,.46-.54.51.51,0,0,1,.54.45l.27,3a.5.5,0,0,1-.46.54Zm-82.54,0a.49.49,0,0,1-.36-.15.5.5,0,0,1,0-.71l1.39-1.32a.48.48,0,0,1,.22-.12l1.05-.27a.51.51,0,0,1,.61.37.49.49,0,0,1-.36.6l-.93.24-1.29,1.23A.48.48,0,0,1,203.87,121.86Zm5.35-2.31a.5.5,0,0,1-.13-1l2.91-.73a.5.5,0,1,1,.25,1l-2.91.73Zm5.81-1.47a.5.5,0,0,1-.12-1l2.91-.73a.5.5,0,0,1,.61.36.51.51,0,0,1-.36.61l-2.91.73Zm5.82-1.46a.5.5,0,0,1-.12-1l2.91-.73a.5.5,0,0,1,.61.37.5.5,0,0,1-.37.6l-2.9.73Zm65-.72a.5.5,0,0,1-.49-.46l-.27-3a.5.5,0,0,1,.46-.54.52.52,0,0,1,.54.45l.26,3a.49.49,0,0,1-.45.54Zm-59.2-.74a.5.5,0,0,1-.12-1l2.91-.73a.5.5,0,0,1,.61.36.51.51,0,0,1-.37.61l-2.91.73Zm5.82-1.47a.51.51,0,0,1-.49-.38.5.5,0,0,1,.37-.6l2.91-.74a.5.5,0,0,1,.24,1l-2.91.74Zm5.82-1.46a.5.5,0,0,1-.12-1l2.91-.73a.49.49,0,0,1,.6.36.5.5,0,0,1-.36.61l-2.91.73Zm5.82-1.47a.5.5,0,0,1-.49-.37.51.51,0,0,1,.37-.61l2.91-.73a.49.49,0,0,1,.6.36.5.5,0,0,1-.36.61l-2.91.73Zm41.21-.84a.5.5,0,0,1-.49-.46l-.27-3a.51.51,0,0,1,.45-.55.52.52,0,0,1,.55.46l.26,3a.5.5,0,0,1-.45.54ZM250,109.3a.5.5,0,0,1-.13-1l2.91-.73a.5.5,0,0,1,.61.37.49.49,0,0,1-.36.6l-2.91.73Zm5.81-1.46a.5.5,0,0,1-.12-1l2.91-.73a.5.5,0,0,1,.61.36.51.51,0,0,1-.36.61l-2.91.73Zm5.82-1.47a.5.5,0,0,1-.48-.38.49.49,0,0,1,.36-.6l2.91-.74a.51.51,0,0,1,.61.37.5.5,0,0,1-.36.6l-2.91.74Zm5.82-1.46a.49.49,0,0,1-.48-.38.5.5,0,0,1,.36-.61l2.91-.73a.51.51,0,0,1,.61.36.51.51,0,0,1-.37.61l-2.91.73Zm17.41-1a.5.5,0,0,1-.5-.45l-.26-3a.49.49,0,0,1,.45-.54.5.5,0,0,1,.54.45l.27,3a.5.5,0,0,1-.45.54Zm-11.59-.5a.49.49,0,0,1-.48-.37.5.5,0,0,1,.36-.61l2.91-.73a.5.5,0,0,1,.61.36.51.51,0,0,1-.37.61l-2.91.73ZM279,102a.5.5,0,0,1-.12-1l2.91-.73a.49.49,0,0,1,.6.37.49.49,0,0,1-.36.6l-2.91.73Z" fill="#231f20"/><path d="M137.34,202.88a13.63,13.63,0,1,1-13.63-13.62A13.56,13.56,0,0,1,137.34,202.88Z" fill="#00cba9"/><path d="M123.71,189.26a13.62,13.62,0,1,1-13.62,13.62,13.62,13.62,0,0,1,13.62-13.62m0-.92a14.54,14.54,0,1,0,11.38,23.6,14.39,14.39,0,0,0,3.16-9.06,14.55,14.55,0,0,0-14.54-14.54Z" fill="#231f20"/><path d="M220.66,56.22a5.76,5.76,0,0,1-11.51,0,5.76,5.76,0,0,1,11.51,0Z" fill="#00cba9"/><path d="M214.9,50.47a5.75,5.75,0,0,1,5.76,5.75,5.76,5.76,0,0,1-11.51,0,5.75,5.75,0,0,1,5.75-5.75m0-.91a6.66,6.66,0,1,0,6.67,6.66,6.67,6.67,0,0,0-6.67-6.66Z" fill="#231f20"/><path d="M235.66,238.7a8.77,8.77,0,1,1-8.77-8.77A8.77,8.77,0,0,1,235.66,238.7Z" fill="#00cba9"/><path d="M226.89,229.93a8.77,8.77,0,1,1-8.76,8.77,8.77,8.77,0,0,1,8.76-8.77m0-.91a9.67,9.67,0,1,0,9.68,9.68,9.69,9.69,0,0,0-9.68-9.68Z" fill="#231f20"/><path d="M297.86,174.56a6.68,6.68,0,1,1-6.67-6.67A6.65,6.65,0,0,1,297.86,174.56Z" fill="#00cba9"/><path d="M291.19,167.89a6.67,6.67,0,1,1-6.68,6.67,6.67,6.67,0,0,1,6.68-6.67m0-.92a7.59,7.59,0,1,0,7.58,7.59,7.6,7.6,0,0,0-7.58-7.59Z" fill="#231f20"/><path d="M294,100.44A9.47,9.47,0,1,1,284.51,91,9.44,9.44,0,0,1,294,100.44Z" fill="#00cba9"/><path d="M284.51,91a9.47,9.47,0,1,1-9.46,9.47A9.47,9.47,0,0,1,284.51,91m0-.91a10.38,10.38,0,1,0,10.38,10.38,10.39,10.39,0,0,0-10.38-10.38Z" fill="#231f20"/><path d="M161.31,69.63a11.87,11.87,0,1,1-11.86-11.86A11.81,11.81,0,0,1,161.31,69.63Z" fill="#00cba9"/><path d="M149.45,57.77a11.86,11.86,0,1,1-11.87,11.86,11.86,11.86,0,0,1,11.87-11.86m0-.92a12.77,12.77,0,1,0,12.78,12.78,12.8,12.8,0,0,0-12.78-12.78Z" fill="#231f20"/><path d="M225.46,120a19.32,19.32,0,1,1-19.32-19.31A19.27,19.27,0,0,1,225.46,120Z" fill="#00cba9"/><path d="M206.14,100.73A19.31,19.31,0,1,1,186.82,120a19.32,19.32,0,0,1,19.32-19.31m0-.92A20.23,20.23,0,1,0,222,132.65,20,20,0,0,0,226.37,120a20.25,20.25,0,0,0-20.23-20.23Z" fill="#231f20"/><path d="M117.2,112.35a9.43,9.43,0,1,1-9.43-9.42A9.35,9.35,0,0,1,117.2,112.35Z" fill="#00cba9"/><path d="M107.77,102.93a9.41,9.41,0,1,1-9.42,9.42,9.42,9.42,0,0,1,9.42-9.42m0-.92a10.34,10.34,0,1,0,10.34,10.34A10.35,10.35,0,0,0,107.77,102Z" fill="#231f20"/><path d="M239.08,176.77a13.63,13.63,0,1,1-13.62-13.62A13.56,13.56,0,0,1,239.08,176.77Z" fill="#00cba9"/><path d="M225.46,163.15a13.62,13.62,0,1,1-13.63,13.62,13.62,13.62,0,0,1,13.63-13.62m0-.92a14.54,14.54,0,1,0,11.37,23.6,14.4,14.4,0,0,0,3.17-9.06,14.57,14.57,0,0,0-14.54-14.54Z" fill="#231f20"/></g></svg>