<svg xmlns="http://www.w3.org/2000/svg" data-name="Layer 1" viewBox="0 0 512 512"><path fill="#0635c9" d="M130.027,189.707c0,47.45,37.665,86.054,83.961,86.054s83.96-38.6,83.96-86.054-37.664-86.055-83.96-86.055S130.027,142.256,130.027,189.707Zm155.921,0c0,40.833-32.281,74.054-71.96,74.054s-71.961-33.221-71.961-74.054,32.282-74.055,71.961-74.055S285.948,148.873,285.948,189.707Z"/><path fill="#0635c9" d="M209.613,475.677a6,6,0,0,0,8.749,0l39.117-41.665a6,6,0,1,0-8.748-8.213l-34.743,37.006L88.125,328.741C69.5,308.9,55.81,287.212,47.442,264.278a174.857,174.857,0,0,1-10.583-71.969,186.233,186.233,0,0,1,53.766-119.1,174.2,174.2,0,0,1,246.727,0,186.237,186.237,0,0,1,53.765,119.1,173.87,173.87,0,0,1-7.784,63.706,6,6,0,0,0,11.453,3.582,185.843,185.843,0,0,0,8.3-68.089A198.232,198.232,0,0,0,345.852,64.739a186.2,186.2,0,0,0-263.728,0A198.237,198.237,0,0,0,24.886,191.508a186.772,186.772,0,0,0,11.283,76.884c8.926,24.464,23.463,47.533,43.206,68.562Z"/><path fill="#1ae5be" d="M360.789,248.552A126.724,126.724,0,1,0,487.513,375.275,126.867,126.867,0,0,0,360.789,248.552Zm0,241.448A114.724,114.724,0,1,1,475.513,375.275,114.854,114.854,0,0,1,360.789,490Z"/><path fill="#1ae5be" d="M358.482,307.606,267.11,345.651a6,6,0,0,0,0,11.078l32.061,13.349v36.686a6,6,0,0,0,6,6h3.958c13.265,0,27.308,12.814,36.6,21.3,6.6,6.026,10.243,9.346,14.414,9.346,4.127,0,7.537-3.127,14.33-9.355,9.244-8.477,23.214-21.286,36.039-21.286h4.7a6,6,0,0,0,6-6v-36.19l8.657-3.6V389.3a6,6,0,0,0,12,0V361.974l12.595-5.245a6,6,0,0,0,0-11.078L363.1,307.606A6,6,0,0,0,358.482,307.606Zm50.733,93.184c-16.988.7-32.5,14.924-42.853,24.415-2.113,1.938-4.608,4.227-6.247,5.517-1.649-1.285-4.167-3.583-6.3-5.528-10.254-9.357-25.55-23.316-42.646-24.367V375.075l47.311,19.7a6,6,0,0,0,4.614,0l46.119-19.2Zm-48.426-18.055L285.026,351.19l75.763-31.545,75.762,31.545Z"/></svg>